Shantell Sans-Light.ufo
<glyph name="numbersign" format="2">
	<advance width="937" height="0"/>
	<unicode hex="0023"/>
	<outline>
		<contour>
			<point x="549" y="-148" type="curve" smooth="yes"/>
			<point x="564" y="-149"/>
			<point x="579" y="-135"/>
			<point x="579" y="-120" type="curve" smooth="yes"/>
			<point x="579" y="178"/>
			<point x="786" y="559"/>
			<point x="786" y="710" type="curve" smooth="yes"/>
			<point x="786" y="743"/>
			<point x="765" y="760"/>
			<point x="745" y="759" type="curve" smooth="yes"/>
			<point x="726" y="758"/>
			<point x="718" y="743"/>
			<point x="718" y="727" type="curve" smooth="yes"/>
			<point x="718" y="563"/>
			<point x="511" y="179"/>
			<point x="511" y="-102" type="curve" smooth="yes"/>
			<point x="511" y="-131"/>
			<point x="528" y="-147"/>
		</contour>
		<contour>
			<point x="92" y="146" type="curve" smooth="yes"/>
			<point x="307" y="146"/>
			<point x="600" y="187"/>
			<point x="829" y="187" type="curve" smooth="yes"/>
			<point x="862" y="187"/>
			<point x="881" y="206"/>
			<point x="881" y="225" type="curve" smooth="yes"/>
			<point x="881" y="245"/>
			<point x="867" y="253"/>
			<point x="851" y="253" type="curve" smooth="yes"/>
			<point x="612" y="253"/>
			<point x="331" y="215"/>
			<point x="79" y="215" type="curve" smooth="yes"/>
			<point x="60" y="215"/>
			<point x="47" y="206"/>
			<point x="46" y="188" type="curve" smooth="yes"/>
			<point x="45" y="169"/>
			<point x="60" y="146"/>
		</contour>
		<contour>
			<point x="211" y="-95" type="curve" smooth="yes"/>
			<point x="226" y="-96"/>
			<point x="241" y="-82"/>
			<point x="241" y="-67" type="curve" smooth="yes"/>
			<point x="241" y="143"/>
			<point x="448" y="611"/>
			<point x="448" y="770" type="curve" smooth="yes"/>
			<point x="448" y="793"/>
			<point x="430" y="812"/>
			<point x="409" y="812" type="curve" smooth="yes"/>
			<point x="390" y="812"/>
			<point x="380" y="798"/>
			<point x="380" y="782" type="curve" smooth="yes"/>
			<point x="377" y="620"/>
			<point x="173" y="160"/>
			<point x="173" y="-49" type="curve" smooth="yes"/>
			<point x="173" y="-78"/>
			<point x="190" y="-94"/>
		</contour>
		<contour>
			<point x="839" y="457" type="curve" smooth="yes"/>
			<point x="872" y="457"/>
			<point x="892" y="474"/>
			<point x="891" y="498" type="curve" smooth="yes"/>
			<point x="890" y="516"/>
			<point x="877" y="522"/>
			<point x="855" y="522" type="curve" smooth="yes"/>
			<point x="351" y="522"/>
			<point x="258" y="558"/>
			<point x="191" y="558" type="curve" smooth="yes"/>
			<point x="170" y="558"/>
			<point x="156" y="548"/>
			<point x="156" y="529" type="curve" smooth="yes"/>
			<point x="156" y="510"/>
			<point x="167" y="493"/>
			<point x="206" y="488" type="curve" smooth="yes"/>
			<point x="416" y="461"/>
			<point x="615" y="457"/>
		</contour>
	</outline>
</glyph>
<glyph name="period" format="2">
	<advance width="239" height="0"/>
	<unicode hex="002E"/>
	<outline>
		<contour>
			<point x="135" y="-10" type="curve" smooth="yes"/>
			<point x="169" y="-10"/>
			<point x="182" y="16"/>
			<point x="182" y="41" type="curve" smooth="yes"/>
			<point x="182" y="76"/>
			<point x="153" y="119"/>
			<point x="105" y="119" type="curve" smooth="yes"/>
			<point x="79" y="119"/>
			<point x="57" y="99"/>
			<point x="57" y="71" type="curve" smooth="yes"/>
			<point x="57" y="30"/>
			<point x="93" y="-10"/>
		</contour>
	</outline>
</glyph>
<glyph name="three" format="2">
	<advance width="700" height="0"/>
	<unicode hex="0033"/>
	<outline>
		<contour>
			<point x="317" y="-12" type="curve" smooth="yes"/>
			<point x="493" y="-12"/>
			<point x="608" y="78.87"/>
			<point x="608" y="208" type="curve" smooth="yes"/>
			<point x="608" y="317.519"/>
			<point x="518.001" y="378"/>
			<point x="319" y="376" type="curve"/>
			<point x="318" y="359" type="line"/>
			<point x="504.615" y="391.106"/>
			<point x="546" y="484.35"/>
			<point x="546" y="562" type="curve" smooth="yes"/>
			<point x="546" y="652.882"/>
			<point x="490" y="712"/>
			<point x="372" y="712" type="curve" smooth="yes"/>
			<point x="235.146" y="712"/>
			<point x="106" y="638"/>
			<point x="106" y="600" type="curve" smooth="yes"/>
			<point x="106" y="584"/>
			<point x="116" y="573"/>
			<point x="140" y="573" type="curve" smooth="yes"/>
			<point x="176" y="573"/>
			<point x="199" y="647"/>
			<point x="372" y="647" type="curve" smooth="yes"/>
			<point x="423" y="647"/>
			<point x="479" y="634.857"/>
			<point x="479" y="562" type="curve" smooth="yes"/>
			<point x="479" y="470.652"/>
			<point x="383.941" y="427.24"/>
			<point x="281" y="401" type="curve" smooth="yes"/>
			<point x="260" y="396"/>
			<point x="251" y="382"/>
			<point x="251" y="367" type="curve" smooth="yes"/>
			<point x="251" y="346"/>
			<point x="270" y="323"/>
			<point x="303" y="323" type="curve" smooth="yes"/>
			<point x="439" y="322"/>
			<point x="541" y="296.714"/>
			<point x="541" y="208" type="curve" smooth="yes"/>
			<point x="541" y="116.012"/>
			<point x="431" y="55"/>
			<point x="304" y="55" type="curve" smooth="yes"/>
			<point x="174" y="55"/>
			<point x="173" y="115"/>
			<point x="139" y="115" type="curve" smooth="yes"/>
			<point x="123" y="115"/>
			<point x="112" y="101.345"/>
			<point x="112" y="82" type="curve" smooth="yes"/>
			<point x="112" y="44"/>
			<point x="183" y="-12"/>
		</contour>
	</outline>
</glyph>
<glyph name="four" format="2">
	<advance width="700" height="0"/>
	<unicode hex="0034"/>
	<outline>
		<contour>
			<point x="495" y="-11" type="curve" smooth="yes"/>
			<point x="513" y="-11"/>
			<point x="525" y="5"/>
			<point x="525" y="33" type="curve" smooth="yes"/>
			<point x="525" y="65"/>
			<point x="515" y="90"/>
			<point x="515" y="148" type="curve" smooth="yes"/>
			<point x="515" y="298"/>
			<point x="562" y="403"/>
			<point x="562" y="545" type="curve" smooth="yes"/>
			<point x="562" y="663"/>
			<point x="548" y="715"/>
			<point x="508" y="715" type="curve" smooth="yes"/>
			<point x="402.751" y="715"/>
			<point x="197.671" y="546.404"/>
			<point x="107" y="329" type="curve" smooth="yes"/>
			<point x="89" y="286"/>
			<point x="83" y="267"/>
			<point x="83" y="242" type="curve" smooth="yes"/>
			<point x="83" y="199"/>
			<point x="116" y="170"/>
			<point x="168" y="170" type="curve" smooth="yes"/>
			<point x="316.698" y="170"/>
			<point x="424.557" y="222"/>
			<point x="612" y="222" type="curve" smooth="yes"/>
			<point x="645" y="222"/>
			<point x="659" y="233"/>
			<point x="659" y="249" type="curve" smooth="yes"/>
			<point x="659" y="272.737"/>
			<point x="633" y="290"/>
			<point x="586" y="290" type="curve" smooth="yes"/>
			<point x="410" y="290"/>
			<point x="304.292" y="236"/>
			<point x="175" y="236" type="curve" smooth="yes"/>
			<point x="156" y="236"/>
			<point x="149" y="237"/>
			<point x="114" y="252" type="curve"/>
			<point x="138" y="214" type="line"/>
			<point x="192.934" y="404.234"/>
			<point x="323" y="574"/>
			<point x="508" y="659" type="curve"/>
			<point x="480" y="662" type="line"/>
			<point x="490" y="632"/>
			<point x="495" y="596"/>
			<point x="495" y="543" type="curve" smooth="yes"/>
			<point x="495" y="396"/>
			<point x="448" y="277"/>
			<point x="448" y="157" type="curve" smooth="yes"/>
			<point x="448" y="39"/>
			<point x="461" y="-11"/>
		</contour>
	</outline>
</glyph>
<glyph name="five" format="2">
	<advance width="700" height="0"/>
	<unicode hex="0035"/>
	<outline>
		<contour>
			<point x="252" y="-12" type="curve" smooth="yes"/>
			<point x="468.957" y="-12"/>
			<point x="611" y="102"/>
			<point x="611" y="243" type="curve" smooth="yes"/>
			<point x="611" y="319"/>
			<point x="566.355" y="373.584"/>
			<point x="381" y="412" type="curve" smooth="yes"/>
			<point x="189.664" y="451.949"/>
			<point x="184" y="457"/>
			<point x="184" y="489" type="curve" smooth="yes"/>
			<point x="184" y="539"/>
			<point x="213" y="622"/>
			<point x="236" y="666" type="curve"/>
			<point x="170" y="635" type="line"/>
			<point x="340.473" y="631.919"/>
			<point x="406.581" y="651"/>
			<point x="551" y="651" type="curve" smooth="yes"/>
			<point x="577" y="651"/>
			<point x="594" y="660"/>
			<point x="595" y="675" type="curve" smooth="yes"/>
			<point x="596" y="696"/>
			<point x="572" y="716"/>
			<point x="525" y="716" type="curve" smooth="yes"/>
			<point x="414.045" y="716"/>
			<point x="357.686" y="696.902"/>
			<point x="210" y="700" type="curve" smooth="yes"/>
			<point x="183" y="700"/>
			<point x="160" y="683"/>
			<point x="147" y="641" type="curve" smooth="yes"/>
			<point x="126" y="571"/>
			<point x="117" y="520"/>
			<point x="117" y="483" type="curve" smooth="yes"/>
			<point x="117" y="414"/>
			<point x="132.015" y="397.85"/>
			<point x="345" y="354" type="curve" smooth="yes"/>
			<point x="458.764" y="329.983"/>
			<point x="544" y="304"/>
			<point x="544" y="239" type="curve" smooth="yes"/>
			<point x="544" y="122"/>
			<point x="410.627" y="53"/>
			<point x="239" y="53" type="curve" smooth="yes"/>
			<point x="167" y="53"/>
			<point x="174" y="115"/>
			<point x="142" y="115" type="curve" smooth="yes"/>
			<point x="124" y="115"/>
			<point x="115" y="99"/>
			<point x="115" y="78" type="curve" smooth="yes"/>
			<point x="115" y="24"/>
			<point x="158.057" y="-12"/>
		</contour>
	</outline>
</glyph>
<glyph name="eight" format="2">
	<advance width="700" height="0"/>
	<unicode hex="0038"/>
	<outline>
		<contour>
			<point x="296" y="-12" type="curve"/>
			<point x="505" y="-12"/>
			<point x="593" y="87"/>
			<point x="593" y="190" type="curve" smooth="yes"/>
			<point x="593" y="262.34"/>
			<point x="580.282" y="328.26"/>
			<point x="374" y="403" type="curve" smooth="yes"/>
			<point x="181.361" y="473.233"/>
			<point x="160" y="504.287"/>
			<point x="160" y="545" type="curve" smooth="yes"/>
			<point x="160" y="617"/>
			<point x="252.73" y="650.469"/>
			<point x="446" y="646" type="curve" smooth="yes"/>
			<point x="462" y="645"/>
			<point x="477" y="656"/>
			<point x="477" y="669" type="curve" smooth="yes"/>
			<point x="477" y="690"/>
			<point x="455" y="711"/>
			<point x="405" y="711" type="curve" smooth="yes"/>
			<point x="190" y="711"/>
			<point x="95" y="650"/>
			<point x="93" y="547" type="curve" smooth="yes"/>
			<point x="91.995" y="473.644"/>
			<point x="123.877" y="421.044"/>
			<point x="349" y="341" type="curve" smooth="yes"/>
			<point x="491.893" y="290.038"/>
			<point x="526" y="252.593"/>
			<point x="526" y="192" type="curve" smooth="yes"/>
			<point x="526" y="99"/>
			<point x="414" y="53"/>
			<point x="296" y="53" type="curve"/>
			<point x="241" y="53"/>
			<point x="202" y="63"/>
			<point x="172" y="84" type="curve"/>
			<point x="215" y="41" type="line"/>
			<point x="193" y="66"/>
			<point x="187" y="95"/>
			<point x="187" y="124" type="curve" smooth="yes"/>
			<point x="187" y="182"/>
			<point x="226" y="244"/>
			<point x="379" y="343" type="curve" smooth="yes"/>
			<point x="516" y="434"/>
			<point x="577" y="535"/>
			<point x="577" y="609" type="curve" smooth="yes"/>
			<point x="577" y="628"/>
			<point x="562.86" y="643"/>
			<point x="546" y="643" type="curve" smooth="yes"/>
			<point x="528.778" y="643"/>
			<point x="522" y="631"/>
			<point x="513" y="602" type="curve" smooth="yes"/>
			<point x="487" y="512"/>
			<point x="434" y="456"/>
			<point x="334" y="389" type="curve" smooth="yes"/>
			<point x="136" y="255"/>
			<point x="122" y="193"/>
			<point x="121" y="125" type="curve" smooth="yes"/>
			<point x="120" y="58"/>
			<point x="168" y="-12"/>
		</contour>
	</outline>
</glyph>
<glyph name="colon" format="2">
	<advance width="270" height="0"/>
	<unicode hex="003A"/>
	<outline>
		<contour>
			<point x="142" y="366" type="curve" smooth="yes"/>
			<point x="183" y="366"/>
			<point x="199" y="392"/>
			<point x="199" y="417" type="curve" smooth="yes"/>
			<point x="199" y="454"/>
			<point x="174" y="495"/>
			<point x="128" y="495" type="curve" smooth="yes"/>
			<point x="90" y="495"/>
			<point x="74" y="473"/>
			<point x="74" y="443" type="curve" smooth="yes"/>
			<point x="74" y="398"/>
			<point x="104" y="366"/>
		</contour>
		<contour>
			<point x="142" y="-10" type="curve" smooth="yes"/>
			<point x="183" y="-10"/>
			<point x="199" y="16"/>
			<point x="199" y="41" type="curve" smooth="yes"/>
			<point x="199" y="76"/>
			<point x="174" y="119"/>
			<point x="132" y="119" type="curve" smooth="yes"/>
			<point x="101" y="119"/>
			<point x="74" y="95"/>
			<point x="74" y="61" type="curve" smooth="yes"/>
			<point x="74" y="25"/>
			<point x="105" y="-10"/>
		</contour>
	</outline>
</glyph>
<glyph name="at" format="2">
	<advance width="848" height="0"/>
	<unicode hex="0040"/>
	<outline>
		<contour>
			<point x="447" y="-102" type="curve" smooth="yes"/>
			<point x="577" y="-102"/>
			<point x="636" y="-76"/>
			<point x="677" y="-46" type="curve" smooth="yes"/>
			<point x="696" y="-32"/>
			<point x="701" y="-17"/>
			<point x="701" y="-1" type="curve" smooth="yes"/>
			<point x="701" y="17"/>
			<point x="694" y="29"/>
			<point x="676" y="29" type="curve" smooth="yes"/>
			<point x="641" y="29"/>
			<point x="631" y="-34"/>
			<point x="447" y="-34" type="curve" smooth="yes"/>
			<point x="287" y="-34"/>
			<point x="138" y="52"/>
			<point x="138" y="231" type="curve" smooth="yes"/>
			<point x="138" y="392"/>
			<point x="294" y="552"/>
			<point x="459" y="552" type="curve" smooth="yes"/>
			<point x="647" y="552"/>
			<point x="710" y="400"/>
			<point x="710" y="290" type="curve" smooth="yes"/>
			<point x="710" y="241"/>
			<point x="698" y="180"/>
			<point x="659" y="180" type="curve" smooth="yes"/>
			<point x="641" y="180"/>
			<point x="633" y="185"/>
			<point x="607" y="243" type="curve" smooth="yes"/>
			<point x="582" y="298"/>
			<point x="555" y="309"/>
			<point x="526" y="309" type="curve" smooth="yes"/>
			<point x="498" y="309"/>
			<point x="476" y="298"/>
			<point x="449" y="228" type="curve" smooth="yes"/>
			<point x="431" y="183"/>
			<point x="417" y="167"/>
			<point x="387" y="167" type="curve" smooth="yes"/>
			<point x="375" y="167"/>
			<point x="361" y="170"/>
			<point x="325" y="191" type="curve"/>
			<point x="363" y="148" type="line"/>
			<point x="346" y="188"/>
			<point x="346" y="204"/>
			<point x="346" y="219" type="curve" smooth="yes"/>
			<point x="346" y="275"/>
			<point x="397" y="334"/>
			<point x="496" y="341" type="curve" smooth="yes"/>
			<point x="523" y="343"/>
			<point x="534" y="353"/>
			<point x="534" y="371" type="curve" smooth="yes"/>
			<point x="534" y="390"/>
			<point x="521" y="409"/>
			<point x="488" y="409" type="curve" smooth="yes"/>
			<point x="390" y="409"/>
			<point x="278" y="324"/>
			<point x="278" y="219" type="curve" smooth="yes"/>
			<point x="278" y="138"/>
			<point x="331" y="101"/>
			<point x="389" y="101" type="curve" smooth="yes"/>
			<point x="494" y="101"/>
			<point x="502" y="219"/>
			<point x="538" y="256" type="curve"/>
			<point x="510" y="256" type="line"/>
			<point x="538" y="241"/>
			<point x="545" y="224"/>
			<point x="559" y="189" type="curve" smooth="yes"/>
			<point x="573" y="154"/>
			<point x="598" y="112"/>
			<point x="657" y="112" type="curve" smooth="yes"/>
			<point x="715" y="112"/>
			<point x="778" y="159"/>
			<point x="778" y="290" type="curve" smooth="yes"/>
			<point x="778" y="430"/>
			<point x="693" y="620"/>
			<point x="459" y="620" type="curve" smooth="yes"/>
			<point x="258" y="620"/>
			<point x="70" y="426"/>
			<point x="70" y="231" type="curve"/>
			<point x="70" y="12"/>
			<point x="245" y="-102"/>
		</contour>
	</outline>
</glyph>
<glyph name="L" format="2">
	<advance width="556" height="0"/>
	<unicode hex="004C"/>
	<anchor x="289" y="0" name="bottom"/>
	<anchor x="157" y="700" name="top"/>
	<outline>
		<contour>
			<point x="286" y="-9" type="curve" smooth="yes"/>
			<point x="367.361" y="-9"/>
			<point x="437.641" y="6.18"/>
			<point x="499" y="35" type="curve" smooth="yes"/>
			<point x="516" y="43"/>
			<point x="527" y="59"/>
			<point x="527" y="75" type="curve" smooth="yes"/>
			<point x="527" y="91"/>
			<point x="517" y="101"/>
			<point x="500" y="101" type="curve" smooth="yes"/>
			<point x="469.857" y="101"/>
			<point x="432" y="56"/>
			<point x="289" y="56" type="curve" smooth="yes"/>
			<point x="185" y="56"/>
			<point x="144" y="130"/>
			<point x="144" y="244" type="curve" smooth="yes"/>
			<point x="144" y="399"/>
			<point x="194" y="509"/>
			<point x="194" y="644" type="curve" smooth="yes"/>
			<point x="194" y="691"/>
			<point x="179.739" y="710"/>
			<point x="153" y="710" type="curve" smooth="yes"/>
			<point x="128.238" y="710"/>
			<point x="127" y="693"/>
			<point x="127" y="658" type="curve" smooth="yes"/>
			<point x="127" y="523"/>
			<point x="76" y="408.879"/>
			<point x="76" y="251" type="curve" smooth="yes"/>
			<point x="76" y="83"/>
			<point x="150.053" y="-9"/>
		</contour>
	</outline>
</glyph>
<glyph name="N" format="2">
	<advance width="754" height="0"/>
	<unicode hex="004E"/>
	<anchor x="384" y="0" name="bottom"/>
	<anchor x="384" y="700" name="top"/>
	<outline>
		<contour>
			<point x="117" y="-8" type="curve" smooth="yes"/>
			<point x="135" y="-8"/>
			<point x="148" y="8"/>
			<point x="154" y="29" type="curve" smooth="yes"/>
			<point x="182" y="114"/>
			<point x="193" y="217"/>
			<point x="193" y="342" type="curve" smooth="yes"/>
			<point x="193" y="420"/>
			<point x="188" y="515"/>
			<point x="175" y="641" type="curve"/>
			<point x="164" y="637" type="line"/>
			<point x="353" y="486"/>
			<point x="374.478" y="-10"/>
			<point x="567" y="-10" type="curve" smooth="yes"/>
			<point x="645" y="-10"/>
			<point x="658" y="96"/>
			<point x="658" y="242" type="curve" smooth="yes"/>
			<point x="658" y="391"/>
			<point x="643" y="506"/>
			<point x="669" y="635" type="curve" smooth="yes"/>
			<point x="676" y="672"/>
			<point x="663" y="705"/>
			<point x="638" y="705" type="curve" smooth="yes"/>
			<point x="617" y="705"/>
			<point x="606" y="692"/>
			<point x="599" y="660" type="curve" smooth="yes"/>
			<point x="572" y="538"/>
			<point x="588" y="394"/>
			<point x="588" y="237" type="curve" smooth="yes"/>
			<point x="588" y="144"/>
			<point x="582" y="101"/>
			<point x="553" y="56" type="curve"/>
			<point x="576" y="68" type="line"/>
			<point x="432" y="66"/>
			<point x="354" y="710"/>
			<point x="156" y="710" type="curve" smooth="yes"/>
			<point x="124" y="710"/>
			<point x="107" y="678"/>
			<point x="107" y="638" type="curve" smooth="yes"/>
			<point x="107" y="605"/>
			<point x="123" y="457"/>
			<point x="123" y="342" type="curve" smooth="yes"/>
			<point x="123" y="140"/>
			<point x="83" y="96"/>
			<point x="83" y="43" type="curve" smooth="yes"/>
			<point x="83" y="4"/>
			<point x="99" y="-8"/>
		</contour>
	</outline>
</glyph>
<glyph name="Q" format="2">
	<advance width="716" height="0"/>
	<unicode hex="0051"/>
	<anchor x="359" y="0" name="bottom"/>
	<anchor x="388" y="700" name="top"/>
	<outline>
		<contour>
			<point x="360" y="-9" type="curve" smooth="yes"/>
			<point x="539" y="-9"/>
			<point x="644" y="144"/>
			<point x="644" y="327" type="curve" smooth="yes"/>
			<point x="644" y="546"/>
			<point x="532" y="709"/>
			<point x="399" y="709" type="curve" smooth="yes"/>
			<point x="277" y="709"/>
			<point x="156" y="588"/>
			<point x="156" y="499" type="curve" smooth="yes"/>
			<point x="156" y="487"/>
			<point x="161" y="478"/>
			<point x="169" y="478" type="curve" smooth="yes"/>
			<point x="192" y="478"/>
			<point x="207" y="488"/>
			<point x="223" y="519" type="curve" smooth="yes"/>
			<point x="264" y="598"/>
			<point x="331" y="644"/>
			<point x="384" y="644" type="curve" smooth="yes"/>
			<point x="509" y="644"/>
			<point x="577" y="484"/>
			<point x="577" y="315" type="curve" smooth="yes"/>
			<point x="577" y="183"/>
			<point x="494" y="56"/>
			<point x="360" y="56" type="curve" smooth="yes"/>
			<point x="197" y="56"/>
			<point x="137" y="179"/>
			<point x="137" y="313" type="curve" smooth="yes"/>
			<point x="137" y="409"/>
			<point x="166" y="523"/>
			<point x="218" y="575" type="curve" smooth="yes"/>
			<point x="246" y="603"/>
			<point x="264" y="609"/>
			<point x="264" y="626" type="curve" smooth="yes"/>
			<point x="264" y="639"/>
			<point x="256" y="654"/>
			<point x="233" y="654" type="curve" smooth="yes"/>
			<point x="191" y="654"/>
			<point x="70" y="538"/>
			<point x="70" y="313" type="curve" smooth="yes"/>
			<point x="70" y="144"/>
			<point x="147" y="-9"/>
		</contour>
		<contour>
			<point x="622" y="-111" type="curve" smooth="yes"/>
			<point x="648" y="-111"/>
			<point x="667" y="-87"/>
			<point x="638" y="-54" type="curve" smooth="yes"/>
			<point x="532" y="67"/>
			<point x="468" y="227"/>
			<point x="438" y="275" type="curve" smooth="yes"/>
			<point x="409" y="323"/>
			<point x="399" y="335"/>
			<point x="375" y="335" type="curve" smooth="yes"/>
			<point x="348" y="335"/>
			<point x="336" y="303"/>
			<point x="361" y="268" type="curve" smooth="yes"/>
			<point x="415" y="189"/>
			<point x="485" y="5"/>
			<point x="557" y="-74" type="curve" smooth="yes"/>
			<point x="587" y="-106"/>
			<point x="603" y="-111"/>
		</contour>
	</outline>
</glyph>
<glyph name="U" format="2">
	<advance width="663" height="0"/>
	<unicode hex="0055"/>
	<anchor x="337" y="0" name="bottom"/>
	<anchor x="446" y="12" name="ogonek"/>
	<anchor x="337" y="700" name="top"/>
	<outline>
		<contour>
			<point x="349" y="-13" type="curve" smooth="yes"/>
			<point x="507" y="-13"/>
			<point x="579" y="114"/>
			<point x="579" y="298" type="curve" smooth="yes"/>
			<point x="579" y="371"/>
			<point x="574" y="441"/>
			<point x="574" y="511" type="curve" smooth="yes"/>
			<point x="574" y="618"/>
			<point x="586" y="647"/>
			<point x="586" y="684" type="curve" smooth="yes"/>
			<point x="586" y="706"/>
			<point x="576" y="712"/>
			<point x="560" y="712" type="curve" smooth="yes"/>
			<point x="525" y="712"/>
			<point x="504" y="676"/>
			<point x="504" y="615" type="curve" smooth="yes"/>
			<point x="504" y="498"/>
			<point x="512" y="429"/>
			<point x="512" y="305" type="curve" smooth="yes"/>
			<point x="512" y="132"/>
			<point x="462" y="53"/>
			<point x="342" y="53" type="curve" smooth="yes"/>
			<point x="235" y="53"/>
			<point x="150" y="126"/>
			<point x="150" y="339" type="curve" smooth="yes"/>
			<point x="150" y="396"/>
			<point x="157" y="466"/>
			<point x="157" y="518" type="curve" smooth="yes"/>
			<point x="157" y="661"/>
			<point x="124" y="712"/>
			<point x="95" y="712" type="curve" smooth="yes"/>
			<point x="76" y="712"/>
			<point x="65" y="701"/>
			<point x="65" y="676" type="curve" smooth="yes"/>
			<point x="65" y="630"/>
			<point x="89" y="618"/>
			<point x="89" y="489" type="curve" smooth="yes"/>
			<point x="89" y="451"/>
			<point x="84" y="391"/>
			<point x="84" y="337" type="curve" smooth="yes"/>
			<point x="84" y="126"/>
			<point x="163" y="-13"/>
		</contour>
	</outline>
</glyph>
<glyph name="bracketleft" format="2">
	<advance width="452" height="0"/>
	<unicode hex="005B"/>
	<outline>
		<contour>
			<point x="153" y="-264" type="curve" smooth="yes"/>
			<point x="173" y="-264"/>
			<point x="195" y="-256"/>
			<point x="224" y="-256" type="curve" smooth="yes"/>
			<point x="256" y="-256"/>
			<point x="293" y="-259"/>
			<point x="327" y="-259" type="curve" smooth="yes"/>
			<point x="387" y="-259"/>
			<point x="420" y="-247"/>
			<point x="420" y="-213" type="curve" smooth="yes"/>
			<point x="420" y="-198"/>
			<point x="411" y="-185"/>
			<point x="394" y="-185" type="curve" smooth="yes"/>
			<point x="379" y="-185"/>
			<point x="342" y="-191"/>
			<point x="310" y="-191" type="curve" smooth="yes"/>
			<point x="248" y="-191"/>
			<point x="182" y="-183"/>
			<point x="143" y="-196" type="curve"/>
			<point x="185" y="-211" type="line"/>
			<point x="136" y="-83"/>
			<point x="151" y="133"/>
			<point x="156" y="238" type="curve" smooth="yes"/>
			<point x="162" y="351"/>
			<point x="142" y="628"/>
			<point x="163" y="764" type="curve"/>
			<point x="123" y="734" type="line"/>
			<point x="174" y="732"/>
			<point x="279" y="748"/>
			<point x="347" y="748" type="curve" smooth="yes"/>
			<point x="360" y="748"/>
			<point x="368" y="746"/>
			<point x="382" y="746" type="curve" smooth="yes"/>
			<point x="403" y="746"/>
			<point x="422" y="764"/>
			<point x="422" y="786" type="curve" smooth="yes"/>
			<point x="422" y="813"/>
			<point x="396" y="817"/>
			<point x="357" y="817" type="curve" smooth="yes"/>
			<point x="286" y="817"/>
			<point x="181" y="804"/>
			<point x="133" y="804" type="curve" smooth="yes"/>
			<point x="114" y="804"/>
			<point x="96" y="793"/>
			<point x="93" y="774" type="curve" smooth="yes"/>
			<point x="73" y="637"/>
			<point x="92" y="356"/>
			<point x="86" y="242" type="curve" smooth="yes"/>
			<point x="81" y="127"/>
			<point x="58" y="-123"/>
			<point x="123" y="-245" type="curve" smooth="yes"/>
			<point x="129" y="-256"/>
			<point x="138" y="-264"/>
		</contour>
	</outline>
</glyph>
<glyph name="backslash" format="2">
	<advance width="330" height="0"/>
	<unicode hex="005C"/>
	<outline>
		<contour>
			<point x="313" y="-205" type="curve" smooth="yes"/>
			<point x="343" y="-205"/>
			<point x="363" y="-183"/>
			<point x="344" y="-140" type="curve" smooth="yes"/>
			<point x="220" y="124"/>
			<point x="107" y="396"/>
			<point x="74" y="753" type="curve" smooth="yes"/>
			<point x="70" y="792"/>
			<point x="50" y="810"/>
			<point x="32" y="810" type="curve" smooth="yes"/>
			<point x="5" y="810"/>
			<point x="-7" y="788"/>
			<point x="-1" y="738" type="curve" smooth="yes"/>
			<point x="34" y="399"/>
			<point x="141" y="107"/>
			<point x="274" y="-173" type="curve" smooth="yes"/>
			<point x="285" y="-194"/>
			<point x="298" y="-205"/>
		</contour>
	</outline>
</glyph>
<glyph name="asciicircum" format="2">
	<advance width="610" height="0"/>
	<unicode hex="005E"/>
	<outline>
		<contour>
			<point x="513" y="449" type="curve" smooth="yes"/>
			<point x="533" y="449"/>
			<point x="544" y="462"/>
			<point x="544" y="478" type="curve" smooth="yes"/>
			<point x="544" y="514"/>
			<point x="495" y="515"/>
			<point x="387" y="657" type="curve" smooth="yes"/>
			<point x="356" y="699"/>
			<point x="339" y="709"/>
			<point x="310" y="709" type="curve" smooth="yes"/>
			<point x="271" y="709"/>
			<point x="268" y="687"/>
			<point x="206" y="634" type="curve" smooth="yes"/>
			<point x="77" y="525"/>
			<point x="67" y="505"/>
			<point x="67" y="483" type="curve" smooth="yes"/>
			<point x="67" y="468"/>
			<point x="84" y="454"/>
			<point x="106" y="454" type="curve" smooth="yes"/>
			<point x="136" y="454"/>
			<point x="152" y="470"/>
			<point x="318" y="647" type="curve"/>
			<point x="301" y="646" type="line"/>
			<point x="427" y="489"/>
			<point x="453" y="449"/>
		</contour>
	</outline>
</glyph>
<glyph name="grave" format="2">
	<advance width="360" height="0"/>
	<unicode hex="0060"/>
	<outline>
		<contour>
			<point x="284" y="477" type="curve" smooth="yes"/>
			<point x="317.679" y="477"/>
			<point x="342.375" y="500.625"/>
			<point x="287" y="556" type="curve" smooth="yes"/>
			<point x="244" y="600"/>
			<point x="191" y="640"/>
			<point x="147" y="736" type="curve" smooth="yes"/>
			<point x="124" y="786"/>
			<point x="104" y="809"/>
			<point x="72" y="809" type="curve" smooth="yes"/>
			<point x="38" y="809"/>
			<point x="8" y="793"/>
			<point x="49" y="715" type="curve" smooth="yes"/>
			<point x="93" y="632"/>
			<point x="169" y="538"/>
			<point x="234" y="495" type="curve" smooth="yes"/>
			<point x="253" y="483"/>
			<point x="270" y="477"/>
		</contour>
	</outline>
</glyph>
<glyph name="b" format="2">
	<advance width="582" height="0"/>
	<unicode hex="0062"/>
	<anchor x="308" y="0" name="bottom"/>
	<anchor x="125" y="750" name="top"/>
	<outline>
		<contour>
			<point x="180" y="-10" type="curve" smooth="yes"/>
			<point x="354" y="-10"/>
			<point x="517" y="99"/>
			<point x="517" y="285" type="curve" smooth="yes"/>
			<point x="517" y="431"/>
			<point x="449" y="493"/>
			<point x="353" y="493" type="curve" smooth="yes"/>
			<point x="277" y="493"/>
			<point x="176" y="420"/>
			<point x="140" y="217" type="curve"/>
			<point x="156" y="186" type="line"/>
			<point x="151" y="269"/>
			<point x="146" y="334"/>
			<point x="146" y="388" type="curve" smooth="yes"/>
			<point x="146" y="552.958"/>
			<point x="162" y="604.507"/>
			<point x="162" y="693" type="curve" smooth="yes"/>
			<point x="162" y="735"/>
			<point x="142" y="759"/>
			<point x="122" y="759" type="curve" smooth="yes"/>
			<point x="104" y="759"/>
			<point x="94" y="739"/>
			<point x="94" y="718" type="curve" smooth="yes"/>
			<point x="94" y="631.736"/>
			<point x="78" y="568.764"/>
			<point x="78" y="404" type="curve" smooth="yes"/>
			<point x="78" y="338"/>
			<point x="87" y="220"/>
			<point x="107" y="110" type="curve" smooth="yes"/>
			<point x="114" y="73"/>
			<point x="123" y="49"/>
			<point x="137" y="49" type="curve" smooth="yes"/>
			<point x="148" y="49"/>
			<point x="158" y="55"/>
			<point x="163" y="78" type="curve" smooth="yes"/>
			<point x="200" y="282"/>
			<point x="255" y="427"/>
			<point x="353" y="427" type="curve" smooth="yes"/>
			<point x="430" y="427"/>
			<point x="450" y="362"/>
			<point x="450" y="294" type="curve" smooth="yes"/>
			<point x="450" y="138"/>
			<point x="326" y="55"/>
			<point x="168" y="55" type="curve" smooth="yes"/>
			<point x="144" y="55"/>
			<point x="117" y="67"/>
			<point x="100" y="67" type="curve" smooth="yes"/>
			<point x="86" y="67"/>
			<point x="76" y="58"/>
			<point x="76" y="41" type="curve" smooth="yes"/>
			<point x="76" y="4"/>
			<point x="131" y="-10"/>
		</contour>
	</outline>
</glyph>
<glyph name="c" format="2">
	<advance width="502" height="0"/>
	<unicode hex="0063"/>
	<anchor x="280" y="0" name="bottom"/>
	<anchor x="280" y="485" name="top"/>
	<outline>
		<contour>
			<point x="286" y="-9" type="curve"/>
			<point x="379" y="-9"/>
			<point x="454" y="33"/>
			<point x="454" y="94" type="curve" smooth="yes"/>
			<point x="454" y="116"/>
			<point x="447" y="124"/>
			<point x="433" y="124" type="curve" smooth="yes"/>
			<point x="403" y="124"/>
			<point x="409" y="56"/>
			<point x="286" y="56" type="curve"/>
			<point x="198" y="56"/>
			<point x="134" y="115"/>
			<point x="134" y="211" type="curve" smooth="yes"/>
			<point x="134" y="322"/>
			<point x="221" y="427"/>
			<point x="341" y="427" type="curve" smooth="yes"/>
			<point x="370" y="427"/>
			<point x="371" y="414"/>
			<point x="392" y="414" type="curve" smooth="yes"/>
			<point x="409" y="414"/>
			<point x="418" y="427"/>
			<point x="418" y="444" type="curve" smooth="yes"/>
			<point x="418" y="487"/>
			<point x="385" y="495"/>
			<point x="351" y="495" type="curve" smooth="yes"/>
			<point x="197" y="495"/>
			<point x="66" y="374"/>
			<point x="66" y="220" type="curve" smooth="yes"/>
			<point x="66" y="81"/>
			<point x="152" y="-9"/>
		</contour>
	</outline>
</glyph>
<glyph name="d" format="2">
	<advance width="618" height="0"/>
	<unicode hex="0064"/>
	<anchor x="304" y="0" name="bottom"/>
	<anchor x="484" y="750" name="top"/>
	<outline>
		<contour>
			<point x="268" y="-9" type="curve" smooth="yes"/>
			<point x="358" y="-9"/>
			<point x="438" y="85"/>
			<point x="476" y="328" type="curve"/>
			<point x="443" y="319" type="line"/>
			<point x="434" y="148"/>
			<point x="492" y="-8"/>
			<point x="552" y="-8" type="curve" smooth="yes"/>
			<point x="576" y="-8"/>
			<point x="585" y="8"/>
			<point x="585" y="21" type="curve" smooth="yes"/>
			<point x="585" y="70"/>
			<point x="502" y="91"/>
			<point x="502" y="308" type="curve" smooth="yes"/>
			<point x="502" y="444"/>
			<point x="515" y="532"/>
			<point x="515" y="687" type="curve" smooth="yes"/>
			<point x="515" y="734"/>
			<point x="504" y="760"/>
			<point x="481" y="760" type="curve" smooth="yes"/>
			<point x="462" y="760"/>
			<point x="447" y="748"/>
			<point x="447" y="707" type="curve" smooth="yes"/>
			<point x="447" y="289"/>
			<point x="369" y="56"/>
			<point x="262" y="56" type="curve" smooth="yes"/>
			<point x="195" y="56"/>
			<point x="131" y="153"/>
			<point x="131" y="279" type="curve" smooth="yes"/>
			<point x="131" y="372"/>
			<point x="182" y="430"/>
			<point x="278" y="430" type="curve" smooth="yes"/>
			<point x="377" y="430"/>
			<point x="376" y="376"/>
			<point x="413" y="376" type="curve" smooth="yes"/>
			<point x="424" y="376"/>
			<point x="433" y="384"/>
			<point x="433" y="396" type="curve" smooth="yes"/>
			<point x="433" y="451"/>
			<point x="373" y="495"/>
			<point x="277" y="495" type="curve" smooth="yes"/>
			<point x="150" y="495"/>
			<point x="65" y="409"/>
			<point x="65" y="279" type="curve" smooth="yes"/>
			<point x="65" y="124"/>
			<point x="149" y="-9"/>
		</contour>
	</outline>
</glyph>
<glyph name="f" format="2">
	<advance width="349" height="0"/>
	<unicode hex="0066"/>
	<anchor x="124" y="0" name="bottom"/>
	<anchor x="241" y="750" name="top"/>
	<outline>
		<contour>
			<point x="132" y="-13" type="curve" smooth="yes"/>
			<point x="150" y="-13"/>
			<point x="159" y="-4"/>
			<point x="159" y="29" type="curve" smooth="yes"/>
			<point x="159" y="203.259"/>
			<point x="141" y="300.07"/>
			<point x="141" y="396" type="curve" smooth="yes"/>
			<point x="141" y="553"/>
			<point x="166" y="666"/>
			<point x="335" y="700" type="curve" smooth="yes"/>
			<point x="359" y="705"/>
			<point x="369" y="718"/>
			<point x="369" y="733" type="curve" smooth="yes"/>
			<point x="369" y="751"/>
			<point x="347" y="760"/>
			<point x="331" y="760" type="curve" smooth="yes"/>
			<point x="189" y="760"/>
			<point x="71" y="646"/>
			<point x="71" y="439" type="curve" smooth="yes"/>
			<point x="71" y="283.752"/>
			<point x="89" y="223.427"/>
			<point x="89" y="46" type="curve" smooth="yes"/>
			<point x="89" y="9"/>
			<point x="111" y="-13"/>
		</contour>
		<contour>
			<point x="130" y="419" type="curve" smooth="yes"/>
			<point x="158" y="419"/>
			<point x="184" y="434"/>
			<point x="288" y="434" type="curve" smooth="yes"/>
			<point x="314" y="434"/>
			<point x="325" y="443"/>
			<point x="325" y="458" type="curve" smooth="yes"/>
			<point x="325" y="476"/>
			<point x="311" y="494"/>
			<point x="281" y="494" type="curve" smooth="yes"/>
			<point x="229" y="494"/>
			<point x="186" y="489"/>
			<point x="143" y="481" type="curve" smooth="yes"/>
			<point x="116" y="475"/>
			<point x="106" y="457"/>
			<point x="106" y="440" type="curve" smooth="yes"/>
			<point x="106" y="426"/>
			<point x="117" y="419"/>
		</contour>
	</outline>
</glyph>
<glyph name="l" format="2">
	<advance width="304" height="0"/>
	<unicode hex="006C"/>
	<anchor x="202" y="0" name="bottom"/>
	<anchor x="137" y="750" name="top"/>
	<outline>
		<contour>
			<point x="205" y="-11" type="curve" smooth="yes"/>
			<point x="248" y="-11"/>
			<point x="295" y="15"/>
			<point x="295" y="45" type="curve" smooth="yes"/>
			<point x="295" y="62"/>
			<point x="289" y="74"/>
			<point x="271" y="74" type="curve" smooth="yes"/>
			<point x="250" y="74"/>
			<point x="244" y="56"/>
			<point x="203" y="56" type="curve" smooth="yes"/>
			<point x="167" y="56"/>
			<point x="139" y="113.973"/>
			<point x="139" y="297" type="curve" smooth="yes"/>
			<point x="139" y="544"/>
			<point x="167" y="628"/>
			<point x="167" y="701" type="curve" smooth="yes"/>
			<point x="167" y="744"/>
			<point x="155" y="760"/>
			<point x="136" y="760" type="curve" smooth="yes"/>
			<point x="118" y="760"/>
			<point x="108" y="743"/>
			<point x="99" y="691" type="curve" smooth="yes"/>
			<point x="83" y="586"/>
			<point x="71" y="491"/>
			<point x="71" y="317" type="curve" smooth="yes"/>
			<point x="71" y="27.18"/>
			<point x="123" y="-11"/>
		</contour>
	</outline>
</glyph>
<glyph name="o" format="2">
	<advance width="600" height="0"/>
	<unicode hex="006F"/>
	<anchor x="310" y="0" name="bottom"/>
	<anchor x="437" y="37" name="ogonek"/>
	<anchor x="321" y="485" name="top"/>
	<outline>
		<contour>
			<point x="315" y="-12" type="curve" smooth="yes"/>
			<point x="440" y="-12"/>
			<point x="535" y="99"/>
			<point x="535" y="246" type="curve" smooth="yes"/>
			<point x="535" y="398"/>
			<point x="453" y="494"/>
			<point x="321" y="494" type="curve" smooth="yes"/>
			<point x="233.745" y="494"/>
			<point x="152" y="417"/>
			<point x="152" y="363" type="curve" smooth="yes"/>
			<point x="152" y="343"/>
			<point x="160" y="334"/>
			<point x="178" y="334" type="curve" smooth="yes"/>
			<point x="204" y="334"/>
			<point x="202" y="358"/>
			<point x="234" y="390" type="curve" smooth="yes"/>
			<point x="261.233" y="417.233"/>
			<point x="284" y="434"/>
			<point x="329" y="434" type="curve" smooth="yes"/>
			<point x="415" y="434"/>
			<point x="467" y="365.107"/>
			<point x="467" y="252" type="curve" smooth="yes"/>
			<point x="467" y="128.364"/>
			<point x="407" y="48"/>
			<point x="312" y="48" type="curve" smooth="yes"/>
			<point x="202" y="48"/>
			<point x="132" y="124"/>
			<point x="132" y="243" type="curve" smooth="yes"/>
			<point x="132" y="310.337"/>
			<point x="158.411" y="358.948"/>
			<point x="228" y="405" type="curve" smooth="yes"/>
			<point x="254.581" y="422.088"/>
			<point x="260" y="436.367"/>
			<point x="260" y="458" type="curve" smooth="yes"/>
			<point x="260" y="474.435"/>
			<point x="250" y="479"/>
			<point x="235" y="479" type="curve" smooth="yes"/>
			<point x="193" y="479"/>
			<point x="65" y="390"/>
			<point x="65" y="236" type="curve" smooth="yes"/>
			<point x="65" y="92"/>
			<point x="169" y="-12"/>
		</contour>
	</outline>
</glyph>
<glyph name="r" format="2">
	<advance width="453" height="0"/>
	<unicode hex="0072"/>
	<anchor x="152" y="0" name="bottom"/>
	<anchor x="250" y="485" name="top"/>
	<outline>
		<contour>
			<point x="153" y="-12" type="curve" smooth="yes"/>
			<point x="181" y="-12"/>
			<point x="189" y="4"/>
			<point x="193" y="64" type="curve" smooth="yes"/>
			<point x="207" y="266"/>
			<point x="245" y="412"/>
			<point x="380" y="436" type="curve" smooth="yes"/>
			<point x="402" y="439"/>
			<point x="411" y="455"/>
			<point x="411" y="469" type="curve" smooth="yes"/>
			<point x="411" y="484"/>
			<point x="403" y="497"/>
			<point x="377" y="497" type="curve" smooth="yes"/>
			<point x="279" y="497"/>
			<point x="157" y="412"/>
			<point x="146" y="126" type="curve"/>
			<point x="169" y="84" type="line"/>
			<point x="181" y="410"/>
			<point x="153" y="490"/>
			<point x="115" y="490" type="curve" smooth="yes"/>
			<point x="94" y="490"/>
			<point x="83" y="473.862"/>
			<point x="83" y="451" type="curve" smooth="yes"/>
			<point x="83" y="433.778"/>
			<point x="85.403" y="420.231"/>
			<point x="93" y="389" type="curve" smooth="yes"/>
			<point x="110" y="320"/>
			<point x="115" y="175"/>
			<point x="115" y="47" type="curve" smooth="yes"/>
			<point x="115" y="15"/>
			<point x="133" y="-12"/>
		</contour>
	</outline>
</glyph>
<glyph name="s" format="2">
	<advance width="485" height="0"/>
	<unicode hex="0073"/>
	<anchor x="211" y="0" name="bottom"/>
	<anchor x="255" y="485" name="top"/>
	<outline>
		<contour>
			<point x="171" y="-10" type="curve" smooth="yes"/>
			<point x="300" y="-10"/>
			<point x="422" y="35"/>
			<point x="422" y="136" type="curve" smooth="yes"/>
			<point x="422" y="285"/>
			<point x="148" y="253"/>
			<point x="131" y="346" type="curve"/>
			<point x="162" y="403"/>
			<point x="230.077" y="432"/>
			<point x="315" y="432" type="curve" smooth="yes"/>
			<point x="334" y="432"/>
			<point x="346" y="430"/>
			<point x="352" y="430" type="curve" smooth="yes"/>
			<point x="372" y="430"/>
			<point x="382" y="440"/>
			<point x="382" y="455" type="curve" smooth="yes"/>
			<point x="382" y="472.182"/>
			<point x="355.999" y="496"/>
			<point x="313" y="497" type="curve" smooth="yes"/>
			<point x="196" y="500"/>
			<point x="72" y="426"/>
			<point x="72" y="344" type="curve" smooth="yes"/>
			<point x="72" y="199"/>
			<point x="337" y="231"/>
			<point x="360" y="133" type="curve"/>
			<point x="334.248" y="75.554"/>
			<point x="258" y="55"/>
			<point x="167" y="55" type="curve" smooth="yes"/>
			<point x="96" y="55"/>
			<point x="102" y="79"/>
			<point x="81" y="79" type="curve" smooth="yes"/>
			<point x="62" y="79"/>
			<point x="52" y="66"/>
			<point x="52" y="50" type="curve" smooth="yes"/>
			<point x="52" y="22"/>
			<point x="94" y="-10"/>
		</contour>
	</outline>
</glyph>
<glyph name="z" format="2">
	<advance width="603" height="0"/>
	<unicode hex="007A"/>
	<anchor x="307" y="0" name="bottom"/>
	<anchor x="290" y="485" name="top"/>
	<outline>
		<contour>
			<point x="213" y="-10" type="curve" smooth="yes"/>
			<point x="304" y="-10"/>
			<point x="421" y="0"/>
			<point x="498" y="0" type="curve" smooth="yes"/>
			<point x="520" y="0"/>
			<point x="534" y="14"/>
			<point x="534" y="30" type="curve" smooth="yes"/>
			<point x="534" y="52"/>
			<point x="503" y="68"/>
			<point x="456" y="68" type="curve" smooth="yes"/>
			<point x="381" y="68"/>
			<point x="293" y="56"/>
			<point x="223" y="56" type="curve" smooth="yes"/>
			<point x="175" y="56"/>
			<point x="149" y="61"/>
			<point x="133" y="94" type="curve"/>
			<point x="123" y="74" type="line"/>
			<point x="417" y="202"/>
			<point x="513" y="308"/>
			<point x="513" y="390" type="curve" smooth="yes"/>
			<point x="513" y="443"/>
			<point x="467" y="496"/>
			<point x="315" y="496" type="curve" smooth="yes"/>
			<point x="249" y="496"/>
			<point x="166" y="481"/>
			<point x="106" y="462" type="curve" smooth="yes"/>
			<point x="87" y="456"/>
			<point x="81" y="449"/>
			<point x="81" y="432" type="curve" smooth="yes"/>
			<point x="81" y="413"/>
			<point x="95" y="396"/>
			<point x="108" y="396" type="curve" smooth="yes"/>
			<point x="148" y="396"/>
			<point x="217" y="430"/>
			<point x="331" y="430" type="curve" smooth="yes"/>
			<point x="399" y="430"/>
			<point x="439" y="415"/>
			<point x="468" y="372" type="curve"/>
			<point x="451" y="419" type="line"/>
			<point x="461" y="332"/>
			<point x="332" y="237"/>
			<point x="117" y="144" type="curve" smooth="yes"/>
			<point x="84" y="130"/>
			<point x="74" y="106"/>
			<point x="74" y="82" type="curve" smooth="yes"/>
			<point x="74" y="39"/>
			<point x="106" y="-10"/>
		</contour>
	</outline>
</glyph>
<glyph name="section" format="2">
	<advance width="561" height="0"/>
	<unicode hex="00A7"/>
	<outline>
		<contour>
			<point x="302" y="12" type="line"/>
			<point x="422" y="25"/>
			<point x="501" y="74"/>
			<point x="501" y="147" type="curve" smooth="yes"/>
			<point x="501" y="295"/>
			<point x="141" y="316"/>
			<point x="141" y="418" type="curve" smooth="yes"/>
			<point x="141" y="510"/>
			<point x="258" y="606"/>
			<point x="464" y="641" type="curve" smooth="yes"/>
			<point x="498" y="646"/>
			<point x="509" y="658"/>
			<point x="509" y="677" type="curve" smooth="yes"/>
			<point x="509" y="698"/>
			<point x="496" y="710"/>
			<point x="470" y="710" type="curve" smooth="yes"/>
			<point x="328" y="710"/>
			<point x="72" y="591"/>
			<point x="72" y="415" type="curve" smooth="yes"/>
			<point x="72" y="255"/>
			<point x="413" y="253"/>
			<point x="432" y="136" type="curve"/>
			<point x="397" y="88"/>
			<point x="323" y="60"/>
			<point x="218" y="59" type="curve"/>
		</contour>
		<contour>
			<point x="192" y="-259" type="curve"/>
			<point x="332" y="-259"/>
			<point x="496" y="-214"/>
			<point x="496" y="-123" type="curve" smooth="yes"/>
			<point x="496" y="35"/>
			<point x="136" y="53"/>
			<point x="136" y="168" type="curve" smooth="yes"/>
			<point x="136" y="219.333"/>
			<point x="174.547" y="250.169"/>
			<point x="271" y="280" type="curve"/>
			<point x="209" y="314" type="line"/>
			<point x="118.241" y="285.279"/>
			<point x="67" y="234"/>
			<point x="67" y="165" type="curve" smooth="yes"/>
			<point x="67" y="-3"/>
			<point x="405.999" y="-4.993"/>
			<point x="425" y="-129" type="curve"/>
			<point x="383" y="-167"/>
			<point x="290" y="-191"/>
			<point x="184" y="-191" type="curve"/>
			<point x="108" y="-191"/>
			<point x="100" y="-181"/>
			<point x="72" y="-181" type="curve" smooth="yes"/>
			<point x="52" y="-181"/>
			<point x="43" y="-190"/>
			<point x="43" y="-206" type="curve" smooth="yes"/>
			<point x="43" y="-237"/>
			<point x="82" y="-259"/>
		</contour>
	</outline>
</glyph>
<glyph name="eth" format="2">
	<advance width="590" height="0"/>
	<unicode hex="00F0"/>
	<outline>
		<contour>
			<point x="289" y="-10" type="curve" smooth="yes"/>
			<point x="455" y="-10"/>
			<point x="525" y="82"/>
			<point x="525" y="239" type="curve" smooth="yes"/>
			<point x="525" y="387.867"/>
			<point x="410.872" y="572.103"/>
			<point x="218" y="728" type="curve" smooth="yes"/>
			<point x="188" y="751"/>
			<point x="174" y="760"/>
			<point x="160" y="760" type="curve" smooth="yes"/>
			<point x="144" y="760"/>
			<point x="131" y="751"/>
			<point x="131" y="733" type="curve" smooth="yes"/>
			<point x="131" y="717"/>
			<point x="136" y="709"/>
			<point x="174" y="680" type="curve" smooth="yes"/>
			<point x="347.999" y="542"/>
			<point x="458" y="373.978"/>
			<point x="458" y="239" type="curve" smooth="yes"/>
			<point x="458" y="101"/>
			<point x="387" y="55"/>
			<point x="289" y="55" type="curve" smooth="yes"/>
			<point x="209" y="55"/>
			<point x="133" y="97.74"/>
			<point x="133" y="211" type="curve" smooth="yes"/>
			<point x="133" y="279"/>
			<point x="167" y="355"/>
			<point x="270" y="355" type="curve" smooth="yes"/>
			<point x="394" y="355"/>
			<point x="412" y="289"/>
			<point x="448" y="289" type="curve" smooth="yes"/>
			<point x="465" y="289"/>
			<point x="470" y="297"/>
			<point x="470" y="315" type="curve" smooth="yes"/>
			<point x="470" y="364"/>
			<point x="396" y="420"/>
			<point x="266" y="420" type="curve" smooth="yes"/>
			<point x="131" y="420"/>
			<point x="65" y="324"/>
			<point x="65" y="200" type="curve" smooth="yes"/>
			<point x="65" y="95"/>
			<point x="141" y="-10"/>
		</contour>
		<contour>
			<point x="130" y="521" type="curve" smooth="yes"/>
			<point x="233.297" y="563.597"/>
			<point x="312.765" y="583.183"/>
			<point x="469" y="597" type="curve" smooth="yes"/>
			<point x="494" y="599"/>
			<point x="504" y="606"/>
			<point x="504" y="625" type="curve" smooth="yes"/>
			<point x="504" y="643"/>
			<point x="483" y="658"/>
			<point x="458" y="658" type="curve" smooth="yes"/>
			<point x="362.986" y="658"/>
			<point x="252.251" y="631.534"/>
			<point x="142" y="593" type="curve" smooth="yes"/>
			<point x="89" y="574"/>
			<point x="81" y="560"/>
			<point x="81" y="539" type="curve" smooth="yes"/>
			<point x="81" y="517"/>
			<point x="102" y="510"/>
		</contour>
	</outline>
</glyph>
<glyph name="divide" format="2">
	<advance width="700" height="0"/>
	<unicode hex="00F7"/>
	<outline>
		<contour>
			<point x="134" y="264" type="curve" smooth="yes"/>
			<point x="257" y="292"/>
			<point x="368" y="308"/>
			<point x="561" y="317" type="curve" smooth="yes"/>
			<point x="586" y="318"/>
			<point x="596" y="326"/>
			<point x="596" y="345" type="curve" smooth="yes"/>
			<point x="596" y="364"/>
			<point x="575" y="380"/>
			<point x="549" y="380" type="curve" smooth="yes"/>
			<point x="429" y="380"/>
			<point x="277" y="360"/>
			<point x="150" y="338" type="curve" smooth="yes"/>
			<point x="98" y="330"/>
			<point x="90" y="315"/>
			<point x="89" y="291" type="curve" smooth="yes"/>
			<point x="89" y="272"/>
			<point x="105" y="256"/>
		</contour>
		<contour>
			<point x="344" y="45" type="curve" smooth="yes"/>
			<point x="378" y="45"/>
			<point x="391" y="71"/>
			<point x="391" y="96" type="curve" smooth="yes"/>
			<point x="391" y="131"/>
			<point x="362" y="174"/>
			<point x="314" y="174" type="curve" smooth="yes"/>
			<point x="288" y="174"/>
			<point x="266" y="154"/>
			<point x="266" y="126" type="curve" smooth="yes"/>
			<point x="266" y="85"/>
			<point x="302" y="45"/>
		</contour>
		<contour>
			<point x="361" y="462" type="curve" smooth="yes"/>
			<point x="395" y="462"/>
			<point x="408" y="488"/>
			<point x="408" y="513" type="curve" smooth="yes"/>
			<point x="408" y="548"/>
			<point x="379" y="591"/>
			<point x="331" y="591" type="curve" smooth="yes"/>
			<point x="305" y="591"/>
			<point x="283" y="571"/>
			<point x="283" y="543" type="curve" smooth="yes"/>
			<point x="283" y="502"/>
			<point x="319" y="462"/>
		</contour>
	</outline>
</glyph>
<glyph name="dcroat" format="2">
	<advance width="603" height="0"/>
	<unicode hex="0111"/>
	<anchor x="304" y="0" name="bottom"/>
	<anchor x="484" y="750" name="top"/>
	<outline>
		<contour>
			<point x="223" y="571" type="curve" smooth="yes"/>
			<point x="269" y="571"/>
			<point x="346" y="582"/>
			<point x="554" y="582" type="curve" smooth="yes"/>
			<point x="581" y="582"/>
			<point x="596" y="591"/>
			<point x="596" y="608" type="curve" smooth="yes"/>
			<point x="596" y="628"/>
			<point x="581" y="645"/>
			<point x="541" y="645" type="curve" smooth="yes"/>
			<point x="429" y="645"/>
			<point x="332" y="642"/>
			<point x="215" y="632" type="curve" smooth="yes"/>
			<point x="190" y="629"/>
			<point x="177" y="620"/>
			<point x="177" y="602" type="curve" smooth="yes"/>
			<point x="177" y="584"/>
			<point x="190" y="571"/>
		</contour>
		<component base="d"/>
	</outline>
</glyph>
<glyph name="Lslash" format="2">
	<advance width="556" height="0"/>
	<unicode hex="0141"/>
	<anchor x="289" y="0" name="bottom"/>
	<anchor x="157" y="700" name="top"/>
	<outline>
		<contour>
			<point x="27" y="231" type="curve" smooth="yes"/>
			<point x="38" y="231"/>
			<point x="54" y="236"/>
			<point x="71" y="248" type="curve" smooth="yes"/>
			<point x="111" y="275"/>
			<point x="161" y="310"/>
			<point x="340" y="436" type="curve" smooth="yes"/>
			<point x="380" y="465"/>
			<point x="355" y="506"/>
			<point x="330" y="506" type="curve" smooth="yes"/>
			<point x="316" y="506"/>
			<point x="306" y="501"/>
			<point x="276" y="479" type="curve" smooth="yes"/>
			<point x="165" y="396"/>
			<point x="111" y="367"/>
			<point x="14" y="293" type="curve" smooth="yes"/>
			<point x="-20" y="266"/>
			<point x="-2" y="231"/>
		</contour>
		<component base="L"/>
	</outline>
</glyph>
<glyph name="lslash" format="2">
	<advance width="353" height="0"/>
	<unicode hex="0142"/>
	<anchor x="237" y="0" name="bottom"/>
	<anchor x="172" y="750" name="top"/>
	<outline>
		<contour>
			<point x="59" y="309" type="curve" smooth="yes"/>
			<point x="71" y="309"/>
			<point x="87" y="313"/>
			<point x="105" y="323" type="curve" smooth="yes"/>
			<point x="133" y="338"/>
			<point x="176" y="354"/>
			<point x="298" y="426" type="curve" smooth="yes"/>
			<point x="338" y="450"/>
			<point x="329" y="493"/>
			<point x="300" y="493" type="curve" smooth="yes"/>
			<point x="285" y="493"/>
			<point x="275" y="489"/>
			<point x="243" y="471" type="curve" smooth="yes"/>
			<point x="167" y="427"/>
			<point x="118" y="410"/>
			<point x="51" y="371" type="curve" smooth="yes"/>
			<point x="14" y="348"/>
			<point x="29" y="309"/>
		</contour>
		<component base="l" xOffset="35"/>
	</outline>
</glyph>
<glyph name="tcaron" format="2">
	<advance width="443" height="0"/>
	<unicode hex="0165"/>
	<anchor x="243" y="0" name="bottom"/>
	<anchor x="150" y="700" name="top"/>
	<outline>
		<contour>
			<point x="298" y="578" type="curve" smooth="yes"/>
			<point x="316" y="578"/>
			<point x="333" y="585"/>
			<point x="350" y="606" type="curve" smooth="yes"/>
			<point x="383" y="647"/>
			<point x="401" y="707"/>
			<point x="401" y="745" type="curve" smooth="yes"/>
			<point x="401" y="792"/>
			<point x="381" y="809"/>
			<point x="349" y="809" type="curve" smooth="yes"/>
			<point x="323" y="809"/>
			<point x="312" y="793"/>
			<point x="312" y="758" type="curve" smooth="yes"/>
			<point x="312" y="719"/>
			<point x="306" y="690"/>
			<point x="289" y="658" type="curve" smooth="yes"/>
			<point x="272" y="625"/>
			<point x="269" y="615"/>
			<point x="269" y="602" type="curve" smooth="yes"/>
			<point x="269" y="587"/>
			<point x="279" y="578"/>
		</contour>
		<component base="t"/>
	</outline>
</glyph>
<glyph name="Schwa" format="2">
	<advance width="655" height="0"/>
	<unicode hex="018F"/>
	<outline>
		<contour>
			<point x="313" y="-10" type="curve" smooth="yes"/>
			<point x="502" y="-10"/>
			<point x="621" y="147"/>
			<point x="621" y="305" type="curve" smooth="yes"/>
			<point x="621" y="544"/>
			<point x="515" y="710"/>
			<point x="337" y="710" type="curve" smooth="yes"/>
			<point x="226" y="710"/>
			<point x="116" y="634"/>
			<point x="116" y="586" type="curve" smooth="yes"/>
			<point x="116" y="566"/>
			<point x="120" y="557"/>
			<point x="135" y="557" type="curve" smooth="yes"/>
			<point x="167.419" y="557"/>
			<point x="206" y="645"/>
			<point x="340" y="645" type="curve" smooth="yes"/>
			<point x="474" y="645"/>
			<point x="554" y="505"/>
			<point x="554" y="314" type="curve" smooth="yes"/>
			<point x="554" y="174"/>
			<point x="455" y="56"/>
			<point x="316" y="56" type="curve" smooth="yes"/>
			<point x="194" y="56"/>
			<point x="145" y="100.474"/>
			<point x="145" y="186" type="curve" smooth="yes"/>
			<point x="145" y="274.536"/>
			<point x="220" y="334"/>
			<point x="336" y="334" type="curve" smooth="yes"/>
			<point x="468.766" y="334"/>
			<point x="519.66" y="266"/>
			<point x="544" y="266" type="curve" smooth="yes"/>
			<point x="563" y="266"/>
			<point x="569" y="273"/>
			<point x="569" y="288" type="curve" smooth="yes"/>
			<point x="569" y="328"/>
			<point x="476" y="396"/>
			<point x="332" y="396" type="curve" smooth="yes"/>
			<point x="187" y="396"/>
			<point x="78" y="318.447"/>
			<point x="78" y="190" type="curve" smooth="yes"/>
			<point x="78" y="55.753"/>
			<point x="170" y="-10"/>
		</contour>
	</outline>
</glyph>
<glyph name="ohorn" format="2">
	<advance width="605" height="0"/>
	<unicode hex="01A1"/>
	<anchor x="310" y="0" name="bottom"/>
	<anchor x="437" y="37" name="ogonek"/>
	<anchor x="321" y="485" name="top"/>
	<outline>
		<contour>
			<point x="432" y="414" type="curve" smooth="yes"/>
			<point x="531" y="414"/>
			<point x="582" y="457"/>
			<point x="582" y="523" type="curve" smooth="yes"/>
			<point x="582" y="590"/>
			<point x="553" y="628"/>
			<point x="522" y="628" type="curve" smooth="yes"/>
			<point x="504" y="628"/>
			<point x="494" y="616"/>
			<point x="494" y="598" type="curve" smooth="yes"/>
			<point x="494" y="573"/>
			<point x="517" y="559"/>
			<point x="517" y="528" type="curve" smooth="yes"/>
			<point x="517" y="493.382"/>
			<point x="481" y="472"/>
			<point x="409" y="472" type="curve" smooth="yes"/>
			<point x="390.771" y="472"/>
			<point x="380" y="462"/>
			<point x="380" y="452" type="curve" smooth="yes"/>
			<point x="380" y="432"/>
			<point x="397.829" y="414"/>
		</contour>
		<component base="o"/>
	</outline>
</glyph>
<glyph name="jdotless" format="2">
	<advance width="241" height="0"/>
	<unicode hex="0237"/>
	<anchor x="111" y="485" name="top"/>
	<outline>
		<contour>
			<point x="60" y="-260" type="curve" smooth="yes"/>
			<point x="138" y="-260"/>
			<point x="189" y="-191.818"/>
			<point x="189" y="-60" type="curve" smooth="yes"/>
			<point x="189" y="124.344"/>
			<point x="176" y="266"/>
			<point x="146" y="444" type="curve" smooth="yes"/>
			<point x="138.996" y="488.027"/>
			<point x="123.45" y="496"/>
			<point x="105" y="496" type="curve" smooth="yes"/>
			<point x="90.469" y="496"/>
			<point x="74" y="485"/>
			<point x="74" y="457" type="curve" smooth="yes"/>
			<point x="74" y="393"/>
			<point x="122" y="260"/>
			<point x="122" y="-72" type="curve" smooth="yes"/>
			<point x="122" y="-154"/>
			<point x="97.356" y="-195"/>
			<point x="55" y="-195" type="curve" smooth="yes"/>
			<point x="24" y="-195"/>
			<point x="10" y="-172"/>
			<point x="-15" y="-172" type="curve" smooth="yes"/>
			<point x="-33" y="-172"/>
			<point x="-45" y="-181.935"/>
			<point x="-45" y="-200" type="curve" smooth="yes"/>
			<point x="-45" y="-230.526"/>
			<point x="-7" y="-260"/>
		</contour>
	</outline>
</glyph>
<glyph name="dotaccentcmb" format="2">
	<advance width="0" height="0"/>
	<unicode hex="0307"/>
	<anchor x="0" y="484" name="_top"/>
	<anchor x="0" y="650" name="top"/>
	<outline>
		<contour>
			<point x="10" y="587" type="curve" smooth="yes"/>
			<point x="49" y="587"/>
			<point x="64" y="614"/>
			<point x="64" y="635" type="curve" smooth="yes"/>
			<point x="64" y="673"/>
			<point x="37" y="711"/>
			<point x="-9" y="711" type="curve" smooth="yes"/>
			<point x="-42" y="711"/>
			<point x="-67" y="687"/>
			<point x="-67" y="656" type="curve" smooth="yes"/>
			<point x="-67" y="617"/>
			<point x="-33" y="587"/>
		</contour>
	</outline>
</glyph>
<glyph name="dieresiscomb" format="2">
	<advance width="0" height="0"/>
	<unicode hex="0308"/>
	<anchor x="0" y="485" name="_top"/>
	<anchor x="0" y="650" name="top"/>
	<outline>
		<contour>
			<point x="-114" y="578" type="curve" smooth="yes"/>
			<point x="-69" y="578"/>
			<point x="-50" y="597"/>
			<point x="-50" y="629" type="curve" smooth="yes"/>
			<point x="-50" y="666"/>
			<point x="-75" y="708"/>
			<point x="-127" y="708" type="curve" smooth="yes"/>
			<point x="-159" y="708"/>
			<point x="-181" y="683"/>
			<point x="-181" y="652" type="curve" smooth="yes"/>
			<point x="-181" y="611"/>
			<point x="-154" y="578"/>
		</contour>
		<contour>
			<point x="117" y="588" type="curve" smooth="yes"/>
			<point x="163" y="588"/>
			<point x="181" y="615"/>
			<point x="181" y="636" type="curve" smooth="yes"/>
			<point x="181" y="670"/>
			<point x="153" y="712"/>
			<point x="108" y="712" type="curve" smooth="yes"/>
			<point x="75" y="712"/>
			<point x="50" y="688"/>
			<point x="50" y="657" type="curve" smooth="yes"/>
			<point x="50" y="622"/>
			<point x="81" y="588"/>
		</contour>
	</outline>
</glyph>
<glyph name="ogonekcmb" format="2">
	<advance width="0" height="0"/>
	<unicode hex="0328"/>
	<guideline x="26" y="-177" angle="48.145" name=" [#4uLH7EeGYo]"/>
	<anchor x="57" y="0" name="_ogonek"/>
	<outline>
		<contour>
			<point x="43" y="-256" type="curve" smooth="yes"/>
			<point x="87" y="-256"/>
			<point x="112" y="-246"/>
			<point x="112" y="-220" type="curve" smooth="yes"/>
			<point x="112" y="-202"/>
			<point x="97.741" y="-192"/>
			<point x="57" y="-192" type="curve" smooth="yes"/>
			<point x="-16.485" y="-192"/>
			<point x="-40" y="-169.312"/>
			<point x="-40" y="-126" type="curve" smooth="yes"/>
			<point x="-40" y="-76.833"/>
			<point x="-11.772" y="-30.467"/>
			<point x="40" y="-8" type="curve" smooth="yes"/>
			<point x="61.212" y="0.838"/>
			<point x="65" y="6"/>
			<point x="65" y="16" type="curve" smooth="yes"/>
			<point x="65" y="27"/>
			<point x="57" y="34"/>
			<point x="44" y="34" type="curve" smooth="yes"/>
			<point x="-39" y="34"/>
			<point x="-107" y="-47"/>
			<point x="-107" y="-136" type="curve" smooth="yes"/>
			<point x="-107" y="-214"/>
			<point x="-61" y="-256"/>
		</contour>
	</outline>
</glyph>
<glyph name="Eukrcyr" format="2">
	<advance width="618" height="0"/>
	<unicode hex="0404"/>
	<guideline x="101.44" y="378.36" angle="90" name=" [#b1V3DjCVlD]"/>
	<outline>
		<contour>
			<point x="336" y="-10" type="curve" smooth="yes"/>
			<point x="495" y="-10"/>
			<point x="568" y="87"/>
			<point x="568" y="136" type="curve" smooth="yes"/>
			<point x="568" y="154"/>
			<point x="561" y="169"/>
			<point x="548" y="169" type="curve" smooth="yes"/>
			<point x="515" y="169"/>
			<point x="495" y="55"/>
			<point x="335" y="55" type="curve" smooth="yes"/>
			<point x="214" y="55"/>
			<point x="137" y="142"/>
			<point x="137" y="298" type="curve" smooth="yes"/>
			<point x="137" y="489"/>
			<point x="246" y="646"/>
			<point x="404" y="646" type="curve" smooth="yes"/>
			<point x="465" y="646"/>
			<point x="473" y="618"/>
			<point x="473" y="590" type="curve" smooth="yes"/>
			<point x="473" y="558"/>
			<point x="466" y="530"/>
			<point x="496" y="530" type="curve" smooth="yes"/>
			<point x="526" y="530"/>
			<point x="541" y="562"/>
			<point x="541" y="595" type="curve" smooth="yes"/>
			<point x="541" y="665"/>
			<point x="504" y="711"/>
			<point x="406" y="711" type="curve" smooth="yes"/>
			<point x="207" y="711"/>
			<point x="70" y="524"/>
			<point x="70" y="299" type="curve" smooth="yes"/>
			<point x="70" y="125"/>
			<point x="143" y="-10"/>
		</contour>
		<contour>
			<point x="93" y="296" type="line"/>
			<point x="141" y="296"/>
			<point x="202" y="325"/>
			<point x="310" y="325" type="curve" smooth="yes"/>
			<point x="347" y="325"/>
			<point x="384" y="317"/>
			<point x="415" y="317" type="curve" smooth="yes"/>
			<point x="449" y="317"/>
			<point x="463" y="325"/>
			<point x="463" y="341" type="curve" smooth="yes"/>
			<point x="463" y="367"/>
			<point x="403" y="382"/>
			<point x="325" y="382" type="curve" smooth="yes"/>
			<point x="240" y="382"/>
			<point x="151" y="368"/>
			<point x="91" y="349" type="curve"/>
		</contour>
	</outline>
</glyph>
<glyph name="Ljecyr" format="2">
	<advance width="1019" height="0"/>
	<unicode hex="0409"/>
	<guideline x="94.71" y="657.69" angle="0" name=" [#b3w6f6co8h]"/>
	<guideline x="94.71" y="657.69" angle="0" name=" [#jdn5JLBvkG]"/>
	<guideline x="94.71" y="657.69" angle="0" name=" [#mF84iu6Knu]"/>
	<outline>
		<contour>
			<point x="660" y="-10" type="curve" smooth="yes"/>
			<point x="808" y="-10"/>
			<point x="953" y="169"/>
			<point x="953" y="300" type="curve" smooth="yes"/>
			<point x="953" y="402"/>
			<point x="881" y="448"/>
			<point x="789" y="448" type="curve" smooth="yes"/>
			<point x="680" y="448"/>
			<point x="581" y="413"/>
			<point x="472" y="347" type="curve"/>
			<point x="495" y="291" type="line"/>
			<point x="637" y="362"/>
			<point x="710" y="378"/>
			<point x="777" y="378" type="curve" smooth="yes"/>
			<point x="847" y="378"/>
			<point x="877" y="351"/>
			<point x="877" y="290" type="curve" smooth="yes"/>
			<point x="877" y="194"/>
			<point x="767" y="59"/>
			<point x="661" y="59" type="curve" smooth="yes"/>
			<point x="560" y="59"/>
			<point x="538" y="154"/>
			<point x="499" y="308" type="curve" smooth="yes"/>
			<point x="481" y="386"/>
			<point x="436" y="575"/>
			<point x="425" y="618" type="curve" smooth="yes"/>
			<point x="409" y="676"/>
			<point x="390" y="712"/>
			<point x="362" y="712" type="curve" smooth="yes"/>
			<point x="317" y="712"/>
			<point x="288" y="675"/>
			<point x="262" y="610" type="curve" smooth="yes"/>
			<point x="238" y="550"/>
			<point x="197" y="437"/>
			<point x="138" y="298" type="curve" smooth="yes"/>
			<point x="67" y="113"/>
			<point x="26" y="46"/>
			<point x="26" y="25" type="curve" smooth="yes"/>
			<point x="26" y="7"/>
			<point x="37" y="-9"/>
			<point x="55" y="-9" type="curve" smooth="yes"/>
			<point x="72" y="-9"/>
			<point x="84" y="-2"/>
			<point x="96" y="19" type="curve" smooth="yes"/>
			<point x="120" y="59"/>
			<point x="163" y="158"/>
			<point x="202" y="264" type="curve" smooth="yes"/>
			<point x="250" y="386"/>
			<point x="314" y="573"/>
			<point x="353" y="647" type="curve"/>
			<point x="340" y="658" type="line"/>
			<point x="362" y="592"/>
			<point x="411" y="361"/>
			<point x="430" y="287" type="curve" smooth="yes"/>
			<point x="470" y="129"/>
			<point x="498" y="-10"/>
		</contour>
	</outline>
</glyph>
<glyph name="Dzhecyr" format="2">
	<advance width="675" height="0"/>
	<unicode hex="040F"/>
	<outline>
		<contour>
			<point x="261" y="-9" type="curve" smooth="yes"/>
			<point x="342" y="-9"/>
			<point x="436" y="14"/>
			<point x="484" y="28" type="curve" smooth="yes"/>
			<point x="534" y="45"/>
			<point x="561" y="79"/>
			<point x="569" y="144" type="curve" smooth="yes"/>
			<point x="579" y="224"/>
			<point x="585" y="291"/>
			<point x="585" y="380" type="curve" smooth="yes"/>
			<point x="585" y="492"/>
			<point x="572" y="615"/>
			<point x="564" y="647" type="curve" smooth="yes"/>
			<point x="556" y="680"/>
			<point x="544" y="712"/>
			<point x="511" y="712" type="curve" smooth="yes"/>
			<point x="494" y="712"/>
			<point x="492" y="693"/>
			<point x="492" y="673" type="curve" smooth="yes"/>
			<point x="492" y="646"/>
			<point x="513" y="506"/>
			<point x="513" y="374" type="curve" smooth="yes"/>
			<point x="513" y="256"/>
			<point x="505" y="164"/>
			<point x="489" y="75" type="curve"/>
			<point x="511" y="111" type="line"/>
			<point x="458" y="87"/>
			<point x="360" y="54"/>
			<point x="276" y="54" type="curve" smooth="yes"/>
			<point x="176" y="54"/>
			<point x="158" y="106"/>
			<point x="158" y="183" type="curve" smooth="yes"/>
			<point x="158" y="378"/>
			<point x="182" y="507"/>
			<point x="182" y="623" type="curve" smooth="yes"/>
			<point x="182" y="683"/>
			<point x="161" y="715"/>
			<point x="132" y="715" type="curve" smooth="yes"/>
			<point x="107" y="715"/>
			<point x="110" y="676"/>
			<point x="110" y="630" type="curve" smooth="yes"/>
			<point x="110" y="473"/>
			<point x="90" y="357"/>
			<point x="90" y="181" type="curve" smooth="yes"/>
			<point x="90" y="75"/>
			<point x="129" y="-9"/>
		</contour>
		<contour>
			<point x="353" y="-197" type="curve" smooth="yes"/>
			<point x="368" y="-197"/>
			<point x="378" y="-180"/>
			<point x="378" y="-163" type="curve" smooth="yes"/>
			<point x="378" y="-135"/>
			<point x="373" y="-67"/>
			<point x="373" y="2" type="curve" smooth="yes"/>
			<point x="373" y="31"/>
			<point x="362" y="44"/>
			<point x="347" y="44" type="curve" smooth="yes"/>
			<point x="331" y="44"/>
			<point x="310" y="32"/>
			<point x="310" y="13" type="curve" smooth="yes"/>
			<point x="310" y="-17"/>
			<point x="302" y="-92"/>
			<point x="302" y="-127" type="curve" smooth="yes"/>
			<point x="302" y="-160"/>
			<point x="319" y="-197"/>
		</contour>
	</outline>
</glyph>
<glyph name="Zhecyr" format="2">
	<advance width="898" height="0"/>
	<unicode hex="0416"/>
	<anchor x="436" y="700" name="top"/>
	<outline>
		<contour>
			<point x="832" y="-12" type="curve" smooth="yes"/>
			<point x="851" y="-12"/>
			<point x="865" y="5"/>
			<point x="865" y="21" type="curve" smooth="yes"/>
			<point x="865" y="34"/>
			<point x="852" y="43"/>
			<point x="839" y="51" type="curve" smooth="yes"/>
			<point x="709" y="131"/>
			<point x="538" y="291"/>
			<point x="538" y="362" type="curve" smooth="yes"/>
			<point x="538" y="420"/>
			<point x="697" y="561"/>
			<point x="846" y="647" type="curve" smooth="yes"/>
			<point x="860" y="655"/>
			<point x="871" y="666"/>
			<point x="871" y="677" type="curve" smooth="yes"/>
			<point x="871" y="696"/>
			<point x="854" y="711"/>
			<point x="836" y="711" type="curve" smooth="yes"/>
			<point x="760" y="711"/>
			<point x="470" y="436"/>
			<point x="470" y="368" type="curve" smooth="yes"/>
			<point x="470" y="270"/>
			<point x="739" y="-12"/>
		</contour>
		<contour>
			<point x="63" y="-13" type="curve" smooth="yes"/>
			<point x="117" y="-13"/>
			<point x="403" y="290"/>
			<point x="403" y="369" type="curve" smooth="yes"/>
			<point x="403" y="445"/>
			<point x="160" y="704"/>
			<point x="102" y="704" type="curve" smooth="yes"/>
			<point x="79" y="704"/>
			<point x="67" y="690"/>
			<point x="67" y="674" type="curve" smooth="yes"/>
			<point x="67" y="662"/>
			<point x="76" y="647"/>
			<point x="95" y="634" type="curve" smooth="yes"/>
			<point x="190" y="570"/>
			<point x="337" y="416"/>
			<point x="337" y="373" type="curve" smooth="yes"/>
			<point x="337" y="313"/>
			<point x="179" y="154"/>
			<point x="51" y="50" type="curve" smooth="yes"/>
			<point x="40" y="41"/>
			<point x="32" y="29"/>
			<point x="32" y="19" type="curve" smooth="yes"/>
			<point x="32" y="2"/>
			<point x="41" y="-13"/>
		</contour>
		<contour>
			<point x="439" y="-13" type="curve" smooth="yes"/>
			<point x="457" y="-13"/>
			<point x="472" y="6"/>
			<point x="472" y="29" type="curve" smooth="yes"/>
			<point x="472" y="49"/>
			<point x="466" y="113"/>
			<point x="466" y="175" type="curve" smooth="yes"/>
			<point x="466" y="241"/>
			<point x="470" y="322"/>
			<point x="474" y="417" type="curve" smooth="yes"/>
			<point x="481" y="609"/>
			<point x="468" y="660"/>
			<point x="465" y="678" type="curve" smooth="yes"/>
			<point x="462" y="698"/>
			<point x="450" y="716"/>
			<point x="421" y="716" type="curve" smooth="yes"/>
			<point x="403" y="716"/>
			<point x="394" y="699"/>
			<point x="394" y="680" type="curve" smooth="yes"/>
			<point x="394" y="642"/>
			<point x="410" y="599"/>
			<point x="403" y="419" type="curve" smooth="yes"/>
			<point x="399" y="328"/>
			<point x="396" y="157"/>
			<point x="396" y="68" type="curve" smooth="yes"/>
			<point x="396" y="13"/>
			<point x="413" y="-13"/>
		</contour>
	</outline>
</glyph>
<glyph name="Ishortcyr" format="2">
	<advance width="703" height="0"/>
	<unicode hex="0419"/>
	<anchor x="353" y="700" name="top"/>
	<outline>
		<contour>
			<point x="351" y="765" type="curve" smooth="yes"/>
			<point x="447" y="765"/>
			<point x="522" y="826.34"/>
			<point x="522" y="858" type="curve" smooth="yes"/>
			<point x="522" y="872"/>
			<point x="513" y="886"/>
			<point x="495" y="886" type="curve" smooth="yes"/>
			<point x="476" y="886"/>
			<point x="458" y="870"/>
			<point x="437" y="855" type="curve" smooth="yes"/>
			<point x="409" y="835"/>
			<point x="387" y="825"/>
			<point x="356" y="825" type="curve" smooth="yes"/>
			<point x="324" y="825"/>
			<point x="300.521" y="850"/>
			<point x="281" y="875" type="curve" smooth="yes"/>
			<point x="265" y="896"/>
			<point x="254" y="918"/>
			<point x="228" y="918" type="curve" smooth="yes"/>
			<point x="206" y="918"/>
			<point x="194" y="902"/>
			<point x="194" y="883" type="curve" smooth="yes"/>
			<point x="194" y="846.193"/>
			<point x="252" y="765"/>
		</contour>
		<component base="Icyr"/>
	</outline>
</glyph>
<glyph name="Pecyr" format="2">
	<advance width="651" height="0"/>
	<unicode hex="041F"/>
	<outline>
		<contour>
			<point x="548" y="-12" type="curve" smooth="yes"/>
			<point x="570" y="-12"/>
			<point x="579" y="6"/>
			<point x="579" y="34" type="curve" smooth="yes"/>
			<point x="579" y="59"/>
			<point x="565" y="145"/>
			<point x="565" y="264" type="curve" smooth="yes"/>
			<point x="565" y="344"/>
			<point x="576" y="507"/>
			<point x="576" y="619" type="curve" smooth="yes"/>
			<point x="576" y="675"/>
			<point x="556" y="685"/>
			<point x="491" y="692" type="curve" smooth="yes"/>
			<point x="445" y="697"/>
			<point x="264" y="707"/>
			<point x="117" y="707" type="curve" smooth="yes"/>
			<point x="46" y="707"/>
			<point x="5" y="691"/>
			<point x="5" y="664" type="curve" smooth="yes"/>
			<point x="5" y="645"/>
			<point x="40" y="640"/>
			<point x="63" y="640" type="curve" smooth="yes"/>
			<point x="90" y="640"/>
			<point x="116" y="644"/>
			<point x="157" y="644" type="curve" smooth="yes"/>
			<point x="319" y="644"/>
			<point x="476" y="634"/>
			<point x="528" y="623" type="curve"/>
			<point x="507" y="651" type="line"/>
			<point x="507" y="539"/>
			<point x="496" y="335"/>
			<point x="496" y="255" type="curve" smooth="yes"/>
			<point x="496" y="100"/>
			<point x="513" y="-12"/>
		</contour>
		<contour>
			<point x="145" y="-11" type="curve" smooth="yes"/>
			<point x="160" y="-11"/>
			<point x="172" y="1"/>
			<point x="172" y="37" type="curve" smooth="yes"/>
			<point x="172" y="78"/>
			<point x="178" y="285"/>
			<point x="178" y="385" type="curve" smooth="yes"/>
			<point x="178" y="464"/>
			<point x="173" y="585"/>
			<point x="159" y="662" type="curve"/>
			<point x="89" y="648" type="line"/>
			<point x="111" y="566"/>
			<point x="110" y="436"/>
			<point x="110" y="359" type="curve" smooth="yes"/>
			<point x="110" y="257"/>
			<point x="101" y="164"/>
			<point x="101" y="86" type="curve" smooth="yes"/>
			<point x="101" y="27"/>
			<point x="119" y="-11"/>
		</contour>
	</outline>
</glyph>
<glyph name="Efcyr" format="2">
	<advance width="878" height="0"/>
	<unicode hex="0424"/>
	<outline>
		<contour>
			<point x="423" y="119" type="curve" smooth="yes"/>
			<point x="651" y="119"/>
			<point x="843" y="257"/>
			<point x="843" y="426" type="curve" smooth="yes"/>
			<point x="843" y="561"/>
			<point x="733" y="662"/>
			<point x="478" y="655" type="curve"/>
			<point x="477" y="596" type="line"/>
			<point x="676" y="600"/>
			<point x="773" y="535"/>
			<point x="773" y="426" type="curve" smooth="yes"/>
			<point x="773" y="278"/>
			<point x="613" y="182"/>
			<point x="423" y="182" type="curve" smooth="yes"/>
			<point x="218" y="182"/>
			<point x="113" y="246"/>
			<point x="113" y="378" type="curve" smooth="yes"/>
			<point x="113" y="535"/>
			<point x="258" y="592"/>
			<point x="455" y="601" type="curve"/>
			<point x="455" y="664" type="line"/>
			<point x="253" y="664"/>
			<point x="43" y="571"/>
			<point x="43" y="378" type="curve" smooth="yes"/>
			<point x="43" y="220"/>
			<point x="166" y="119"/>
		</contour>
		<contour>
			<point x="465" y="-15" type="curve" smooth="yes"/>
			<point x="480" y="-15"/>
			<point x="489" y="-6"/>
			<point x="489" y="14" type="curve" smooth="yes"/>
			<point x="489" y="138"/>
			<point x="499" y="315"/>
			<point x="499" y="423" type="curve" smooth="yes"/>
			<point x="499" y="504"/>
			<point x="500" y="608"/>
			<point x="500" y="708" type="curve" smooth="yes"/>
			<point x="500" y="747"/>
			<point x="481" y="778"/>
			<point x="458" y="778" type="curve" smooth="yes"/>
			<point x="439" y="778"/>
			<point x="433" y="764"/>
			<point x="433" y="737" type="curve" smooth="yes"/>
			<point x="433" y="626"/>
			<point x="432" y="511"/>
			<point x="432" y="428" type="curve" smooth="yes"/>
			<point x="432" y="324"/>
			<point x="422" y="139"/>
			<point x="422" y="62" type="curve" smooth="yes"/>
			<point x="422" y="15"/>
			<point x="439" y="-15"/>
		</contour>
	</outline>
</glyph>
<glyph name="Ylongcyr" format="2">
	<advance width="827" height="0"/>
	<unicode hex="042B"/>
	<anchor x="421" y="700" name="top"/>
	<outline>
		<contour>
			<point x="257" y="-11" type="curve" smooth="yes"/>
			<point x="406" y="-11"/>
			<point x="558" y="163"/>
			<point x="558" y="312" type="curve" smooth="yes"/>
			<point x="558" y="387"/>
			<point x="503" y="438"/>
			<point x="406" y="438" type="curve" smooth="yes"/>
			<point x="302" y="438"/>
			<point x="198" y="404"/>
			<point x="109" y="350" type="curve"/>
			<point x="132" y="300" type="line"/>
			<point x="206" y="340"/>
			<point x="290" y="369"/>
			<point x="371" y="369" type="curve" smooth="yes"/>
			<point x="435" y="369"/>
			<point x="467" y="355"/>
			<point x="502" y="329" type="curve"/>
			<point x="480" y="378" type="line"/>
			<point x="486" y="356"/>
			<point x="488" y="348"/>
			<point x="488" y="324" type="curve" smooth="yes"/>
			<point x="488" y="169"/>
			<point x="369" y="58"/>
			<point x="261" y="58" type="curve" smooth="yes"/>
			<point x="176" y="58"/>
			<point x="158" y="119"/>
			<point x="158" y="253" type="curve" smooth="yes"/>
			<point x="158" y="368"/>
			<point x="184" y="509"/>
			<point x="184" y="598" type="curve" smooth="yes"/>
			<point x="184" y="659"/>
			<point x="165" y="709"/>
			<point x="128" y="709" type="curve" smooth="yes"/>
			<point x="111" y="709"/>
			<point x="106" y="692"/>
			<point x="106" y="667" type="curve" smooth="yes"/>
			<point x="106" y="635"/>
			<point x="112" y="603"/>
			<point x="112" y="559" type="curve" smooth="yes"/>
			<point x="112" y="472"/>
			<point x="85" y="342"/>
			<point x="85" y="250" type="curve" smooth="yes"/>
			<point x="85" y="124"/>
			<point x="105" y="-11"/>
		</contour>
		<contour>
			<point x="727" y="-11" type="curve" smooth="yes"/>
			<point x="739" y="-11"/>
			<point x="746" y="0"/>
			<point x="746" y="20" type="curve" smooth="yes"/>
			<point x="746" y="63"/>
			<point x="729" y="201"/>
			<point x="729" y="357" type="curve" smooth="yes"/>
			<point x="729" y="476"/>
			<point x="738" y="586"/>
			<point x="738" y="621" type="curve" smooth="yes"/>
			<point x="738" y="667"/>
			<point x="728" y="709"/>
			<point x="703" y="709" type="curve" smooth="yes"/>
			<point x="682" y="709"/>
			<point x="676" y="689"/>
			<point x="671" y="635" type="curve" smooth="yes"/>
			<point x="664" y="567"/>
			<point x="662" y="446"/>
			<point x="662" y="357" type="curve" smooth="yes"/>
			<point x="662" y="243"/>
			<point x="668" y="144"/>
			<point x="676" y="84" type="curve" smooth="yes"/>
			<point x="683" y="32"/>
			<point x="691" y="-11"/>
		</contour>
	</outline>
</glyph>
<glyph name="Softcyr" format="2">
	<advance width="605" height="0"/>
	<unicode hex="042C"/>
	<outline>
		<contour>
			<point x="267" y="-10" type="curve" smooth="yes"/>
			<point x="415" y="-10"/>
			<point x="560" y="169"/>
			<point x="560" y="300" type="curve" smooth="yes"/>
			<point x="560" y="396"/>
			<point x="488" y="439"/>
			<point x="396" y="439" type="curve" smooth="yes"/>
			<point x="300" y="439"/>
			<point x="212" y="405"/>
			<point x="116" y="348" type="curve"/>
			<point x="139" y="295" type="line"/>
			<point x="262" y="356"/>
			<point x="326" y="371"/>
			<point x="384" y="371" type="curve" smooth="yes"/>
			<point x="454" y="371"/>
			<point x="487" y="345"/>
			<point x="487" y="290" type="curve" smooth="yes"/>
			<point x="487" y="184"/>
			<point x="374" y="56"/>
			<point x="268" y="56" type="curve" smooth="yes"/>
			<point x="188" y="56"/>
			<point x="153" y="118"/>
			<point x="153" y="228" type="curve" smooth="yes"/>
			<point x="153" y="333"/>
			<point x="175" y="498"/>
			<point x="175" y="599" type="curve" smooth="yes"/>
			<point x="175" y="663"/>
			<point x="164" y="709"/>
			<point x="133" y="709" type="curve" smooth="yes"/>
			<point x="107" y="709"/>
			<point x="102" y="691"/>
			<point x="102" y="661" type="curve" smooth="yes"/>
			<point x="102" y="631"/>
			<point x="104" y="587"/>
			<point x="104" y="546" type="curve" smooth="yes"/>
			<point x="104" y="469"/>
			<point x="85" y="324"/>
			<point x="85" y="224" type="curve" smooth="yes"/>
			<point x="85" y="104"/>
			<point x="121" y="-10"/>
		</contour>
	</outline>
</glyph>
<glyph name="gecyr" format="2">
	<advance width="422" height="0"/>
	<unicode hex="0433"/>
	<anchor x="244" y="485" name="top"/>
	<outline>
		<contour>
			<point x="125" y="-10" type="curve" smooth="yes"/>
			<point x="136" y="-10"/>
			<point x="144" y="-2"/>
			<point x="144" y="14" type="curve" smooth="yes"/>
			<point x="144" y="27"/>
			<point x="132" y="121"/>
			<point x="132.264" y="226" type="curve" smooth="yes"/>
			<point x="132" y="326"/>
			<point x="135.264" y="387"/>
			<point x="142.264" y="440" type="curve"/>
			<point x="112.264" y="417" type="line"/>
			<point x="155.264" y="427"/>
			<point x="184.264" y="432"/>
			<point x="237.264" y="432" type="curve" smooth="yes"/>
			<point x="303.264" y="432"/>
			<point x="320.264" y="426"/>
			<point x="362.264" y="426" type="curve" smooth="yes"/>
			<point x="391.264" y="426"/>
			<point x="418.264" y="434"/>
			<point x="418.264" y="456" type="curve" smooth="yes"/>
			<point x="418.264" y="467"/>
			<point x="409.264" y="477"/>
			<point x="396.264" y="481" type="curve" smooth="yes"/>
			<point x="368.264" y="489"/>
			<point x="305.264" y="494"/>
			<point x="256.264" y="494" type="curve" smooth="yes"/>
			<point x="211.264" y="494"/>
			<point x="164.264" y="491"/>
			<point x="123.264" y="484" type="curve" smooth="yes"/>
			<point x="84.264" y="477"/>
			<point x="70" y="457"/>
			<point x="70.264" y="392" type="curve" smooth="yes"/>
			<point x="70" y="330"/>
			<point x="69" y="124"/>
			<point x="75" y="72" type="curve" smooth="yes"/>
			<point x="81" y="19"/>
			<point x="99" y="-10"/>
		</contour>
	</outline>
</glyph>
<glyph name="efcyr" format="2">
	<advance width="752" height="0"/>
	<unicode hex="0444"/>
	<outline>
		<contour>
			<point x="331" y="-13" type="curve" smooth="yes"/>
			<point x="563" y="-13"/>
			<point x="718" y="127"/>
			<point x="718" y="267" type="curve" smooth="yes"/>
			<point x="718" y="427"/>
			<point x="592" y="492"/>
			<point x="420" y="496" type="curve"/>
			<point x="411" y="436" type="line"/>
			<point x="559" y="435"/>
			<point x="651" y="369"/>
			<point x="651" y="277" type="curve" smooth="yes"/>
			<point x="651" y="142"/>
			<point x="513" y="49"/>
			<point x="353" y="49" type="curve" smooth="yes"/>
			<point x="165" y="49"/>
			<point x="102" y="118"/>
			<point x="102" y="215" type="curve" smooth="yes"/>
			<point x="102" y="349"/>
			<point x="230" y="424"/>
			<point x="385" y="432" type="curve"/>
			<point x="371" y="492" type="line"/>
			<point x="243" y="490"/>
			<point x="34" y="413"/>
			<point x="34" y="215" type="curve" smooth="yes"/>
			<point x="34" y="52"/>
			<point x="185" y="-13"/>
		</contour>
		<contour>
			<point x="389" y="-260" type="curve" smooth="yes"/>
			<point x="405" y="-260"/>
			<point x="411" y="-245"/>
			<point x="411" y="-230" type="curve" smooth="yes"/>
			<point x="411" y="-212"/>
			<point x="401" y="-158"/>
			<point x="401" y="-92" type="curve" smooth="yes"/>
			<point x="401" y="55"/>
			<point x="428" y="260"/>
			<point x="428" y="415" type="curve" smooth="yes"/>
			<point x="428" y="525"/>
			<point x="423" y="619"/>
			<point x="414" y="682" type="curve" smooth="yes"/>
			<point x="409" y="717"/>
			<point x="391" y="756"/>
			<point x="362" y="756" type="curve" smooth="yes"/>
			<point x="349" y="756"/>
			<point x="338" y="740"/>
			<point x="338" y="714" type="curve" smooth="yes"/>
			<point x="338" y="688"/>
			<point x="358" y="588"/>
			<point x="358" y="423" type="curve" smooth="yes"/>
			<point x="358" y="270"/>
			<point x="333" y="67"/>
			<point x="333" y="-106" type="curve" smooth="yes"/>
			<point x="333" y="-210"/>
			<point x="355" y="-260"/>
		</contour>
	</outline>
</glyph>
<glyph name="shacyr" format="2">
	<advance width="864" height="0"/>
	<unicode hex="0448"/>
	<outline>
		<contour>
			<point x="267" y="-9" type="curve" smooth="yes"/>
			<point x="369" y="-9"/>
			<point x="649" y="-1"/>
			<point x="710" y="9" type="curve" smooth="yes"/>
			<point x="775" y="20"/>
			<point x="802" y="61"/>
			<point x="802" y="125" type="curve" smooth="yes"/>
			<point x="802" y="225"/>
			<point x="764" y="374"/>
			<point x="742" y="426" type="curve" smooth="yes"/>
			<point x="727" y="461"/>
			<point x="711" y="491"/>
			<point x="680" y="491" type="curve" smooth="yes"/>
			<point x="668" y="491"/>
			<point x="658" y="479"/>
			<point x="658" y="464" type="curve" smooth="yes"/>
			<point x="658" y="435"/>
			<point x="731" y="290"/>
			<point x="731" y="107" type="curve" smooth="yes"/>
			<point x="731" y="86"/>
			<point x="721" y="77"/>
			<point x="704" y="74" type="curve" smooth="yes"/>
			<point x="644" y="63"/>
			<point x="362" y="52"/>
			<point x="268" y="52" type="curve" smooth="yes"/>
			<point x="169" y="52"/>
			<point x="131" y="91"/>
			<point x="131" y="192" type="curve" smooth="yes"/>
			<point x="131" y="337"/>
			<point x="161" y="421"/>
			<point x="161" y="451" type="curve" smooth="yes"/>
			<point x="161" y="479"/>
			<point x="144" y="496"/>
			<point x="122" y="496" type="curve" smooth="yes"/>
			<point x="108" y="496"/>
			<point x="101" y="471"/>
			<point x="90" y="426" type="curve" smooth="yes"/>
			<point x="73" y="350"/>
			<point x="64" y="278"/>
			<point x="64" y="213" type="curve" smooth="yes"/>
			<point x="64" y="86"/>
			<point x="84" y="-9"/>
		</contour>
		<contour>
			<point x="433" y="8" type="curve" smooth="yes"/>
			<point x="444" y="8"/>
			<point x="470" y="25"/>
			<point x="467" y="40" type="curve" smooth="yes"/>
			<point x="455" y="112"/>
			<point x="447" y="206"/>
			<point x="447" y="263" type="curve" smooth="yes"/>
			<point x="447" y="335"/>
			<point x="458" y="385"/>
			<point x="458" y="411" type="curve" smooth="yes"/>
			<point x="458" y="438"/>
			<point x="442" y="462"/>
			<point x="423" y="462" type="curve" smooth="yes"/>
			<point x="409" y="462"/>
			<point x="403" y="452"/>
			<point x="399" y="438" type="curve" smooth="yes"/>
			<point x="392" y="414"/>
			<point x="382" y="348"/>
			<point x="382" y="268" type="curve" smooth="yes"/>
			<point x="382" y="194"/>
			<point x="387" y="81"/>
			<point x="403" y="32" type="curve" smooth="yes"/>
			<point x="408" y="16"/>
			<point x="423" y="8"/>
		</contour>
	</outline>
</glyph>
<glyph name="yacyr" format="2">
	<advance width="535" height="0"/>
	<unicode hex="044F"/>
	<guideline x="177" y="150" angle="90" name=" [#NQt60oWmSh]"/>
	<guideline x="156" y="288" angle="90" name=" [#PF625F3qAF]"/>
	<guideline x="156" y="288" angle="90" name=" [#ftLgu9qsNU]"/>
	<outline>
		<contour>
			<point x="435" y="-11" type="curve" smooth="yes"/>
			<point x="447" y="-11"/>
			<point x="456" y="0"/>
			<point x="456" y="13" type="curve" smooth="yes"/>
			<point x="456" y="24"/>
			<point x="442" y="68"/>
			<point x="437" y="101" type="curve" smooth="yes"/>
			<point x="431" y="142"/>
			<point x="426" y="202"/>
			<point x="426" y="250" type="curve" smooth="yes"/>
			<point x="426" y="294"/>
			<point x="435" y="373"/>
			<point x="435" y="416" type="curve" smooth="yes"/>
			<point x="435" y="461"/>
			<point x="402" y="497"/>
			<point x="332" y="497" type="curve" smooth="yes"/>
			<point x="293" y="497"/>
			<point x="268" y="496"/>
			<point x="210" y="480" type="curve" smooth="yes"/>
			<point x="94" y="447"/>
			<point x="53" y="388"/>
			<point x="53" y="332" type="curve" smooth="yes"/>
			<point x="53" y="245"/>
			<point x="158" y="188"/>
			<point x="253" y="188" type="curve" smooth="yes"/>
			<point x="339" y="188" type="line" smooth="yes"/>
			<point x="413" y="188"/>
			<point x="474" y="201"/>
			<point x="474" y="237" type="curve" smooth="yes"/>
			<point x="474" y="256"/>
			<point x="449" y="253"/>
			<point x="417" y="253" type="curve" smooth="yes"/>
			<point x="409" y="253"/>
			<point x="360" y="245"/>
			<point x="305" y="245" type="curve" smooth="yes"/>
			<point x="165" y="245"/>
			<point x="119" y="288"/>
			<point x="119" y="338" type="curve" smooth="yes"/>
			<point x="119" y="379"/>
			<point x="179" y="413"/>
			<point x="253" y="426" type="curve" smooth="yes"/>
			<point x="282" y="431"/>
			<point x="305" y="432"/>
			<point x="327" y="432" type="curve" smooth="yes"/>
			<point x="353" y="432"/>
			<point x="367" y="424"/>
			<point x="367" y="408" type="curve" smooth="yes"/>
			<point x="367" y="375"/>
			<point x="359" y="263"/>
			<point x="359" y="212" type="curve" smooth="yes"/>
			<point x="359" y="165"/>
			<point x="368" y="90"/>
			<point x="377" y="59" type="curve" smooth="yes"/>
			<point x="389" y="18"/>
			<point x="406" y="-11"/>
		</contour>
		<contour>
			<point x="83" y="-10" type="curve" smooth="yes"/>
			<point x="135" y="-10"/>
			<point x="238" y="91"/>
			<point x="308" y="196" type="curve"/>
			<point x="250" y="217" type="line"/>
			<point x="198" y="150"/>
			<point x="149" y="94"/>
			<point x="94" y="61" type="curve" smooth="yes"/>
			<point x="63" y="42"/>
			<point x="50" y="33"/>
			<point x="50" y="21" type="curve" smooth="yes"/>
			<point x="50" y="5"/>
			<point x="64" y="-10"/>
		</contour>
	</outline>
</glyph>
<glyph name="eukrcyr" format="2">
	<advance width="504" height="0"/>
	<unicode hex="0454"/>
	<guideline x="86.54" y="263.46" angle="90" name=" [#n4jm0tBg3Y]"/>
	<guideline x="89.9" y="278.36" angle="90" name=" [#a7QVIHyV5D]"/>
	<outline>
		<contour>
			<point x="286" y="-9" type="curve" smooth="yes"/>
			<point x="380" y="-9"/>
			<point x="456" y="43"/>
			<point x="456" y="106" type="curve" smooth="yes"/>
			<point x="456" y="128"/>
			<point x="449" y="136"/>
			<point x="435" y="136" type="curve" smooth="yes"/>
			<point x="405" y="136"/>
			<point x="411" y="56"/>
			<point x="286" y="56" type="curve" smooth="yes"/>
			<point x="190" y="56"/>
			<point x="121" y="115"/>
			<point x="121" y="211" type="curve" smooth="yes"/>
			<point x="121" y="319"/>
			<point x="205.808" y="427"/>
			<point x="330" y="427" type="curve" smooth="yes"/>
			<point x="402" y="427"/>
			<point x="393" y="394"/>
			<point x="421" y="394" type="curve" smooth="yes"/>
			<point x="438" y="394"/>
			<point x="447" y="407"/>
			<point x="447" y="424" type="curve" smooth="yes"/>
			<point x="447" y="476"/>
			<point x="394" y="495"/>
			<point x="340" y="495" type="curve" smooth="yes"/>
			<point x="185" y="495"/>
			<point x="53" y="374"/>
			<point x="53" y="220" type="curve" smooth="yes"/>
			<point x="53" y="81"/>
			<point x="144" y="-9"/>
		</contour>
		<contour>
			<point x="331" y="215" type="curve" smooth="yes"/>
			<point x="358" y="215"/>
			<point x="378" y="228.125"/>
			<point x="378" y="245" type="curve" smooth="yes"/>
			<point x="378" y="258"/>
			<point x="363" y="265"/>
			<point x="340" y="270" type="curve" smooth="yes"/>
			<point x="305.587" y="277"/>
			<point x="246.063" y="279"/>
			<point x="207" y="279" type="curve" smooth="yes"/>
			<point x="170.7" y="279"/>
			<point x="128.9" y="276"/>
			<point x="97" y="271" type="curve"/>
			<point x="103" y="216" type="line"/>
			<point x="127.316" y="219"/>
			<point x="173" y="224"/>
			<point x="208" y="224" type="curve" smooth="yes"/>
			<point x="265.821" y="224"/>
			<point x="303" y="215"/>
		</contour>
	</outline>
</glyph>
<glyph name="dzhecyr" format="2">
	<advance width="564" height="0"/>
	<unicode hex="045F"/>
	<guideline x="86.54" y="263.46" angle="90" name=" [#rQENFQOEUJ]"/>
	<guideline x="89.9" y="278.36" angle="90" name=" [#rKZszPBnKc]"/>
	<outline>
		<contour>
			<point x="183" y="-7" type="curve" smooth="yes"/>
			<point x="299" y="-7"/>
			<point x="362" y="-4"/>
			<point x="417" y="8" type="curve" smooth="yes"/>
			<point x="477" y="21"/>
			<point x="491" y="73"/>
			<point x="491" y="146" type="curve" smooth="yes"/>
			<point x="491" y="239"/>
			<point x="482" y="362"/>
			<point x="469" y="437" type="curve" smooth="yes"/>
			<point x="463" y="469"/>
			<point x="449" y="494"/>
			<point x="421" y="494" type="curve" smooth="yes"/>
			<point x="406" y="494"/>
			<point x="403" y="481"/>
			<point x="403" y="458" type="curve" smooth="yes"/>
			<point x="403" y="419"/>
			<point x="426" y="288"/>
			<point x="426" y="190" type="curve" smooth="yes"/>
			<point x="426" y="141"/>
			<point x="430" y="92"/>
			<point x="406" y="42" type="curve"/>
			<point x="429" y="71" type="line"/>
			<point x="376" y="55"/>
			<point x="279" y="50"/>
			<point x="210" y="50" type="curve" smooth="yes"/>
			<point x="151" y="50"/>
			<point x="133" y="69"/>
			<point x="133" y="106" type="curve" smooth="yes"/>
			<point x="133" y="228"/>
			<point x="181" y="411"/>
			<point x="181" y="435" type="curve" smooth="yes"/>
			<point x="181" y="472"/>
			<point x="161" y="492"/>
			<point x="144" y="492" type="curve" smooth="yes"/>
			<point x="129" y="492"/>
			<point x="124" y="477"/>
			<point x="120" y="455" type="curve"/>
			<point x="100" y="389"/>
			<point x="68" y="194"/>
			<point x="68" y="115" type="curve" smooth="yes"/>
			<point x="68" y="42"/>
			<point x="97" y="-7"/>
		</contour>
		<contour>
			<point x="280" y="-171" type="curve" smooth="yes"/>
			<point x="302" y="-171"/>
			<point x="311" y="-154"/>
			<point x="311" y="-137" type="curve" smooth="yes"/>
			<point x="311" y="-109"/>
			<point x="308" y="-56"/>
			<point x="308" y="2" type="curve" smooth="yes"/>
			<point x="308" y="31"/>
			<point x="296" y="44"/>
			<point x="279" y="44" type="curve" smooth="yes"/>
			<point x="243" y="44"/>
			<point x="238" y="-33"/>
			<point x="238" y="-101" type="curve" smooth="yes"/>
			<point x="238" y="-142"/>
			<point x="254" y="-171"/>
		</contour>
	</outline>
</glyph>
<glyph name="yatcyr" format="2">
	<advance width="594" height="0"/>
	<unicode hex="0463"/>
	<outline>
		<contour>
			<point x="314" y="-10" type="curve" smooth="yes"/>
			<point x="436" y="-10"/>
			<point x="549" y="114"/>
			<point x="549" y="219" type="curve" smooth="yes"/>
			<point x="549" y="278"/>
			<point x="503" y="326"/>
			<point x="408" y="326" type="curve" smooth="yes"/>
			<point x="339" y="326"/>
			<point x="252" y="316"/>
			<point x="197" y="302" type="curve"/>
			<point x="174" y="298"/>
			<point x="174" y="282"/>
			<point x="174" y="267" type="curve" smooth="yes"/>
			<point x="174" y="257"/>
			<point x="180" y="244"/>
			<point x="195" y="246" type="curve" smooth="yes"/>
			<point x="249" y="253"/>
			<point x="323" y="263"/>
			<point x="404" y="263" type="curve" smooth="yes"/>
			<point x="454" y="263"/>
			<point x="485" y="246"/>
			<point x="485" y="230" type="curve" smooth="yes"/>
			<point x="485" y="136"/>
			<point x="399" y="52"/>
			<point x="318" y="52" type="curve" smooth="yes"/>
			<point x="222" y="52"/>
			<point x="197" y="106"/>
			<point x="197" y="228" type="curve" smooth="yes"/>
			<point x="197" y="330"/>
			<point x="236" y="566"/>
			<point x="236" y="683" type="curve" smooth="yes"/>
			<point x="236" y="725"/>
			<point x="220" y="762"/>
			<point x="187" y="762" type="curve" smooth="yes"/>
			<point x="170" y="762"/>
			<point x="165" y="756"/>
			<point x="165" y="739" type="curve" smooth="yes"/>
			<point x="165" y="719"/>
			<point x="167" y="681"/>
			<point x="167" y="618" type="curve" smooth="yes"/>
			<point x="167" y="526"/>
			<point x="132" y="335"/>
			<point x="132" y="223" type="curve" smooth="yes"/>
			<point x="132" y="108"/>
			<point x="165" y="-10"/>
		</contour>
		<contour>
			<point x="71" y="432" type="curve" smooth="yes"/>
			<point x="116" y="432"/>
			<point x="186" y="441"/>
			<point x="385" y="441" type="curve" smooth="yes"/>
			<point x="418" y="441"/>
			<point x="438" y="451"/>
			<point x="438" y="467" type="curve" smooth="yes"/>
			<point x="438" y="479"/>
			<point x="422" y="498"/>
			<point x="375" y="498" type="curve" smooth="yes"/>
			<point x="263" y="498"/>
			<point x="158" y="494"/>
			<point x="41" y="488" type="curve" smooth="yes"/>
			<point x="15" y="486"/>
			<point x="8" y="472"/>
			<point x="8" y="462" type="curve" smooth="yes"/>
			<point x="8" y="447"/>
			<point x="23" y="432"/>
		</contour>
	</outline>
</glyph>
<glyph name="Yusbigcyr" format="2">
	<advance width="778" height="0"/>
	<unicode hex="046A"/>
	<outline>
		<contour>
			<point x="709" y="-7" type="curve" smooth="yes"/>
			<point x="729" y="-7"/>
			<point x="735" y="14"/>
			<point x="735" y="29" type="curve" smooth="yes"/>
			<point x="735" y="100"/>
			<point x="654" y="395"/>
			<point x="385" y="395" type="curve" smooth="yes"/>
			<point x="157" y="395"/>
			<point x="39" y="164"/>
			<point x="39" y="52" type="curve" smooth="yes"/>
			<point x="39" y="24"/>
			<point x="56" y="-4"/>
			<point x="73" y="-4" type="curve" smooth="yes"/>
			<point x="87" y="-4"/>
			<point x="91" y="15"/>
			<point x="101" y="51" type="curve" smooth="yes"/>
			<point x="142" y="196"/>
			<point x="219" y="330"/>
			<point x="400" y="330" type="curve" smooth="yes"/>
			<point x="555" y="330"/>
			<point x="618" y="198"/>
			<point x="659" y="82" type="curve" smooth="yes"/>
			<point x="679" y="25"/>
			<point x="684.962" y="-7"/>
		</contour>
		<contour>
			<point x="401" y="-9" type="curve" smooth="yes"/>
			<point x="413" y="-9"/>
			<point x="426" y="2"/>
			<point x="426" y="32" type="curve" smooth="yes"/>
			<point x="426" y="171.897"/>
			<point x="416.714" y="349.438"/>
			<point x="413" y="361" type="curve"/>
			<point x="350" y="350" type="line"/>
			<point x="352" y="341.509"/>
			<point x="358" y="248.969"/>
			<point x="358" y="150" type="curve" smooth="yes"/>
			<point x="358" y="122.5"/>
			<point x="356" y="85"/>
			<point x="356" y="62" type="curve" smooth="yes"/>
			<point x="356" y="22"/>
			<point x="372" y="-9"/>
		</contour>
		<contour>
			<point x="294" y="349" type="curve"/>
			<point x="337" y="379" type="line"/>
			<point x="233" y="487"/>
			<point x="167" y="577"/>
			<point x="144" y="674" type="curve"/>
			<point x="116" y="655" type="line"/>
			<point x="205" y="644"/>
			<point x="524.425" y="637.8"/>
			<point x="636" y="645" type="curve"/>
			<point x="628" y="661" type="line"/>
			<point x="604.133" y="597.094"/>
			<point x="534" y="474"/>
			<point x="449" y="370" type="curve"/>
			<point x="497" y="347" type="line"/>
			<point x="589" y="446"/>
			<point x="680" y="582.165"/>
			<point x="680" y="635" type="curve" smooth="yes"/>
			<point x="680" y="671.431"/>
			<point x="657" y="699"/>
			<point x="608" y="699" type="curve" smooth="yes"/>
			<point x="493.736" y="699"/>
			<point x="245" y="704"/>
			<point x="176" y="704" type="curve" smooth="yes"/>
			<point x="125.889" y="704"/>
			<point x="94" y="676"/>
			<point x="94" y="641" type="curve" smooth="yes"/>
			<point x="94" y="562"/>
			<point x="190.804" y="444.284"/>
		</contour>
	</outline>
</glyph>
<glyph name="yusbigcyr" format="2">
	<advance width="664" height="0"/>
	<unicode hex="046B"/>
	<outline>
		<contour>
			<point x="66" y="-7" type="curve" smooth="yes"/>
			<point x="82" y="-7"/>
			<point x="89" y="19"/>
			<point x="108" y="56" type="curve" smooth="yes"/>
			<point x="144" y="132"/>
			<point x="198" y="209"/>
			<point x="330" y="210" type="curve" smooth="yes"/>
			<point x="437" y="211"/>
			<point x="491" y="155"/>
			<point x="549" y="63" type="curve"/>
			<point x="577" y="27"/>
			<point x="584" y="-10"/>
			<point x="610" y="-10" type="curve" smooth="yes"/>
			<point x="624" y="-10"/>
			<point x="631" y="-1"/>
			<point x="631" y="15" type="curve" smooth="yes"/>
			<point x="631" y="86"/>
			<point x="524" y="266"/>
			<point x="326" y="266" type="curve" smooth="yes"/>
			<point x="154" y="266"/>
			<point x="40" y="111"/>
			<point x="40" y="32" type="curve" smooth="yes"/>
			<point x="40" y="11"/>
			<point x="46" y="-7"/>
		</contour>
		<contour>
			<point x="333" y="-7" type="curve" smooth="yes"/>
			<point x="344" y="-7"/>
			<point x="355" y="3"/>
			<point x="355" y="20" type="curve" smooth="yes"/>
			<point x="355" y="44"/>
			<point x="369" y="204"/>
			<point x="355" y="229" type="curve" smooth="yes"/>
			<point x="344" y="249"/>
			<point x="332" y="262"/>
			<point x="319" y="262" type="curve" smooth="yes"/>
			<point x="306" y="262"/>
			<point x="302" y="252"/>
			<point x="302" y="238" type="curve" smooth="yes"/>
			<point x="302" y="222"/>
			<point x="307" y="187"/>
			<point x="307" y="156" type="curve" smooth="yes"/>
			<point x="307" y="98"/>
			<point x="302" y="71"/>
			<point x="302" y="51" type="curve" smooth="yes"/>
			<point x="302" y="25"/>
			<point x="311" y="-7"/>
		</contour>
		<contour>
			<point x="426" y="201" type="line"/>
			<point x="505" y="280"/>
			<point x="563" y="370"/>
			<point x="563" y="423" type="curve" smooth="yes"/>
			<point x="563" y="451"/>
			<point x="542" y="480"/>
			<point x="491" y="480" type="curve" smooth="yes"/>
			<point x="416" y="480"/>
			<point x="234" y="490"/>
			<point x="195" y="490" type="curve" smooth="yes"/>
			<point x="130" y="490"/>
			<point x="99" y="457"/>
			<point x="99" y="417" type="curve" smooth="yes"/>
			<point x="99" y="363"/>
			<point x="155" y="272"/>
			<point x="228" y="202" type="curve"/>
			<point x="279" y="226" type="line"/>
			<point x="190" y="312"/>
			<point x="162" y="398"/>
			<point x="156" y="447" type="curve"/>
			<point x="132" y="437" type="line"/>
			<point x="208" y="430"/>
			<point x="429" y="419"/>
			<point x="528" y="430" type="curve"/>
			<point x="504" y="440" type="line"/>
			<point x="491" y="374"/>
			<point x="454" y="312"/>
			<point x="387" y="235" type="curve"/>
		</contour>
	</outline>
</glyph>
<glyph name="Izhitsacyr" format="2">
	<advance width="716" height="0"/>
	<unicode hex="0474"/>
	<outline>
		<contour>
			<point x="332" y="-11" type="curve" smooth="yes"/>
			<point x="344" y="-11"/>
			<point x="358" y="0"/>
			<point x="370" y="51" type="curve" smooth="yes"/>
			<point x="421" y="259"/>
			<point x="506" y="490"/>
			<point x="543" y="555" type="curve" smooth="yes"/>
			<point x="576" y="613"/>
			<point x="590" y="636"/>
			<point x="612" y="636" type="curve" smooth="yes"/>
			<point x="638" y="636"/>
			<point x="661" y="601"/>
			<point x="693" y="601" type="curve" smooth="yes"/>
			<point x="705" y="601"/>
			<point x="713" y="611"/>
			<point x="713" y="625" type="curve" smooth="yes"/>
			<point x="713" y="659"/>
			<point x="677" y="708"/>
			<point x="626" y="708" type="curve" smooth="yes"/>
			<point x="569" y="708"/>
			<point x="531" y="677"/>
			<point x="489" y="600" type="curve" smooth="yes"/>
			<point x="442" y="515"/>
			<point x="357" y="263"/>
			<point x="306" y="58" type="curve"/>
			<point x="329" y="65" type="line"/>
			<point x="233" y="245"/>
			<point x="227" y="478"/>
			<point x="148" y="628" type="curve" smooth="yes"/>
			<point x="120" y="684"/>
			<point x="98" y="706"/>
			<point x="69" y="706" type="curve" smooth="yes"/>
			<point x="55" y="706"/>
			<point x="48" y="697"/>
			<point x="48" y="684" type="curve" smooth="yes"/>
			<point x="48" y="662"/>
			<point x="59" y="643"/>
			<point x="91" y="592" type="curve" smooth="yes"/>
			<point x="149" y="501"/>
			<point x="176" y="220"/>
			<point x="256" y="58" type="curve"/>
			<point x="294" y="-5"/>
			<point x="308" y="-11"/>
		</contour>
	</outline>
</glyph>
<glyph name="izhitsacyr" format="2">
	<advance width="572" height="0"/>
	<unicode hex="0475"/>
	<outline>
		<contour>
			<point x="271" y="-10" type="curve" smooth="yes"/>
			<point x="291" y="-10"/>
			<point x="302" y="-2"/>
			<point x="313" y="25" type="curve" smooth="yes"/>
			<point x="366" y="160"/>
			<point x="398" y="307"/>
			<point x="449" y="387" type="curve" smooth="yes"/>
			<point x="463" y="411"/>
			<point x="475" y="421"/>
			<point x="488" y="421" type="curve" smooth="yes"/>
			<point x="511.333" y="421"/>
			<point x="526" y="395"/>
			<point x="548" y="395" type="curve" smooth="yes"/>
			<point x="559" y="395"/>
			<point x="564" y="407"/>
			<point x="564" y="416" type="curve" smooth="yes"/>
			<point x="564" y="452"/>
			<point x="535" y="495"/>
			<point x="495" y="495" type="curve" smooth="yes"/>
			<point x="454" y="495"/>
			<point x="423" y="471"/>
			<point x="390" y="421" type="curve" smooth="yes"/>
			<point x="331" y="331"/>
			<point x="309" y="203"/>
			<point x="253" y="64" type="curve"/>
			<point x="285" y="67" type="line"/>
			<point x="234" y="145"/>
			<point x="200" y="271"/>
			<point x="163" y="366" type="curve" smooth="yes"/>
			<point x="137" y="429"/>
			<point x="117" y="492"/>
			<point x="62" y="492" type="curve" smooth="yes"/>
			<point x="42" y="492"/>
			<point x="31" y="482"/>
			<point x="31" y="472" type="curve" smooth="yes"/>
			<point x="31" y="438"/>
			<point x="60" y="442"/>
			<point x="119" y="286" type="curve" smooth="yes"/>
			<point x="155" y="191"/>
			<point x="189" y="76"/>
			<point x="222" y="27" type="curve" smooth="yes"/>
			<point x="240" y="1"/>
			<point x="253" y="-10"/>
		</contour>
	</outline>
</glyph>
<glyph name="gehookcyr" format="2">
	<advance width="527" height="0"/>
	<unicode hex="0495"/>
	<outline>
		<contour>
			<point x="305" y="-178" type="curve" smooth="yes"/>
			<point x="374.842" y="-178"/>
			<point x="477" y="-94"/>
			<point x="477" y="47" type="curve" smooth="yes"/>
			<point x="477" y="139"/>
			<point x="429.782" y="287"/>
			<point x="328" y="287" type="curve" smooth="yes"/>
			<point x="265" y="287"/>
			<point x="192" y="211"/>
			<point x="130" y="96" type="curve"/>
			<point x="148" y="94" type="line"/>
			<point x="130" y="146"/>
			<point x="134" y="196"/>
			<point x="134" y="240" type="curve" smooth="yes"/>
			<point x="134" y="313"/>
			<point x="137" y="369"/>
			<point x="142" y="440" type="curve"/>
			<point x="112" y="417" type="line"/>
			<point x="155" y="427"/>
			<point x="184" y="432"/>
			<point x="237" y="432" type="curve" smooth="yes"/>
			<point x="303" y="432"/>
			<point x="320" y="426"/>
			<point x="362" y="426" type="curve" smooth="yes"/>
			<point x="391" y="426"/>
			<point x="418" y="434"/>
			<point x="418" y="456" type="curve" smooth="yes"/>
			<point x="418" y="467"/>
			<point x="409" y="477"/>
			<point x="396" y="481" type="curve" smooth="yes"/>
			<point x="368" y="489"/>
			<point x="305" y="494"/>
			<point x="256" y="494" type="curve" smooth="yes"/>
			<point x="211" y="494"/>
			<point x="164" y="491"/>
			<point x="123" y="484" type="curve" smooth="yes"/>
			<point x="84" y="477"/>
			<point x="70" y="457"/>
			<point x="70" y="392" type="curve" smooth="yes"/>
			<point x="70" y="331.657"/>
			<point x="68" y="133"/>
			<point x="75" y="83" type="curve" smooth="yes"/>
			<point x="82" y="34"/>
			<point x="96.083" y="-10"/>
			<point x="121" y="-10" type="curve" smooth="yes"/>
			<point x="141.543" y="-10"/>
			<point x="153" y="6"/>
			<point x="166" y="33" type="curve" smooth="yes"/>
			<point x="229" y="165"/>
			<point x="293" y="218"/>
			<point x="356" y="236" type="curve"/>
			<point x="309" y="240" type="line"/>
			<point x="371.511" y="203"/>
			<point x="406" y="126"/>
			<point x="406" y="44" type="curve" smooth="yes"/>
			<point x="406" y="-49"/>
			<point x="361.701" y="-86"/>
			<point x="312" y="-110" type="curve" smooth="yes"/>
			<point x="282" y="-126"/>
			<point x="266" y="-132"/>
			<point x="266" y="-144" type="curve" smooth="yes"/>
			<point x="266" y="-164"/>
			<point x="285" y="-178"/>
		</contour>
	</outline>
</glyph>
<glyph name="Zetailcyr" format="2">
	<advance width="606" height="0"/>
	<unicode hex="0498"/>
	<anchor x="292" y="700" name="top"/>
	<outline>
		<contour>
			<point x="307" y="-177" type="curve" smooth="yes"/>
			<point x="320" y="-177"/>
			<point x="328" y="-160"/>
			<point x="328" y="-143" type="curve" smooth="yes"/>
			<point x="328" y="-118"/>
			<point x="326" y="-59"/>
			<point x="326" y="2" type="curve" smooth="yes"/>
			<point x="326" y="31"/>
			<point x="314" y="44"/>
			<point x="297" y="44" type="curve" smooth="yes"/>
			<point x="281" y="44"/>
			<point x="260" y="32"/>
			<point x="260" y="13" type="curve" smooth="yes"/>
			<point x="260" y="-13"/>
			<point x="254" y="-76.524"/>
			<point x="254" y="-107" type="curve" smooth="yes"/>
			<point x="254" y="-140"/>
			<point x="271" y="-177"/>
		</contour>
		<component base="Zecyr"/>
	</outline>
</glyph>
<glyph name="zetailcyr" format="2">
	<advance width="487" height="0"/>
	<unicode hex="0499"/>
	<anchor x="227" y="485" name="top"/>
	<outline>
		<contour>
			<point x="232" y="-171" type="curve" smooth="yes"/>
			<point x="254" y="-171"/>
			<point x="263" y="-154"/>
			<point x="263" y="-137" type="curve" smooth="yes"/>
			<point x="263" y="-109"/>
			<point x="260" y="-56"/>
			<point x="260" y="2" type="curve" smooth="yes"/>
			<point x="260" y="31"/>
			<point x="248" y="44"/>
			<point x="231" y="44" type="curve" smooth="yes"/>
			<point x="195" y="44"/>
			<point x="190" y="-33"/>
			<point x="190" y="-101" type="curve" smooth="yes"/>
			<point x="190" y="-142"/>
			<point x="206" y="-171"/>
		</contour>
		<component base="zecyr"/>
	</outline>
</glyph>
<glyph name="katailcyr" format="2">
	<advance width="537" height="0"/>
	<unicode hex="049B"/>
	<guideline x="86.54" y="263.46" angle="90" name=" [#AEoq2U1whz]"/>
	<guideline x="89.9" y="278.36" angle="90" name=" [#lAjk0U2JTq]"/>
	<outline>
		<contour>
			<point x="479" y="-141" type="curve" smooth="yes"/>
			<point x="492" y="-141"/>
			<point x="501" y="-125"/>
			<point x="503" y="-99" type="curve" smooth="yes"/>
			<point x="508" y="-37"/>
			<point x="527" y="26"/>
			<point x="527" y="55" type="curve" smooth="yes"/>
			<point x="527" y="79"/>
			<point x="513" y="89"/>
			<point x="503" y="89" type="curve" smooth="yes"/>
			<point x="476" y="89"/>
			<point x="456" y="55"/>
			<point x="445" y="55" type="curve" smooth="yes"/>
			<point x="389" y="55"/>
			<point x="228" y="195"/>
			<point x="228" y="248" type="curve" smooth="yes"/>
			<point x="228" y="269"/>
			<point x="293" y="344"/>
			<point x="393" y="411" type="curve" smooth="yes"/>
			<point x="429" y="435"/>
			<point x="463" y="452"/>
			<point x="463" y="476" type="curve" smooth="yes"/>
			<point x="463" y="491"/>
			<point x="453" y="499"/>
			<point x="440" y="499" type="curve" smooth="yes"/>
			<point x="364" y="499"/>
			<point x="194" y="322"/>
			<point x="166" y="268" type="curve" smooth="yes"/>
			<point x="162" y="261"/>
			<point x="160" y="253"/>
			<point x="160" y="246" type="curve" smooth="yes"/>
			<point x="160" y="234"/>
			<point x="166" y="220"/>
			<point x="178" y="200" type="curve" smooth="yes"/>
			<point x="246" y="95"/>
			<point x="363" y="-7"/>
			<point x="454" y="-7" type="curve" smooth="yes"/>
			<point x="468" y="-7"/>
			<point x="478" y="2"/>
			<point x="491" y="20" type="curve"/>
			<point x="472" y="37" type="line"/>
			<point x="444" y="-6"/>
			<point x="441" y="-67"/>
			<point x="441" y="-87" type="curve" smooth="yes"/>
			<point x="441" y="-110"/>
			<point x="453" y="-141"/>
		</contour>
		<contour>
			<point x="129" y="-10" type="curve" smooth="yes"/>
			<point x="146" y="-10"/>
			<point x="155" y="2"/>
			<point x="155" y="20" type="curve" smooth="yes"/>
			<point x="155" y="37"/>
			<point x="139" y="119"/>
			<point x="139" y="225" type="curve" smooth="yes"/>
			<point x="139" y="284"/>
			<point x="151" y="382"/>
			<point x="151" y="428" type="curve" smooth="yes"/>
			<point x="151" y="474"/>
			<point x="125" y="499"/>
			<point x="100" y="499" type="curve" smooth="yes"/>
			<point x="83" y="499"/>
			<point x="79" y="478"/>
			<point x="79" y="441" type="curve" smooth="yes"/>
			<point x="79" y="363"/>
			<point x="73" y="277"/>
			<point x="73" y="225" type="curve" smooth="yes"/>
			<point x="73" y="77"/>
			<point x="83" y="-10"/>
		</contour>
	</outline>
</glyph>
<glyph name="kabashkcyr" format="2">
	<advance width="580" height="0"/>
	<unicode hex="04A1"/>
	<guideline x="177.4" y="149.52" angle="90" name=" [#3y88Ssr8DV]"/>
	<guideline x="86.54" y="263.46" angle="90" name=" [#FW16Zi4ekf]"/>
	<guideline x="89.9" y="278.36" angle="90" name=" [#nZfjBHecze]"/>
	<guideline x="86.54" y="263.46" angle="90" name=" [#vzyjss2pcN]"/>
	<guideline x="89.9" y="278.36" angle="90" name=" [#vA6t8av7FN]"/>
	<guideline x="86.54" y="263.46" angle="90" name=" [#NrtA3xRpn7]"/>
	<guideline x="89.9" y="278.36" angle="90" name=" [#VUtcNaSb9M]"/>
	<guideline x="86.54" y="263.46" angle="90" name=" [#l4KwVS3B2v]"/>
	<guideline x="89.9" y="278.36" angle="90" name=" [#ELOuUGl5K3]"/>
	<guideline x="115.86" y="265.86" angle="90" name=" [#eBq2AIPycV]"/>
	<guideline x="93.75" y="248.08" angle="90" name=" [#iStDedfMzM]"/>
	<outline>
		<contour>
			<point x="527" y="-11" type="curve" smooth="yes"/>
			<point x="545" y="-11"/>
			<point x="561" y="1"/>
			<point x="561" y="18" type="curve" smooth="yes"/>
			<point x="561" y="36"/>
			<point x="504" y="53"/>
			<point x="460" y="80" type="curve" smooth="yes"/>
			<point x="367" y="137"/>
			<point x="309" y="226"/>
			<point x="309" y="248" type="curve" smooth="yes"/>
			<point x="309" y="269"/>
			<point x="374" y="344"/>
			<point x="474" y="411" type="curve" smooth="yes"/>
			<point x="510" y="435"/>
			<point x="544" y="452"/>
			<point x="544" y="476" type="curve" smooth="yes"/>
			<point x="544" y="491"/>
			<point x="534" y="499"/>
			<point x="521" y="499" type="curve" smooth="yes"/>
			<point x="445" y="499"/>
			<point x="275" y="322"/>
			<point x="247" y="268" type="curve" smooth="yes"/>
			<point x="243" y="261"/>
			<point x="241" y="253"/>
			<point x="241" y="246" type="curve" smooth="yes"/>
			<point x="241" y="234"/>
			<point x="247" y="220"/>
			<point x="259" y="200" type="curve" smooth="yes"/>
			<point x="325" y="92"/>
			<point x="438" y="-11"/>
		</contour>
		<contour>
			<point x="211" y="-10" type="curve" smooth="yes"/>
			<point x="227" y="-10"/>
			<point x="236" y="2"/>
			<point x="236" y="20" type="curve" smooth="yes"/>
			<point x="236" y="36"/>
			<point x="217" y="112"/>
			<point x="217" y="211" type="curve" smooth="yes"/>
			<point x="217" y="318"/>
			<point x="242" y="390"/>
			<point x="242" y="428" type="curve" smooth="yes"/>
			<point x="242" y="467"/>
			<point x="223" y="492"/>
			<point x="159" y="492" type="curve" smooth="yes"/>
			<point x="62" y="492"/>
			<point x="4" y="475"/>
			<point x="4" y="444" type="curve" smooth="yes"/>
			<point x="4" y="429"/>
			<point x="12" y="419"/>
			<point x="35" y="419" type="curve" smooth="yes"/>
			<point x="61" y="419"/>
			<point x="149" y="432"/>
			<point x="201" y="432" type="curve"/>
			<point x="174" y="450" type="line"/>
			<point x="171" y="381"/>
			<point x="154" y="261"/>
			<point x="154" y="183" type="curve" smooth="yes"/>
			<point x="154" y="69"/>
			<point x="170" y="-10"/>
		</contour>
	</outline>
</glyph>
<glyph name="Estailcyr" format="2">
	<advance width="618" height="0"/>
	<unicode hex="04AA"/>
	<anchor x="332" y="0" name="bottom"/>
	<anchor x="375" y="700" name="top"/>
	<outline>
		<contour>
			<point x="331" y="-197" type="curve" smooth="yes"/>
			<point x="346" y="-197"/>
			<point x="356" y="-180"/>
			<point x="356" y="-163" type="curve" smooth="yes"/>
			<point x="356" y="-135"/>
			<point x="351" y="-67"/>
			<point x="351" y="2" type="curve" smooth="yes"/>
			<point x="351" y="31"/>
			<point x="340" y="44"/>
			<point x="325" y="44" type="curve" smooth="yes"/>
			<point x="309" y="44"/>
			<point x="288" y="32"/>
			<point x="288" y="13" type="curve" smooth="yes"/>
			<point x="288" y="-17"/>
			<point x="280" y="-92"/>
			<point x="280" y="-127" type="curve" smooth="yes"/>
			<point x="280" y="-160"/>
			<point x="297" y="-197"/>
		</contour>
		<component base="C"/>
	</outline>
</glyph>
<glyph name="estailcyr" format="2">
	<advance width="502" height="0"/>
	<unicode hex="04AB"/>
	<anchor x="280" y="0" name="bottom"/>
	<anchor x="280" y="485" name="top"/>
	<outline>
		<contour>
			<point x="279" y="-171" type="curve" smooth="yes"/>
			<point x="301" y="-171"/>
			<point x="310" y="-154"/>
			<point x="310" y="-137" type="curve" smooth="yes"/>
			<point x="310" y="-109"/>
			<point x="307" y="-56"/>
			<point x="307" y="2" type="curve" smooth="yes"/>
			<point x="307" y="31"/>
			<point x="295" y="44"/>
			<point x="278" y="44" type="curve" smooth="yes"/>
			<point x="242" y="44"/>
			<point x="237" y="-33"/>
			<point x="237" y="-101" type="curve" smooth="yes"/>
			<point x="237" y="-142"/>
			<point x="253" y="-171"/>
		</contour>
		<component base="c"/>
	</outline>
</glyph>
<glyph name="ustraightstrokecyr" format="2">
	<advance width="508" height="0"/>
	<unicode hex="04B1"/>
	<guideline x="86.54" y="263.46" angle="90" name=" [#TqGNIf0mql]"/>
	<guideline x="89.9" y="278.36" angle="90" name=" [#pPlfMfFYxl]"/>
	<outline>
		<contour>
			<point x="261" y="-263" type="curve" smooth="yes"/>
			<point x="276" y="-263"/>
			<point x="285" y="-252"/>
			<point x="286" y="-222" type="curve" smooth="yes"/>
			<point x="290" y="-100"/>
			<point x="332" y="29"/>
			<point x="369" y="145" type="curve" smooth="yes"/>
			<point x="428" y="329"/>
			<point x="468" y="392"/>
			<point x="468" y="451" type="curve" smooth="yes"/>
			<point x="468" y="477"/>
			<point x="457" y="497"/>
			<point x="440" y="497" type="curve" smooth="yes"/>
			<point x="411" y="497"/>
			<point x="405" y="453"/>
			<point x="371" y="365" type="curve" smooth="yes"/>
			<point x="324" y="248"/>
			<point x="270" y="201"/>
			<point x="209" y="201" type="curve" smooth="yes"/>
			<point x="150" y="201"/>
			<point x="134" y="260"/>
			<point x="134" y="342" type="curve" smooth="yes"/>
			<point x="134" y="386"/>
			<point x="137" y="412"/>
			<point x="137" y="439" type="curve" smooth="yes"/>
			<point x="137" y="468"/>
			<point x="120" y="497"/>
			<point x="91" y="497" type="curve" smooth="yes"/>
			<point x="67" y="497"/>
			<point x="67" y="435"/>
			<point x="67" y="385" type="curve" smooth="yes"/>
			<point x="67" y="230"/>
			<point x="100" y="130"/>
			<point x="205" y="130" type="curve" smooth="yes"/>
			<point x="282" y="130"/>
			<point x="327" y="191"/>
			<point x="368" y="252" type="curve"/>
			<point x="333" y="256" type="line"/>
			<point x="312" y="157"/>
			<point x="225" y="-41"/>
			<point x="225" y="-193" type="curve" smooth="yes"/>
			<point x="225" y="-235"/>
			<point x="243" y="-263"/>
		</contour>
		<contour>
			<point x="441" y="-2" type="curve" smooth="yes"/>
			<point x="466" y="-2"/>
			<point x="478" y="5"/>
			<point x="478" y="15" type="curve" smooth="yes"/>
			<point x="478" y="34"/>
			<point x="450" y="52"/>
			<point x="398" y="52" type="curve" smooth="yes"/>
			<point x="354" y="52"/>
			<point x="229" y="64"/>
			<point x="109" y="64" type="curve" smooth="yes"/>
			<point x="80" y="64"/>
			<point x="61" y="57"/>
			<point x="61" y="44" type="curve" smooth="yes"/>
			<point x="61" y="26"/>
			<point x="76" y="7"/>
			<point x="121" y="7" type="curve" smooth="yes"/>
			<point x="267" y="7"/>
			<point x="357" y="-2"/>
		</contour>
	</outline>
</glyph>
<glyph name="xatailcyr" format="2">
	<advance width="542" height="0"/>
	<unicode hex="04B3"/>
	<guideline x="86.54" y="263.46" angle="90" name=" [#GUBu2fdSLX]"/>
	<guideline x="89.9" y="278.36" angle="90" name=" [#fGabLEmAux]"/>
	<outline>
		<contour>
			<point x="485" y="-141" type="curve" smooth="yes"/>
			<point x="498" y="-141"/>
			<point x="507" y="-125"/>
			<point x="509" y="-99" type="curve" smooth="yes"/>
			<point x="514" y="-30"/>
			<point x="529" y="25"/>
			<point x="529" y="58" type="curve" smooth="yes"/>
			<point x="529" y="82"/>
			<point x="515" y="92"/>
			<point x="505" y="92" type="curve" smooth="yes"/>
			<point x="480" y="92"/>
			<point x="462" y="57"/>
			<point x="453" y="57" type="curve" smooth="yes"/>
			<point x="432" y="57"/>
			<point x="363" y="106"/>
			<point x="264" y="237" type="curve" smooth="yes"/>
			<point x="158" y="370"/>
			<point x="110" y="490"/>
			<point x="84" y="490" type="curve" smooth="yes"/>
			<point x="67" y="490"/>
			<point x="57" y="474"/>
			<point x="57" y="454" type="curve" smooth="yes"/>
			<point x="57" y="409"/>
			<point x="170" y="249"/>
			<point x="220" y="187" type="curve" smooth="yes"/>
			<point x="287" y="105"/>
			<point x="381" y="-6"/>
			<point x="445" y="-6" type="curve" smooth="yes"/>
			<point x="464" y="-6"/>
			<point x="476" y="3"/>
			<point x="493" y="21" type="curve"/>
			<point x="472" y="29" type="line"/>
			<point x="450" y="-19"/>
			<point x="447" y="-65"/>
			<point x="447" y="-87" type="curve" smooth="yes"/>
			<point x="447" y="-110"/>
			<point x="459" y="-141"/>
		</contour>
		<contour>
			<point x="56" y="-13" type="curve" smooth="yes"/>
			<point x="67" y="-13"/>
			<point x="81" y="-2"/>
			<point x="90" y="16" type="curve" smooth="yes"/>
			<point x="170" y="175"/>
			<point x="314" y="327"/>
			<point x="456" y="426" type="curve" smooth="yes"/>
			<point x="479" y="442"/>
			<point x="488" y="454"/>
			<point x="488" y="470" type="curve" smooth="yes"/>
			<point x="488" y="487"/>
			<point x="479" y="497"/>
			<point x="464" y="497" type="curve" smooth="yes"/>
			<point x="441" y="497"/>
			<point x="405" y="482"/>
			<point x="347" y="428" type="curve" smooth="yes"/>
			<point x="188" y="282"/>
			<point x="66" y="127"/>
			<point x="38" y="58" type="curve" smooth="yes"/>
			<point x="31" y="41"/>
			<point x="29" y="29"/>
			<point x="29" y="20" type="curve" smooth="yes"/>
			<point x="29" y="-5"/>
			<point x="41" y="-13"/>
		</contour>
	</outline>
</glyph>
<glyph name="chetailcyr" format="2">
	<advance width="573" height="0"/>
	<unicode hex="04B7"/>
	<guideline x="411.06" y="247.6" angle="90" name=" [#GGEFes61Q6]"/>
	<guideline x="444.71" y="249.04" angle="90" name=" [#RDFBihUABo]"/>
	<guideline x="411.06" y="247.6" angle="90" name=" [#idJrD5E4hT]"/>
	<guideline x="420.67" y="265.39" angle="90" name=" [#g5R8C5mRAs]"/>
	<guideline x="411.06" y="247.6" angle="90" name=" [#gqaqriYRaR]"/>
	<guideline x="420.67" y="265.39" angle="90" name=" [#50BbntIidL]"/>
	<guideline x="86.54" y="263.46" angle="90" name=" [#uTAKow8vGg]"/>
	<guideline x="89.9" y="278.36" angle="90" name=" [#eSEch0ZVDi]"/>
	<outline>
		<contour>
			<point x="506" y="-141" type="curve" smooth="yes"/>
			<point x="520" y="-141"/>
			<point x="530" y="-125"/>
			<point x="532" y="-99" type="curve" smooth="yes"/>
			<point x="537" y="-34"/>
			<point x="558" y="19"/>
			<point x="558" y="51" type="curve" smooth="yes"/>
			<point x="558" y="75"/>
			<point x="544" y="85"/>
			<point x="534" y="85" type="curve" smooth="yes"/>
			<point x="513" y="85"/>
			<point x="494" y="56"/>
			<point x="466" y="56" type="curve" smooth="yes"/>
			<point x="437" y="56"/>
			<point x="422" y="125"/>
			<point x="422" y="233" type="curve" smooth="yes"/>
			<point x="422" y="288"/>
			<point x="445" y="387"/>
			<point x="445" y="429" type="curve" smooth="yes"/>
			<point x="445" y="469"/>
			<point x="424" y="497"/>
			<point x="405" y="497" type="curve" smooth="yes"/>
			<point x="385" y="497"/>
			<point x="381" y="471"/>
			<point x="377" y="431" type="curve" smooth="yes"/>
			<point x="373" y="383"/>
			<point x="357" y="272"/>
			<point x="357" y="207" type="curve" smooth="yes"/>
			<point x="357" y="64"/>
			<point x="393" y="-8"/>
			<point x="453" y="-8" type="curve" smooth="yes"/>
			<point x="479" y="-8"/>
			<point x="496" y="1"/>
			<point x="517" y="21" type="curve"/>
			<point x="504" y="39" type="line"/>
			<point x="482" y="-5"/>
			<point x="470" y="-66"/>
			<point x="470" y="-90" type="curve" smooth="yes"/>
			<point x="470" y="-113"/>
			<point x="481" y="-141"/>
		</contour>
		<contour>
			<point x="164" y="154" type="curve" smooth="yes"/>
			<point x="254" y="154"/>
			<point x="353" y="240"/>
			<point x="397" y="334" type="curve"/>
			<point x="377" y="427" type="line"/>
			<point x="364" y="335"/>
			<point x="253" y="227"/>
			<point x="157" y="227" type="curve" smooth="yes"/>
			<point x="128" y="227"/>
			<point x="119" y="275"/>
			<point x="119" y="317" type="curve" smooth="yes"/>
			<point x="119" y="400"/>
			<point x="148" y="445"/>
			<point x="148" y="474" type="curve" smooth="yes"/>
			<point x="148" y="490"/>
			<point x="140" y="499"/>
			<point x="126" y="499" type="curve" smooth="yes"/>
			<point x="81" y="499"/>
			<point x="48" y="390"/>
			<point x="48" y="304" type="curve" smooth="yes"/>
			<point x="48" y="217"/>
			<point x="88" y="154"/>
		</contour>
	</outline>
</glyph>
<glyph name="Shhacyr" format="2">
	<advance width="642" height="0"/>
	<unicode hex="04BA"/>
	<outline>
		<contour>
			<point x="571" y="-7" type="curve" smooth="yes"/>
			<point x="585" y="-7"/>
			<point x="593" y="0"/>
			<point x="593" y="15" type="curve" smooth="yes"/>
			<point x="593" y="42"/>
			<point x="567" y="81"/>
			<point x="561" y="135" type="curve" smooth="yes"/>
			<point x="555" y="190"/>
			<point x="556" y="292"/>
			<point x="551" y="358" type="curve" smooth="yes"/>
			<point x="545" y="427"/>
			<point x="511" y="481"/>
			<point x="446" y="481" type="curve" smooth="yes"/>
			<point x="310" y="481"/>
			<point x="216" y="337"/>
			<point x="131" y="122" type="curve"/>
			<point x="143" y="109" type="line"/>
			<point x="145" y="122"/>
			<point x="169" y="297"/>
			<point x="169" y="473" type="curve" smooth="yes"/>
			<point x="169" y="529"/>
			<point x="167" y="594"/>
			<point x="154" y="653" type="curve" smooth="yes"/>
			<point x="146" y="690"/>
			<point x="132" y="708"/>
			<point x="110" y="708" type="curve" smooth="yes"/>
			<point x="99" y="708"/>
			<point x="90" y="683"/>
			<point x="90" y="646" type="curve" smooth="yes"/>
			<point x="90" y="610"/>
			<point x="101" y="538"/>
			<point x="101" y="437" type="curve" smooth="yes"/>
			<point x="101" y="318"/>
			<point x="83" y="160"/>
			<point x="83" y="73" type="curve" smooth="yes"/>
			<point x="83" y="27"/>
			<point x="100" y="-6"/>
			<point x="120" y="-6" type="curve" smooth="yes"/>
			<point x="158" y="-6"/>
			<point x="160" y="41"/>
			<point x="199" y="138" type="curve" smooth="yes"/>
			<point x="270" y="311"/>
			<point x="366" y="413"/>
			<point x="428" y="413" type="curve" smooth="yes"/>
			<point x="472" y="413"/>
			<point x="481" y="363"/>
			<point x="483" y="303" type="curve" smooth="yes"/>
			<point x="485" y="237"/>
			<point x="488" y="118"/>
			<point x="500" y="69" type="curve" smooth="yes"/>
			<point x="511" y="23"/>
			<point x="540" y="-7"/>
		</contour>
	</outline>
</glyph>
<glyph name="Zhebrevecyr" format="2">
	<advance width="896" height="0"/>
	<unicode hex="04C1"/>
	<anchor x="436" y="700" name="top"/>
	<outline>
		<contour>
			<point x="448" y="765" type="curve" smooth="yes"/>
			<point x="544" y="765"/>
			<point x="619" y="826"/>
			<point x="619" y="858" type="curve" smooth="yes"/>
			<point x="619" y="872"/>
			<point x="610" y="886"/>
			<point x="592" y="886" type="curve" smooth="yes"/>
			<point x="573" y="886"/>
			<point x="555" y="870"/>
			<point x="534" y="855" type="curve" smooth="yes"/>
			<point x="506" y="835"/>
			<point x="484" y="825"/>
			<point x="453" y="825" type="curve" smooth="yes"/>
			<point x="421" y="825"/>
			<point x="398" y="850"/>
			<point x="378" y="875" type="curve" smooth="yes"/>
			<point x="362" y="896"/>
			<point x="351" y="918"/>
			<point x="325" y="918" type="curve" smooth="yes"/>
			<point x="303" y="918"/>
			<point x="291" y="902"/>
			<point x="291" y="883" type="curve" smooth="yes"/>
			<point x="291" y="846"/>
			<point x="349" y="765"/>
		</contour>
		<component base="Zhecyr"/>
	</outline>
</glyph>
<glyph name="chekhakascyr" format="2">
	<advance width="516" height="0"/>
	<unicode hex="04CC"/>
	<outline>
		<contour>
			<point x="350" y="-141" type="curve" smooth="yes"/>
			<point x="366" y="-141"/>
			<point x="371" y="-123"/>
			<point x="371" y="-109" type="curve" smooth="yes"/>
			<point x="371" y="-86.688"/>
			<point x="369" y="-52.562"/>
			<point x="369" y="-25" type="curve" smooth="yes"/>
			<point x="369" y="-14"/>
			<point x="373" y="-5"/>
			<point x="397" y="0" type="curve" smooth="yes"/>
			<point x="422" y="8"/>
			<point x="438" y="21"/>
			<point x="438" y="51" type="curve" smooth="yes"/>
			<point x="438" y="84"/>
			<point x="425" y="149"/>
			<point x="425" y="224" type="curve" smooth="yes"/>
			<point x="425" y="282"/>
			<point x="445" y="385"/>
			<point x="445" y="429" type="curve" smooth="yes"/>
			<point x="445" y="469"/>
			<point x="424" y="497"/>
			<point x="405" y="497" type="curve" smooth="yes"/>
			<point x="385" y="497"/>
			<point x="381" y="471"/>
			<point x="377" y="431" type="curve" smooth="yes"/>
			<point x="373" y="387"/>
			<point x="357" y="284"/>
			<point x="357" y="224" type="curve" smooth="yes"/>
			<point x="357" y="147"/>
			<point x="364" y="54"/>
			<point x="384" y="7" type="curve"/>
			<point x="381" y="65" type="line"/>
			<point x="346" y="58"/>
			<point x="322" y="49"/>
			<point x="315" y="36" type="curve" smooth="yes"/>
			<point x="305" y="11.795"/>
			<point x="305" y="-26.425"/>
			<point x="305" y="-57" type="curve" smooth="yes"/>
			<point x="305" y="-102"/>
			<point x="320" y="-141"/>
		</contour>
		<contour>
			<point x="164" y="154" type="curve" smooth="yes"/>
			<point x="254" y="154"/>
			<point x="353" y="240"/>
			<point x="397" y="334" type="curve"/>
			<point x="377" y="427" type="line"/>
			<point x="364" y="335"/>
			<point x="253" y="227"/>
			<point x="157" y="227" type="curve" smooth="yes"/>
			<point x="128" y="227"/>
			<point x="119" y="275"/>
			<point x="119" y="317" type="curve" smooth="yes"/>
			<point x="119" y="400"/>
			<point x="148" y="445"/>
			<point x="148" y="474" type="curve" smooth="yes"/>
			<point x="148" y="490"/>
			<point x="140" y="499"/>
			<point x="126" y="499" type="curve" smooth="yes"/>
			<point x="81" y="499"/>
			<point x="48" y="390"/>
			<point x="48" y="304" type="curve" smooth="yes"/>
			<point x="48" y="217"/>
			<point x="88" y="154"/>
		</contour>
	</outline>
</glyph>
<glyph name="Schwacyr" format="2">
	<advance width="669" height="0"/>
	<unicode hex="04D8"/>
	<guideline x="537.5" y="632.69" angle="90" name=" [#Ovo68woMtl]"/>
	<guideline x="-165.38" y="348.08" angle="90" name=" [#z0dkOIsaat]"/>
	<guideline x="537.5" y="632.69" angle="90" name=" [#04COhzMve8]"/>
	<guideline x="-165.38" y="348.08" angle="90" name=" [#MfRpKxGlT6]"/>
	<guideline x="105.29" y="510.58" angle="90" name=" [#IMRKYFwy3a]"/>
	<outline>
		<contour>
			<point x="274" y="-10" type="curve" smooth="yes"/>
			<point x="441" y="-10"/>
			<point x="589" y="145"/>
			<point x="589" y="403" type="curve" smooth="yes"/>
			<point x="589" y="564"/>
			<point x="512" y="707"/>
			<point x="326" y="707" type="curve" smooth="yes"/>
			<point x="166" y="707"/>
			<point x="85" y="612"/>
			<point x="85" y="583" type="curve" smooth="yes"/>
			<point x="85" y="572"/>
			<point x="93" y="562"/>
			<point x="105" y="562" type="curve" smooth="yes"/>
			<point x="135" y="562"/>
			<point x="198" y="649"/>
			<point x="323" y="649" type="curve" smooth="yes"/>
			<point x="431" y="649"/>
			<point x="522" y="573"/>
			<point x="522" y="395" type="curve" smooth="yes"/>
			<point x="522" y="189"/>
			<point x="406" y="52"/>
			<point x="276" y="52" type="curve" smooth="yes"/>
			<point x="171" y="52"/>
			<point x="124" y="115"/>
			<point x="124" y="203" type="curve" smooth="yes"/>
			<point x="124" y="357"/>
			<point x="286" y="406"/>
			<point x="561" y="406" type="curve" smooth="yes"/>
			<point x="634" y="406"/>
			<point x="645" y="413"/>
			<point x="645" y="429" type="curve" smooth="yes"/>
			<point x="645" y="449"/>
			<point x="613" y="467"/>
			<point x="559" y="467" type="curve" smooth="yes"/>
			<point x="269" y="467"/>
			<point x="55" y="415"/>
			<point x="55" y="196" type="curve" smooth="yes"/>
			<point x="55" y="96"/>
			<point x="120" y="-10"/>
		</contour>
	</outline>
</glyph>
<glyph name="schwacyr" format="2">
	<advance width="558" height="0"/>
	<unicode hex="04D9"/>
	<outline>
		<contour>
			<point x="258" y="-10" type="curve" smooth="yes"/>
			<point x="414" y="-10"/>
			<point x="510" y="107"/>
			<point x="510" y="258" type="curve" smooth="yes"/>
			<point x="510" y="369"/>
			<point x="453" y="496"/>
			<point x="278" y="496" type="curve" smooth="yes"/>
			<point x="157" y="496"/>
			<point x="73" y="434"/>
			<point x="73" y="402" type="curve" smooth="yes"/>
			<point x="73" y="389"/>
			<point x="81" y="378"/>
			<point x="95" y="378" type="curve" smooth="yes"/>
			<point x="124" y="378"/>
			<point x="174" y="437"/>
			<point x="278" y="437" type="curve" smooth="yes"/>
			<point x="416" y="437"/>
			<point x="441" y="318"/>
			<point x="441" y="264" type="curve" smooth="yes"/>
			<point x="441" y="121"/>
			<point x="360" y="53"/>
			<point x="261" y="53" type="curve" smooth="yes"/>
			<point x="177" y="53"/>
			<point x="137" y="103"/>
			<point x="137" y="152" type="curve" smooth="yes"/>
			<point x="137" y="202"/>
			<point x="182" y="241"/>
			<point x="284" y="241" type="curve" smooth="yes"/>
			<point x="380" y="241"/>
			<point x="426" y="220"/>
			<point x="449" y="220" type="curve" smooth="yes"/>
			<point x="467" y="220"/>
			<point x="478" y="234"/>
			<point x="478" y="245" type="curve" smooth="yes"/>
			<point x="478" y="270"/>
			<point x="404" y="297"/>
			<point x="290" y="297" type="curve" smooth="yes"/>
			<point x="165" y="297"/>
			<point x="64" y="255"/>
			<point x="64" y="151" type="curve" smooth="yes"/>
			<point x="64" y="53"/>
			<point x="150" y="-10"/>
		</contour>
	</outline>
</glyph>
<glyph name="obarcyr" format="2">
	<advance width="610" height="0"/>
	<unicode hex="04E9"/>
	<guideline x="86.54" y="263.46" angle="90" name=" [#CB8mICpc1y]"/>
	<guideline x="89.9" y="278.36" angle="90" name=" [#ESe4gH2bJH]"/>
	<anchor x="309" y="515" name="top"/>
	<outline>
		<contour>
			<point x="315" y="-12" type="curve" smooth="yes"/>
			<point x="440" y="-12"/>
			<point x="535" y="99"/>
			<point x="535" y="246" type="curve" smooth="yes"/>
			<point x="535" y="404"/>
			<point x="453" y="494"/>
			<point x="321" y="494" type="curve" smooth="yes"/>
			<point x="234" y="494"/>
			<point x="161" y="441"/>
			<point x="161" y="387" type="curve" smooth="yes"/>
			<point x="161" y="367"/>
			<point x="166" y="358"/>
			<point x="184" y="358" type="curve" smooth="yes"/>
			<point x="201" y="358"/>
			<point x="215" y="387"/>
			<point x="240" y="407" type="curve" smooth="yes"/>
			<point x="262" y="425"/>
			<point x="284" y="434"/>
			<point x="329" y="434" type="curve" smooth="yes"/>
			<point x="415" y="434"/>
			<point x="468" y="374"/>
			<point x="468" y="253" type="curve" smooth="yes"/>
			<point x="468" y="129"/>
			<point x="407" y="48"/>
			<point x="312" y="48" type="curve" smooth="yes"/>
			<point x="202" y="48"/>
			<point x="132" y="124"/>
			<point x="132" y="243" type="curve" smooth="yes"/>
			<point x="132" y="310"/>
			<point x="158" y="359"/>
			<point x="228" y="405" type="curve" smooth="yes"/>
			<point x="255" y="422"/>
			<point x="260" y="436"/>
			<point x="260" y="458" type="curve" smooth="yes"/>
			<point x="260" y="474"/>
			<point x="250" y="479"/>
			<point x="235" y="479" type="curve" smooth="yes"/>
			<point x="193" y="479"/>
			<point x="65" y="390"/>
			<point x="65" y="236" type="curve" smooth="yes"/>
			<point x="65" y="92"/>
			<point x="169" y="-12"/>
		</contour>
		<contour>
			<point x="523" y="202" type="curve" smooth="yes"/>
			<point x="546" y="202"/>
			<point x="559" y="209"/>
			<point x="559" y="222" type="curve" smooth="yes"/>
			<point x="559" y="245"/>
			<point x="539" y="259"/>
			<point x="507" y="263" type="curve" smooth="yes"/>
			<point x="455" y="270"/>
			<point x="356" y="278"/>
			<point x="255" y="278" type="curve" smooth="yes"/>
			<point x="204" y="278"/>
			<point x="151" y="276"/>
			<point x="105" y="270" type="curve"/>
			<point x="105" y="208" type="line"/>
			<point x="154" y="216"/>
			<point x="205" y="219"/>
			<point x="255" y="219" type="curve" smooth="yes"/>
			<point x="375" y="219"/>
			<point x="485" y="202"/>
		</contour>
	</outline>
</glyph>
<glyph name="getailcyr" format="2">
	<advance width="422" height="0"/>
	<unicode hex="04F7"/>
	<outline>
		<contour>
			<point x="193" y="-141" type="curve" smooth="yes"/>
			<point x="206" y="-141"/>
			<point x="214" y="-131"/>
			<point x="217" y="-99" type="curve" smooth="yes"/>
			<point x="224" y="-25"/>
			<point x="235" y="3.79"/>
			<point x="235" y="40" type="curve" smooth="yes"/>
			<point x="235" y="64"/>
			<point x="221" y="74"/>
			<point x="211" y="74" type="curve" smooth="yes"/>
			<point x="191" y="74"/>
			<point x="173.839" y="56"/>
			<point x="147" y="56" type="curve" smooth="yes"/>
			<point x="126" y="56"/>
			<point x="132" y="142.297"/>
			<point x="132" y="226" type="curve" smooth="yes"/>
			<point x="132" y="326"/>
			<point x="135" y="387"/>
			<point x="142" y="440" type="curve"/>
			<point x="112" y="417" type="line"/>
			<point x="155" y="427"/>
			<point x="184" y="432"/>
			<point x="237" y="432" type="curve" smooth="yes"/>
			<point x="303" y="432"/>
			<point x="320" y="426"/>
			<point x="362" y="426" type="curve" smooth="yes"/>
			<point x="391" y="426"/>
			<point x="418" y="434"/>
			<point x="418" y="456" type="curve" smooth="yes"/>
			<point x="418" y="467"/>
			<point x="409" y="477"/>
			<point x="396" y="481" type="curve" smooth="yes"/>
			<point x="368" y="489"/>
			<point x="305" y="494"/>
			<point x="256" y="494" type="curve" smooth="yes"/>
			<point x="211" y="494"/>
			<point x="164" y="491"/>
			<point x="123" y="484" type="curve" smooth="yes"/>
			<point x="84" y="477"/>
			<point x="70" y="457"/>
			<point x="70" y="392" type="curve" smooth="yes"/>
			<point x="70" y="332.906"/>
			<point x="73" y="138"/>
			<point x="73" y="87" type="curve" smooth="yes"/>
			<point x="73" y="37"/>
			<point x="99" y="-6"/>
			<point x="139" y="-6" type="curve" smooth="yes"/>
			<point x="162" y="-6"/>
			<point x="176" y="-1"/>
			<point x="194" y="10" type="curve"/>
			<point x="179" y="39" type="line"/>
			<point x="163.471" y="-3.792"/>
			<point x="155" y="-55"/>
			<point x="155" y="-87" type="curve" smooth="yes"/>
			<point x="155" y="-110"/>
			<point x="167" y="-141"/>
		</contour>
	</outline>
</glyph>
<glyph name="quoteleft" format="2">
	<advance width="212" height="0"/>
	<unicode hex="2018"/>
	<outline>
		<contour>
			<point x="93" y="479" type="curve" smooth="yes"/>
			<point x="111" y="479"/>
			<point x="121" y="490"/>
			<point x="128" y="534" type="curve" smooth="yes"/>
			<point x="136" y="592"/>
			<point x="160" y="662"/>
			<point x="217" y="730" type="curve" smooth="yes"/>
			<point x="238" y="755"/>
			<point x="241" y="763"/>
			<point x="241" y="772" type="curve" smooth="yes"/>
			<point x="241.974" y="788.55"/>
			<point x="231.233" y="809"/>
			<point x="213" y="809" type="curve" smooth="yes"/>
			<point x="195" y="809"/>
			<point x="182" y="803"/>
			<point x="153" y="766" type="curve" smooth="yes"/>
			<point x="97" y="694"/>
			<point x="60" y="601"/>
			<point x="60" y="527" type="curve" smooth="yes"/>
			<point x="60" y="501.667"/>
			<point x="73.2" y="479"/>
		</contour>
	</outline>
</glyph>
<glyph name="arrowup" format="2">
	<advance width="700" height="0"/>
	<unicode hex="2191"/>
	<guideline x="350" name=" [#www8zJhngq]"/>
	<outline>
		<contour>
			<point x="592" y="312" type="curve"/>
			<point x="615" y="312"/>
			<point x="626" y="329"/>
			<point x="626" y="351" type="curve" smooth="yes"/>
			<point x="626" y="366"/>
			<point x="624.477" y="372.36"/>
			<point x="615" y="397" type="curve" smooth="yes"/>
			<point x="570" y="513"/>
			<point x="463" y="655"/>
			<point x="381" y="698" type="curve" smooth="yes"/>
			<point x="360.735" y="709.146"/>
			<point x="352.048" y="710"/>
			<point x="343" y="710" type="curve" smooth="yes"/>
			<point x="331.71" y="710"/>
			<point x="324" y="709"/>
			<point x="306" y="692" type="curve" smooth="yes"/>
			<point x="232" y="627"/>
			<point x="144" y="497"/>
			<point x="109" y="421" type="curve" smooth="yes"/>
			<point x="96" y="394"/>
			<point x="94" y="386"/>
			<point x="94" y="378" type="curve" smooth="yes"/>
			<point x="94" y="356"/>
			<point x="112" y="342"/>
			<point x="130" y="342" type="curve" smooth="yes"/>
			<point x="144" y="342"/>
			<point x="151.785" y="351.47"/>
			<point x="165" y="379" type="curve" smooth="yes"/>
			<point x="202" y="460"/>
			<point x="277" y="579"/>
			<point x="363" y="650" type="curve"/>
			<point x="335" y="646" type="line"/>
			<point x="417" y="605"/>
			<point x="514" y="473"/>
			<point x="556" y="351" type="curve" smooth="yes"/>
			<point x="565.928" y="319.975"/>
			<point x="574" y="312"/>
		</contour>
		<contour>
			<point x="353" y="-9" type="curve" smooth="yes"/>
			<point x="368" y="-9"/>
			<point x="377" y="2"/>
			<point x="383" y="37" type="curve" smooth="yes"/>
			<point x="391" y="82"/>
			<point x="395" y="169"/>
			<point x="395" y="269" type="curve" smooth="yes"/>
			<point x="395" y="365"/>
			<point x="382.06" y="427.585"/>
			<point x="389" y="495" type="curve" smooth="yes"/>
			<point x="392" y="525"/>
			<point x="381" y="539"/>
			<point x="361" y="540" type="curve" smooth="yes"/>
			<point x="342" y="540"/>
			<point x="329" y="524"/>
			<point x="325" y="510" type="curve" smooth="yes"/>
			<point x="314" y="468"/>
			<point x="325" y="419"/>
			<point x="325" y="270" type="curve" smooth="yes"/>
			<point x="325" y="120.549"/>
			<point x="311" y="95.485"/>
			<point x="311" y="50" type="curve" smooth="yes"/>
			<point x="311" y="12.071"/>
			<point x="331" y="-9"/>
		</contour>
	</outline>
</glyph>
<glyph name="infinity" format="2">
	<advance width="900" height="0"/>
	<unicode hex="221E"/>
	<outline>
		<contour>
			<point x="667" y="115" type="curve" smooth="yes"/>
			<point x="757" y="114"/>
			<point x="838" y="174.714"/>
			<point x="838" y="335" type="curve" smooth="yes"/>
			<point x="838" y="504"/>
			<point x="734" y="568"/>
			<point x="639" y="568" type="curve" smooth="yes"/>
			<point x="531" y="568"/>
			<point x="463" y="499"/>
			<point x="418" y="373" type="curve" smooth="yes"/>
			<point x="373" y="246"/>
			<point x="324" y="203"/>
			<point x="245" y="203" type="curve" smooth="yes"/>
			<point x="170" y="203"/>
			<point x="121" y="260"/>
			<point x="121" y="340" type="curve" smooth="yes"/>
			<point x="121" y="392"/>
			<point x="132" y="426"/>
			<point x="149" y="453" type="curve"/>
			<point x="175" y="466"/>
			<point x="199" y="473"/>
			<point x="234" y="473" type="curve" smooth="yes"/>
			<point x="314" y="473"/>
			<point x="351" y="443"/>
			<point x="422" y="338" type="curve"/>
			<point x="455" y="393" type="line"/>
			<point x="406" y="488"/>
			<point x="352" y="537"/>
			<point x="245" y="537" type="curve" smooth="yes"/>
			<point x="133" y="537"/>
			<point x="56" y="474"/>
			<point x="56" y="341" type="curve" smooth="yes"/>
			<point x="56" y="195"/>
			<point x="151" y="141"/>
			<point x="241" y="141" type="curve" smooth="yes"/>
			<point x="338" y="141"/>
			<point x="410" y="181"/>
			<point x="464" y="324" type="curve" smooth="yes"/>
			<point x="522" y="478"/>
			<point x="569" y="506"/>
			<point x="642" y="506" type="curve" smooth="yes"/>
			<point x="715" y="506"/>
			<point x="773" y="443.905"/>
			<point x="773" y="335" type="curve" smooth="yes"/>
			<point x="773" y="227.426"/>
			<point x="732" y="181"/>
			<point x="662" y="181" type="curve" smooth="yes"/>
			<point x="589" y="181"/>
			<point x="544.277" y="222.895"/>
			<point x="468" y="365" type="curve"/>
			<point x="429" y="313" type="line"/>
			<point x="522.731" y="139.077"/>
			<point x="586.997" y="117"/>
		</contour>
	</outline>
</glyph>
<glyph name="circleblack" format="2">
	<advance width="800" height="0"/>
	<unicode hex="25CF"/>
	<outline>
		<contour>
			<point x="397" y="-10" type="curve" smooth="yes"/>
			<point x="606" y="-10"/>
			<point x="740" y="145"/>
			<point x="740" y="340" type="curve" smooth="yes"/>
			<point x="740" y="543"/>
			<point x="613" y="711"/>
			<point x="405" y="711" type="curve" smooth="yes"/>
			<point x="339" y="711"/>
			<point x="300" y="689"/>
			<point x="288" y="666" type="curve"/>
			<point x="210" y="632"/>
			<point x="60" y="508"/>
			<point x="60" y="320" type="curve" smooth="yes"/>
			<point x="60" y="129"/>
			<point x="175" y="-10"/>
		</contour>
	</outline>
</glyph>
<glyph name="openbullet" format="2">
	<advance width="500" height="0"/>
	<unicode hex="25E6"/>
	<outline>
		<contour>
			<point x="244" y="127" type="curve" smooth="yes"/>
			<point x="326" y="127"/>
			<point x="390" y="186"/>
			<point x="390" y="265" type="curve" smooth="yes"/>
			<point x="390" y="338"/>
			<point x="340" y="389"/>
			<point x="254" y="389" type="curve" smooth="yes"/>
			<point x="185" y="389"/>
			<point x="147" y="355"/>
			<point x="147" y="314" type="curve" smooth="yes"/>
			<point x="147" y="297"/>
			<point x="153" y="295"/>
			<point x="169" y="295" type="curve" smooth="yes"/>
			<point x="191" y="295"/>
			<point x="198" y="333"/>
			<point x="259" y="333" type="curve" smooth="yes"/>
			<point x="300" y="333"/>
			<point x="326" y="304"/>
			<point x="326" y="266" type="curve" smooth="yes"/>
			<point x="326" y="213"/>
			<point x="294" y="183"/>
			<point x="237" y="183" type="curve" smooth="yes"/>
			<point x="194" y="183"/>
			<point x="166" y="212"/>
			<point x="166" y="256" type="curve" smooth="yes"/>
			<point x="166" y="297"/>
			<point x="179" y="324"/>
			<point x="221" y="340" type="curve" smooth="yes"/>
			<point x="245" y="348"/>
			<point x="253" y="355"/>
			<point x="253" y="368" type="curve" smooth="yes"/>
			<point x="253" y="386"/>
			<point x="246" y="395"/>
			<point x="226" y="395" type="curve" smooth="yes"/>
			<point x="159" y="395"/>
			<point x="101" y="333"/>
			<point x="101" y="265" type="curve" smooth="yes"/>
			<point x="101" y="181"/>
			<point x="153" y="127"/>
		</contour>
	</outline>
</glyph>
<glyph name="heartwhite" format="2">
	<advance width="900" height="0"/>
	<unicode hex="2661"/>
	<outline>
		<contour>
			<point x="520" y="-14" type="curve" smooth="yes"/>
			<point x="672.91" y="-14"/>
			<point x="856" y="227.382"/>
			<point x="856" y="493" type="curve" smooth="yes"/>
			<point x="856" y="588.622"/>
			<point x="805.291" y="652"/>
			<point x="713" y="652" type="curve" smooth="yes"/>
			<point x="600" y="652"/>
			<point x="489" y="578"/>
			<point x="418" y="434" type="curve" smooth="yes"/>
			<point x="401" y="401"/>
			<point x="425.333" y="369"/>
			<point x="448" y="369" type="curve" smooth="yes"/>
			<point x="459.375" y="369"/>
			<point x="467" y="375"/>
			<point x="476" y="394" type="curve" smooth="yes"/>
			<point x="537" y="516"/>
			<point x="622" y="582"/>
			<point x="713" y="582" type="curve" smooth="yes"/>
			<point x="764" y="582"/>
			<point x="784" y="541.767"/>
			<point x="784" y="493" type="curve" smooth="yes"/>
			<point x="784" y="274.018"/>
			<point x="632" y="56"/>
			<point x="520" y="56" type="curve" smooth="yes"/>
			<point x="392" y="56"/>
			<point x="117" y="280"/>
			<point x="117" y="478" type="curve" smooth="yes"/>
			<point x="117" y="580"/>
			<point x="184" y="641"/>
			<point x="287" y="641" type="curve" smooth="yes"/>
			<point x="359" y="641"/>
			<point x="416" y="586"/>
			<point x="465" y="503" type="curve" smooth="yes"/>
			<point x="471" y="492"/>
			<point x="483" y="486"/>
			<point x="495" y="486" type="curve" smooth="yes"/>
			<point x="517" y="486"/>
			<point x="536" y="512"/>
			<point x="522" y="535" type="curve" smooth="yes"/>
			<point x="454" y="653"/>
			<point x="380" y="711"/>
			<point x="287" y="711" type="curve" smooth="yes"/>
			<point x="146" y="711"/>
			<point x="47" y="624"/>
			<point x="47" y="478" type="curve" smooth="yes"/>
			<point x="47" y="236"/>
			<point x="361" y="-14"/>
		</contour>
	</outline>
</glyph>
<glyph name="Ef-cy.loclBGR" format="2">
	<advance width="821" height="0"/>
	<outline>
		<contour>
			<point x="404" y="79" type="curve" smooth="yes"/>
			<point x="630" y="79"/>
			<point x="772" y="238"/>
			<point x="772" y="411" type="curve" smooth="yes"/>
			<point x="772" y="557"/>
			<point x="685" y="705"/>
			<point x="451" y="714" type="curve"/>
			<point x="435" y="656" type="line"/>
			<point x="605" y="653"/>
			<point x="700" y="567"/>
			<point x="700" y="404" type="curve" smooth="yes"/>
			<point x="700" y="253"/>
			<point x="586" y="142"/>
			<point x="404" y="142" type="curve" smooth="yes"/>
			<point x="234" y="142"/>
			<point x="130" y="234"/>
			<point x="130" y="382" type="curve" smooth="yes"/>
			<point x="130" y="527"/>
			<point x="216" y="634"/>
			<point x="420" y="650" type="curve"/>
			<point x="404" y="705" type="line"/>
			<point x="206" y="696"/>
			<point x="58" y="577"/>
			<point x="58" y="382" type="curve" smooth="yes"/>
			<point x="58" y="218"/>
			<point x="178" y="79"/>
		</contour>
		<contour>
			<point x="425" y="-35" type="curve" smooth="yes"/>
			<point x="440" y="-35"/>
			<point x="449" y="-26"/>
			<point x="449" y="-6" type="curve" smooth="yes"/>
			<point x="449" y="124"/>
			<point x="459" y="310"/>
			<point x="459" y="423" type="curve" smooth="yes"/>
			<point x="459" y="515"/>
			<point x="460" y="634"/>
			<point x="460" y="748" type="curve" smooth="yes"/>
			<point x="460" y="787"/>
			<point x="441" y="818"/>
			<point x="418" y="818" type="curve" smooth="yes"/>
			<point x="399" y="818"/>
			<point x="393" y="804"/>
			<point x="393" y="777" type="curve" smooth="yes"/>
			<point x="393" y="652"/>
			<point x="392" y="522"/>
			<point x="392" y="428" type="curve" smooth="yes"/>
			<point x="392" y="318"/>
			<point x="382" y="123"/>
			<point x="382" y="42" type="curve" smooth="yes"/>
			<point x="382" y="-5"/>
			<point x="399" y="-35"/>
		</contour>
	</outline>
</glyph>
<glyph name="Geupcyr.ss01" format="2">
	<advance width="486" height="0"/>
	<outline>
		<contour>
			<point x="446" y="586" type="curve" smooth="yes"/>
			<point x="469" y="586"/>
			<point x="481" y="604"/>
			<point x="481" y="631" type="curve" smooth="yes"/>
			<point x="481" y="658"/>
			<point x="468" y="777"/>
			<point x="465" y="791" type="curve" smooth="yes"/>
			<point x="462" y="806"/>
			<point x="450" y="816"/>
			<point x="437" y="816" type="curve" smooth="yes"/>
			<point x="419" y="816"/>
			<point x="412" y="807"/>
			<point x="408" y="794" type="curve" smooth="yes"/>
			<point x="403" y="778"/>
			<point x="405" y="721"/>
			<point x="405" y="684" type="curve"/>
			<point x="426" y="703" type="line"/>
			<point x="376" y="703"/>
			<point x="211" y="707"/>
			<point x="114" y="707" type="curve" smooth="yes"/>
			<point x="74" y="707"/>
			<point x="56" y="691"/>
			<point x="56" y="674" type="curve" smooth="yes"/>
			<point x="56" y="656"/>
			<point x="72" y="637"/>
			<point x="102" y="637" type="curve" smooth="yes"/>
			<point x="132" y="637"/>
			<point x="151" y="644"/>
			<point x="207" y="644" type="curve" smooth="yes"/>
			<point x="273" y="644"/>
			<point x="357" y="642"/>
			<point x="393" y="638" type="curve" smooth="yes"/>
			<point x="403" y="637"/>
			<point x="407" y="631"/>
			<point x="414" y="614" type="curve" smooth="yes"/>
			<point x="421" y="596"/>
			<point x="430" y="586"/>
		</contour>
		<contour>
			<point x="150" y="-8" type="curve" smooth="yes"/>
			<point x="169" y="-8"/>
			<point x="178" y="8"/>
			<point x="181" y="31" type="curve" smooth="yes"/>
			<point x="184" y="72"/>
			<point x="189" y="194"/>
			<point x="189" y="353" type="curve" smooth="yes"/>
			<point x="189" y="449"/>
			<point x="188" y="564"/>
			<point x="183" y="657" type="curve"/>
			<point x="109" y="652" type="line"/>
			<point x="117" y="556"/>
			<point x="119" y="446"/>
			<point x="119" y="350" type="curve" smooth="yes"/>
			<point x="119" y="205"/>
			<point x="109" y="86"/>
			<point x="109" y="57" type="curve" smooth="yes"/>
			<point x="109" y="24"/>
			<point x="126" y="-8"/>
		</contour>
	</outline>
</glyph>
<glyph name="Ghestroke-cy.loclBSH" format="2">
	<advance width="516" height="0"/>
	<outline>
		<contour>
			<point x="150" y="-8" type="curve" smooth="yes"/>
			<point x="169" y="-8"/>
			<point x="178" y="8"/>
			<point x="181" y="31" type="curve" smooth="yes"/>
			<point x="184" y="72"/>
			<point x="189" y="194"/>
			<point x="189" y="353" type="curve" smooth="yes"/>
			<point x="189" y="449"/>
			<point x="188" y="564"/>
			<point x="183" y="657" type="curve"/>
			<point x="109" y="652" type="line"/>
			<point x="117" y="556"/>
			<point x="119" y="446"/>
			<point x="119" y="350" type="curve" smooth="yes"/>
			<point x="119" y="205"/>
			<point x="109" y="86"/>
			<point x="109" y="57" type="curve" smooth="yes"/>
			<point x="109" y="24"/>
			<point x="126" y="-8"/>
		</contour>
		<contour>
			<point x="220" y="320" type="curve" smooth="yes"/>
			<point x="249" y="320"/>
			<point x="327" y="329"/>
			<point x="398" y="329" type="curve" smooth="yes"/>
			<point x="422" y="329"/>
			<point x="435" y="339"/>
			<point x="435" y="351" type="curve" smooth="yes"/>
			<point x="435" y="366"/>
			<point x="411" y="387"/>
			<point x="326" y="387" type="curve" smooth="yes"/>
			<point x="297" y="387"/>
			<point x="232" y="380"/>
			<point x="200" y="377" type="curve" smooth="yes"/>
			<point x="173" y="375"/>
			<point x="162" y="365"/>
			<point x="162" y="352" type="curve" smooth="yes"/>
			<point x="162" y="334"/>
			<point x="177" y="320"/>
		</contour>
		<contour>
			<point x="102" y="637" type="curve" smooth="yes"/>
			<point x="132" y="637"/>
			<point x="207" y="643"/>
			<point x="288" y="643" type="curve" smooth="yes"/>
			<point x="336" y="643"/>
			<point x="398" y="643"/>
			<point x="449" y="643" type="curve" smooth="yes"/>
			<point x="491" y="643"/>
			<point x="515" y="656"/>
			<point x="515" y="681" type="curve" smooth="yes"/>
			<point x="515" y="694"/>
			<point x="505" y="705"/>
			<point x="449" y="705" type="curve" smooth="yes"/>
			<point x="322" y="705"/>
			<point x="156" y="703"/>
			<point x="115" y="701" type="curve" smooth="yes"/>
			<point x="71" y="698"/>
			<point x="56" y="691"/>
			<point x="56" y="674" type="curve" smooth="yes"/>
			<point x="56" y="656"/>
			<point x="72" y="637"/>
		</contour>
	</outline>
</glyph>
<glyph name="braceleft.case" format="2">
	<advance width="462" height="0"/>
	<guideline x="338" y="780" angle="0" name=" [#ycUYvn9Hp7]"/>
	<guideline x="336" y="-80" angle="0" name=" [#6QTgGTsAZs]"/>
	<outline>
		<contour>
			<point x="414" y="-80" type="curve" smooth="yes"/>
			<point x="442" y="-80"/>
			<point x="459" y="-66"/>
			<point x="459" y="-46" type="curve" smooth="yes"/>
			<point x="459" y="-31"/>
			<point x="452" y="-22"/>
			<point x="425" y="-14" type="curve" smooth="yes"/>
			<point x="348" y="10"/>
			<point x="311" y="41"/>
			<point x="311" y="65" type="curve" smooth="yes"/>
			<point x="311" y="119.167"/>
			<point x="349" y="135.417"/>
			<point x="349" y="195" type="curve" smooth="yes"/>
			<point x="349" y="259"/>
			<point x="308" y="315"/>
			<point x="158" y="348" type="curve"/>
			<point x="157" y="324" type="line"/>
			<point x="265" y="361"/>
			<point x="313" y="413"/>
			<point x="314" y="465" type="curve" smooth="yes"/>
			<point x="314.936" y="528.67"/>
			<point x="282" y="560.503"/>
			<point x="282" y="612" type="curve" smooth="yes"/>
			<point x="282" y="656"/>
			<point x="340" y="691"/>
			<point x="422" y="709" type="curve" smooth="yes"/>
			<point x="447" y="715"/>
			<point x="459" y="721"/>
			<point x="459" y="735" type="curve" smooth="yes"/>
			<point x="459" y="760"/>
			<point x="442" y="780"/>
			<point x="414" y="780" type="curve" smooth="yes"/>
			<point x="377" y="780"/>
			<point x="212" y="723"/>
			<point x="212" y="615" type="curve" smooth="yes"/>
			<point x="212" y="557.961"/>
			<point x="244" y="525.234"/>
			<point x="244" y="471" type="curve" smooth="yes"/>
			<point x="244" y="425"/>
			<point x="158" y="385"/>
			<point x="78" y="360" type="curve" smooth="yes"/>
			<point x="61" y="355"/>
			<point x="53" y="347"/>
			<point x="53" y="332" type="curve" smooth="yes"/>
			<point x="53" y="310"/>
			<point x="63" y="295"/>
			<point x="83" y="292" type="curve" smooth="yes"/>
			<point x="200" y="276"/>
			<point x="279" y="250"/>
			<point x="279" y="199" type="curve" smooth="yes"/>
			<point x="279" y="142.806"/>
			<point x="241" y="123.355"/>
			<point x="241" y="65" type="curve" smooth="yes"/>
			<point x="241" y="-13"/>
			<point x="356" y="-80"/>
		</contour>
	</outline>
</glyph>
<glyph name="bracketleft.case" format="2">
	<advance width="385" height="0"/>
	<guideline x="358" y="780" angle="0" name=" [#2yvW44W7ha]"/>
	<guideline x="307" y="-80" angle="0" name=" [#76iHaa9Xtt]"/>
	<outline>
		<contour>
			<point x="156" y="-80" type="curve" smooth="yes"/>
			<point x="181" y="-80"/>
			<point x="221" y="-75"/>
			<point x="260" y="-75" type="curve" smooth="yes"/>
			<point x="320" y="-75"/>
			<point x="353" y="-63"/>
			<point x="353" y="-29" type="curve" smooth="yes"/>
			<point x="353" y="-14"/>
			<point x="344" y="-1"/>
			<point x="327" y="-1" type="curve" smooth="yes"/>
			<point x="316" y="-1"/>
			<point x="287" y="-7"/>
			<point x="263" y="-7" type="curve" smooth="yes"/>
			<point x="220" y="-7"/>
			<point x="181" y="-11"/>
			<point x="146" y="-13" type="curve"/>
			<point x="188" y="-27" type="line"/>
			<point x="151" y="70"/>
			<point x="155" y="218"/>
			<point x="159" y="293" type="curve" smooth="yes"/>
			<point x="164" y="386"/>
			<point x="149" y="614"/>
			<point x="166" y="727" type="curve"/>
			<point x="126" y="697" type="line"/>
			<point x="161" y="695"/>
			<point x="233" y="711"/>
			<point x="280" y="711" type="curve" smooth="yes"/>
			<point x="294" y="711"/>
			<point x="303" y="709"/>
			<point x="318" y="709" type="curve" smooth="yes"/>
			<point x="338" y="709"/>
			<point x="355" y="725"/>
			<point x="355" y="744" type="curve" smooth="yes"/>
			<point x="355" y="775"/>
			<point x="329" y="780"/>
			<point x="290" y="780" type="curve" smooth="yes"/>
			<point x="241" y="780"/>
			<point x="169" y="767"/>
			<point x="136" y="767" type="curve" smooth="yes"/>
			<point x="117" y="767"/>
			<point x="99" y="756"/>
			<point x="96" y="737" type="curve" smooth="yes"/>
			<point x="80" y="623"/>
			<point x="94" y="391"/>
			<point x="89" y="297" type="curve" smooth="yes"/>
			<point x="85" y="212"/>
			<point x="73" y="38"/>
			<point x="126" y="-61" type="curve" smooth="yes"/>
			<point x="132" y="-72"/>
			<point x="141" y="-80"/>
		</contour>
	</outline>
</glyph>
<glyph name="brevecomb-cy" format="2">
	<advance width="369" height="0"/>
	<anchor x="194" y="515" name="top"/>
	<outline>
		<contour>
			<point x="194" y="592" type="curve" smooth="yes"/>
			<point x="282" y="592"/>
			<point x="352" y="659"/>
			<point x="352" y="706" type="curve" smooth="yes"/>
			<point x="352" y="719"/>
			<point x="345" y="730"/>
			<point x="334" y="730" type="curve" smooth="yes"/>
			<point x="313" y="730"/>
			<point x="295" y="706"/>
			<point x="270" y="685" type="curve" smooth="yes"/>
			<point x="252" y="668"/>
			<point x="227" y="656"/>
			<point x="200" y="656" type="curve" smooth="yes"/>
			<point x="161" y="656"/>
			<point x="143" y="672"/>
			<point x="127" y="699" type="curve" smooth="yes"/>
			<point x="109" y="729"/>
			<point x="96" y="755"/>
			<point x="78" y="755" type="curve" smooth="yes"/>
			<point x="59" y="755"/>
			<point x="46" y="741"/>
			<point x="46" y="719" type="curve" smooth="yes"/>
			<point x="46" y="673"/>
			<point x="101" y="592"/>
		</contour>
	</outline>
</glyph>
<glyph name="brevehookabovecomb" format="2">
	<advance width="0" height="0"/>
	<anchor x="0" y="485" name="_top"/>
	<outline>
		<contour>
			<point x="-1" y="531" type="curve" smooth="yes"/>
			<point x="117" y="531"/>
			<point x="173" y="603"/>
			<point x="173" y="689" type="curve" smooth="yes"/>
			<point x="173" y="717"/>
			<point x="163" y="729"/>
			<point x="144" y="729" type="curve" smooth="yes"/>
			<point x="124" y="729"/>
			<point x="115" y="717"/>
			<point x="104" y="667" type="curve" smooth="yes"/>
			<point x="91" y="615"/>
			<point x="52" y="596"/>
			<point x="0" y="596" type="curve" smooth="yes"/>
			<point x="-49" y="596"/>
			<point x="-88" y="617"/>
			<point x="-98" y="666" type="curve" smooth="yes"/>
			<point x="-108" y="713"/>
			<point x="-118" y="724"/>
			<point x="-139" y="724" type="curve" smooth="yes"/>
			<point x="-162" y="724"/>
			<point x="-174" y="711"/>
			<point x="-174" y="671" type="curve" smooth="yes"/>
			<point x="-174" y="598"/>
			<point x="-115" y="531"/>
		</contour>
		<contour>
			<point x="-11" y="711" type="curve" smooth="yes"/>
			<point x="55.419" y="711"/>
			<point x="108" y="749.039"/>
			<point x="108" y="808" type="curve" smooth="yes"/>
			<point x="108" y="867.103"/>
			<point x="66.853" y="910"/>
			<point x="-3" y="910" type="curve" smooth="yes"/>
			<point x="-74" y="910"/>
			<point x="-109" y="885"/>
			<point x="-109" y="857" type="curve" smooth="yes"/>
			<point x="-109" y="843"/>
			<point x="-101" y="833"/>
			<point x="-80" y="833" type="curve" smooth="yes"/>
			<point x="-60" y="833"/>
			<point x="-47" y="845"/>
			<point x="-7" y="845" type="curve" smooth="yes"/>
			<point x="23.6" y="845"/>
			<point x="38" y="831.829"/>
			<point x="38" y="809" type="curve" smooth="yes"/>
			<point x="38" y="754.867"/>
			<point x="-51" y="778.2"/>
			<point x="-51" y="739" type="curve" smooth="yes"/>
			<point x="-51" y="724"/>
			<point x="-40" y="711"/>
		</contour>
	</outline>
</glyph>
<glyph name="five.pnum" format="2">
	<advance width="609" height="0"/>
	<outline>
		<contour>
			<point x="215" y="-12" type="curve" smooth="yes"/>
			<point x="414" y="-12"/>
			<point x="544" y="102"/>
			<point x="544" y="243" type="curve" smooth="yes"/>
			<point x="544" y="319"/>
			<point x="501" y="376"/>
			<point x="324" y="412" type="curve" smooth="yes"/>
			<point x="152" y="448"/>
			<point x="147" y="457"/>
			<point x="147" y="489" type="curve" smooth="yes"/>
			<point x="147" y="527"/>
			<point x="157" y="586"/>
			<point x="193" y="666" type="curve"/>
			<point x="133" y="635" type="line"/>
			<point x="290" y="632"/>
			<point x="352" y="651"/>
			<point x="484" y="651" type="curve" smooth="yes"/>
			<point x="513" y="651"/>
			<point x="528" y="659"/>
			<point x="528" y="678" type="curve" smooth="yes"/>
			<point x="528" y="698"/>
			<point x="511" y="716"/>
			<point x="458" y="716" type="curve" smooth="yes"/>
			<point x="358" y="716"/>
			<point x="307" y="700"/>
			<point x="173" y="700" type="curve" smooth="yes"/>
			<point x="142" y="700"/>
			<point x="123" y="683"/>
			<point x="110" y="641" type="curve" smooth="yes"/>
			<point x="89" y="571"/>
			<point x="80" y="520"/>
			<point x="80" y="483" type="curve" smooth="yes"/>
			<point x="80" y="414"/>
			<point x="93" y="394"/>
			<point x="288" y="354" type="curve" smooth="yes"/>
			<point x="397" y="331"/>
			<point x="477" y="304"/>
			<point x="477" y="239" type="curve" smooth="yes"/>
			<point x="477" y="122"/>
			<point x="357" y="53"/>
			<point x="202" y="53" type="curve" smooth="yes"/>
			<point x="123" y="53"/>
			<point x="137" y="111"/>
			<point x="100" y="111" type="curve" smooth="yes"/>
			<point x="80" y="111"/>
			<point x="68" y="98"/>
			<point x="68" y="78" type="curve" smooth="yes"/>
			<point x="68" y="27"/>
			<point x="117" y="-12"/>
		</contour>
	</outline>
</glyph>
<glyph name="ghestroke-cy.loclBSH" format="2">
	<advance width="422" height="0"/>
	<outline>
		<contour>
			<point x="125" y="-10" type="curve" smooth="yes"/>
			<point x="136" y="-10"/>
			<point x="144" y="-2"/>
			<point x="144" y="14" type="curve" smooth="yes"/>
			<point x="144" y="27"/>
			<point x="132" y="121"/>
			<point x="132" y="226" type="curve" smooth="yes"/>
			<point x="132" y="326"/>
			<point x="135" y="387"/>
			<point x="142" y="440" type="curve"/>
			<point x="112" y="417" type="line"/>
			<point x="155" y="427"/>
			<point x="184" y="432"/>
			<point x="237" y="432" type="curve" smooth="yes"/>
			<point x="303" y="432"/>
			<point x="320" y="426"/>
			<point x="362" y="426" type="curve" smooth="yes"/>
			<point x="391" y="426"/>
			<point x="418" y="434"/>
			<point x="418" y="456" type="curve" smooth="yes"/>
			<point x="418" y="467"/>
			<point x="409" y="477"/>
			<point x="396" y="481" type="curve" smooth="yes"/>
			<point x="368" y="489"/>
			<point x="305" y="494"/>
			<point x="256" y="494" type="curve" smooth="yes"/>
			<point x="211" y="494"/>
			<point x="164" y="491"/>
			<point x="123" y="484" type="curve" smooth="yes"/>
			<point x="84" y="477"/>
			<point x="70" y="457"/>
			<point x="70" y="392" type="curve" smooth="yes"/>
			<point x="70" y="330"/>
			<point x="69" y="124"/>
			<point x="75" y="72" type="curve" smooth="yes"/>
			<point x="81" y="19"/>
			<point x="99" y="-10"/>
		</contour>
		<contour>
			<point x="117" y="210" type="curve" smooth="yes"/>
			<point x="142" y="210"/>
			<point x="181" y="220"/>
			<point x="293" y="220" type="curve" smooth="yes"/>
			<point x="312" y="220"/>
			<point x="324" y="228"/>
			<point x="324" y="243" type="curve" smooth="yes"/>
			<point x="324" y="256"/>
			<point x="310" y="276"/>
			<point x="267" y="276" type="curve" smooth="yes"/>
			<point x="214" y="276"/>
			<point x="165" y="273"/>
			<point x="110" y="268" type="curve" smooth="yes"/>
			<point x="84" y="266"/>
			<point x="77" y="252"/>
			<point x="77" y="242" type="curve" smooth="yes"/>
			<point x="77" y="226"/>
			<point x="87" y="210"/>
		</contour>
	</outline>
</glyph>
<glyph name="gmtrdiamondblack" format="2">
	<advance width="750" height="0"/>
	<guideline x="375" name=" [#ruMn7wKf1a]"/>
	<guideline y="350" name="capCenter [#tGR09hhEDS]"/>
	<outline>
		<contour>
			<point x="370" y="-10" type="curve" smooth="yes"/>
			<point x="379" y="-10"/>
			<point x="388" y="-7"/>
			<point x="400" y="6" type="curve" smooth="yes"/>
			<point x="480" y="92"/>
			<point x="581" y="187"/>
			<point x="667" y="277" type="curve" smooth="yes"/>
			<point x="700" y="314"/>
			<point x="726" y="322"/>
			<point x="726" y="350" type="curve" smooth="yes"/>
			<point x="726" y="360"/>
			<point x="722" y="370"/>
			<point x="716" y="376" type="curve" smooth="yes"/>
			<point x="634" y="466"/>
			<point x="512" y="567"/>
			<point x="401" y="695" type="curve" smooth="yes"/>
			<point x="393" y="704"/>
			<point x="383" y="709"/>
			<point x="373" y="709" type="curve" smooth="yes"/>
			<point x="365" y="709"/>
			<point x="357" y="705"/>
			<point x="350" y="698" type="curve" smooth="yes"/>
			<point x="248" y="596"/>
			<point x="121" y="463"/>
			<point x="46" y="388" type="curve" smooth="yes"/>
			<point x="30.228" y="372.228"/>
			<point x="25" y="362.584"/>
			<point x="25" y="349" type="curve" smooth="yes"/>
			<point x="25" y="343"/>
			<point x="27" y="336"/>
			<point x="34" y="327" type="curve" smooth="yes"/>
			<point x="100" y="239"/>
			<point x="270" y="54"/>
			<point x="343" y="-1" type="curve" smooth="yes"/>
			<point x="350" y="-6"/>
			<point x="358" y="-10"/>
		</contour>
	</outline>
</glyph>
<glyph name="hyphen.line" format="2">
	<advance width="471" height="0"/>
	<outline>
		<contour>
			<point x="0" y="226" type="curve" smooth="yes"/>
			<point x="76" y="230"/>
			<point x="174" y="219"/>
			<point x="471" y="226" type="curve" smooth="yes"/>
			<point x="508" y="227"/>
			<point x="521" y="235"/>
			<point x="521" y="252" type="curve" smooth="yes"/>
			<point x="521" y="272"/>
			<point x="509" y="290"/>
			<point x="471" y="289" type="curve" smooth="yes"/>
			<point x="265" y="283"/>
			<point x="164.852" y="295.994"/>
			<point x="0" y="289" type="curve" smooth="yes"/>
			<point x="-40.015" y="287.333"/>
			<point x="-50" y="275"/>
			<point x="-50" y="259" type="curve" smooth="yes"/>
			<point x="-50" y="239"/>
			<point x="-34.185" y="224.332"/>
		</contour>
	</outline>
</glyph>
<glyph name="sha-cy.loclBGR" format="2">
	<advance width="944" height="0"/>
	<outline>
		<contour>
			<point x="504" y="-13" type="curve" smooth="yes"/>
			<point x="614" y="-13"/>
			<point x="720" y="184"/>
			<point x="776" y="360" type="curve"/>
			<point x="757" y="367" type="line"/>
			<point x="751" y="258"/>
			<point x="774" y="133"/>
			<point x="809" y="46" type="curve" smooth="yes"/>
			<point x="823" y="14"/>
			<point x="840" y="-9"/>
			<point x="863" y="-9" type="curve" smooth="yes"/>
			<point x="877" y="-9"/>
			<point x="895" y="4"/>
			<point x="895" y="20" type="curve" smooth="yes"/>
			<point x="895" y="28"/>
			<point x="892" y="36"/>
			<point x="887" y="46" type="curve" smooth="yes"/>
			<point x="833" y="154"/>
			<point x="823" y="282"/>
			<point x="823" y="435" type="curve" smooth="yes"/>
			<point x="823" y="464"/>
			<point x="805" y="492"/>
			<point x="785" y="492" type="curve" smooth="yes"/>
			<point x="772" y="492"/>
			<point x="760" y="479"/>
			<point x="748" y="451" type="curve" smooth="yes"/>
			<point x="737" y="423"/>
			<point x="703" y="318"/>
			<point x="660" y="229" type="curve" smooth="yes"/>
			<point x="599" y="106"/>
			<point x="534" y="48"/>
			<point x="488" y="46" type="curve"/>
			<point x="515" y="36" type="line"/>
			<point x="488" y="80"/>
			<point x="481" y="137"/>
			<point x="481" y="197" type="curve" smooth="yes"/>
			<point x="481" y="261"/>
			<point x="506" y="400"/>
			<point x="506" y="441" type="curve" smooth="yes"/>
			<point x="506" y="473"/>
			<point x="493" y="493"/>
			<point x="481" y="493" type="curve" smooth="yes"/>
			<point x="449" y="493"/>
			<point x="448" y="458"/>
			<point x="424" y="397" type="curve" smooth="yes"/>
			<point x="396" y="327"/>
			<point x="367" y="267"/>
			<point x="336" y="218" type="curve" smooth="yes"/>
			<point x="275" y="118"/>
			<point x="208" y="60"/>
			<point x="126" y="41" type="curve"/>
			<point x="181" y="44" type="line"/>
			<point x="152" y="91"/>
			<point x="143" y="143"/>
			<point x="143" y="199" type="curve" smooth="yes"/>
			<point x="143" y="293"/>
			<point x="173" y="394"/>
			<point x="173" y="432" type="curve" smooth="yes"/>
			<point x="173" y="465"/>
			<point x="159" y="496"/>
			<point x="132" y="496" type="curve" smooth="yes"/>
			<point x="119" y="496"/>
			<point x="110" y="476"/>
			<point x="104" y="443" type="curve" smooth="yes"/>
			<point x="90" y="387"/>
			<point x="72" y="280"/>
			<point x="72" y="205" type="curve" smooth="yes"/>
			<point x="72" y="74"/>
			<point x="111" y="-10"/>
			<point x="169" y="-10" type="curve" smooth="yes"/>
			<point x="258" y="-10"/>
			<point x="392" y="156"/>
			<point x="433" y="277" type="curve" smooth="yes"/>
			<point x="455" y="322"/>
			<point x="463" y="355"/>
			<point x="468" y="374" type="curve"/>
			<point x="430" y="339" type="line"/>
			<point x="430" y="338"/>
			<point x="414" y="229"/>
			<point x="414" y="196" type="curve" smooth="yes"/>
			<point x="414" y="86"/>
			<point x="442" y="-13"/>
		</contour>
	</outline>
</glyph>
<glyph name="te-cy.loclBGR" format="2">
	<advance width="877" height="0"/>
	<anchor x="426" y="0" name="bottom"/>
	<anchor x="443" y="485" name="top"/>
	<outline>
		<contour>
			<point x="120" y="-9" type="curve" smooth="yes"/>
			<point x="136" y="-9"/>
			<point x="145" y="0"/>
			<point x="155" y="37" type="curve" smooth="yes"/>
			<point x="206" y="230"/>
			<point x="271" y="377"/>
			<point x="349" y="436" type="curve"/>
			<point x="325" y="446" type="line"/>
			<point x="359" y="411"/>
			<point x="391" y="320"/>
			<point x="406" y="191" type="curve" smooth="yes"/>
			<point x="421" y="61"/>
			<point x="421" y="-3"/>
			<point x="463" y="-3" type="curve" smooth="yes"/>
			<point x="485" y="-3"/>
			<point x="487" y="29"/>
			<point x="498" y="106" type="curve" smooth="yes"/>
			<point x="524" y="291"/>
			<point x="594" y="407"/>
			<point x="665" y="447" type="curve"/>
			<point x="642" y="446" type="line"/>
			<point x="680" y="412"/>
			<point x="703" y="373"/>
			<point x="722" y="220" type="curve" smooth="yes"/>
			<point x="739" y="61"/>
			<point x="763" y="-9"/>
			<point x="802" y="-9" type="curve" smooth="yes"/>
			<point x="824" y="-9"/>
			<point x="836" y="3"/>
			<point x="836" y="24" type="curve" smooth="yes"/>
			<point x="836" y="68"/>
			<point x="802" y="66"/>
			<point x="785" y="254" type="curve" smooth="yes"/>
			<point x="768" y="418"/>
			<point x="735" y="494"/>
			<point x="650" y="494" type="curve" smooth="yes"/>
			<point x="572" y="494"/>
			<point x="459" y="322"/>
			<point x="445" y="123" type="curve"/>
			<point x="478" y="96" type="line"/>
			<point x="474" y="139"/>
			<point x="471" y="175"/>
			<point x="467" y="208" type="curve" smooth="yes"/>
			<point x="449" y="369"/>
			<point x="408" y="494"/>
			<point x="343" y="494" type="curve" smooth="yes"/>
			<point x="266" y="494"/>
			<point x="174" y="325"/>
			<point x="139" y="164" type="curve"/>
			<point x="152" y="183" type="line"/>
			<point x="152" y="352"/>
			<point x="142" y="443"/>
			<point x="109" y="443" type="curve" smooth="yes"/>
			<point x="93" y="443"/>
			<point x="81" y="432"/>
			<point x="81" y="419" type="curve" smooth="yes"/>
			<point x="81" y="387"/>
			<point x="91" y="355"/>
			<point x="91" y="317" type="curve" smooth="yes"/>
			<point x="91" y="250"/>
			<point x="89" y="177"/>
			<point x="89" y="109" type="curve" smooth="yes"/>
			<point x="89" y="49"/>
			<point x="96" y="-9"/>
		</contour>
	</outline>
</glyph>
<glyph name="yukrcyr_yukrcyr" format="2">
	<advance width="553" height="0"/>
	<guideline x="324" y="288" angle="0" name=" [#IPZlGKIdap]"/>
	<outline>
		<contour>
			<point x="143" y="-11" type="curve" smooth="yes"/>
			<point x="159" y="-11"/>
			<point x="167" y="0"/>
			<point x="167" y="17" type="curve" smooth="yes"/>
			<point x="167" y="101"/>
			<point x="176" y="367"/>
			<point x="175" y="445" type="curve" smooth="yes"/>
			<point x="174" y="478"/>
			<point x="154" y="496"/>
			<point x="130" y="496" type="curve" smooth="yes"/>
			<point x="109" y="496"/>
			<point x="99" y="480"/>
			<point x="99" y="456" type="curve" smooth="yes"/>
			<point x="99" y="343"/>
			<point x="102" y="276"/>
			<point x="102" y="53" type="curve" smooth="yes"/>
			<point x="102" y="20"/>
			<point x="120" y="-11"/>
		</contour>
		<contour>
			<point x="420" y="-11" type="curve" smooth="yes"/>
			<point x="436" y="-11"/>
			<point x="444" y="0"/>
			<point x="444" y="17" type="curve" smooth="yes"/>
			<point x="444" y="101"/>
			<point x="453" y="367"/>
			<point x="452" y="445" type="curve" smooth="yes"/>
			<point x="451" y="478"/>
			<point x="431" y="496"/>
			<point x="407" y="496" type="curve" smooth="yes"/>
			<point x="386" y="496"/>
			<point x="376" y="480"/>
			<point x="376" y="456" type="curve" smooth="yes"/>
			<point x="376" y="343"/>
			<point x="379" y="276"/>
			<point x="379" y="53" type="curve" smooth="yes"/>
			<point x="379" y="20"/>
			<point x="397" y="-11"/>
		</contour>
		<contour>
			<point x="58" y="563" type="curve" smooth="yes"/>
			<point x="87" y="563"/>
			<point x="114" y="583"/>
			<point x="114" y="618" type="curve" smooth="yes"/>
			<point x="114" y="655"/>
			<point x="90" y="697"/>
			<point x="40" y="697" type="curve" smooth="yes"/>
			<point x="8" y="697"/>
			<point x="-14" y="672"/>
			<point x="-14" y="641" type="curve" smooth="yes"/>
			<point x="-14" y="598"/>
			<point x="15" y="563"/>
		</contour>
		<contour>
			<point x="206" y="579" type="curve" smooth="yes"/>
			<point x="248" y="579"/>
			<point x="265" y="606"/>
			<point x="265" y="627" type="curve" smooth="yes"/>
			<point x="265" y="663"/>
			<point x="238" y="707"/>
			<point x="196" y="707" type="curve" smooth="yes"/>
			<point x="163" y="707"/>
			<point x="138" y="683"/>
			<point x="138" y="652" type="curve" smooth="yes"/>
			<point x="138" y="615"/>
			<point x="170" y="579"/>
		</contour>
		<contour>
			<point x="363" y="581" type="curve" smooth="yes"/>
			<point x="396" y="581"/>
			<point x="417" y="600"/>
			<point x="417" y="632" type="curve" smooth="yes"/>
			<point x="417" y="670"/>
			<point x="394" y="714"/>
			<point x="346" y="714" type="curve" smooth="yes"/>
			<point x="314" y="714"/>
			<point x="292" y="689"/>
			<point x="292" y="658" type="curve" smooth="yes"/>
			<point x="292" y="615"/>
			<point x="321" y="581"/>
		</contour>
		<contour>
			<point x="508" y="570" type="curve" smooth="yes"/>
			<point x="549" y="570"/>
			<point x="569" y="600"/>
			<point x="569" y="623" type="curve" smooth="yes"/>
			<point x="569" y="660"/>
			<point x="542" y="706"/>
			<point x="500" y="706" type="curve" smooth="yes"/>
			<point x="467" y="706"/>
			<point x="442" y="682"/>
			<point x="442" y="651" type="curve" smooth="yes"/>
			<point x="442" y="609"/>
			<point x="473" y="570"/>
		</contour>
	</outline>
</glyph>
